<?xml version="1.0" encoding="UTF-8"?><svg id="a" xmlns="http://www.w3.org/2000/svg" viewBox="0 0 1918.95 1079.95"><defs><style>.b{fill:#2c302c;}.c{fill:#c2c1a5;}.d{fill:#f5f9e9;}.e{opacity:.21;}.f{fill:#36453b;}</style></defs><path class="b" d="M1918.95,0V1079.15H535.51l-.58,.8c-.09-.28-.17-.55-.24-.8H0V0H1918.95Z"/><rect class="c" width="1918.95" height="955.7"/><path class="e" d="M763.27,1067.7c-.35-5.9-5.46-10.41-11.38-10.04-23.63,1.55-47.54,2.34-71.66,2.34s-48.02-.79-71.66-2.34c-5.92-.37-11.01,4.12-11.38,10.04,0,.08-.01,.15-.01,.23-.24,5.81,4.21,10.78,10.04,11.15,.36,.02,.72,.05,1.08,.07h143.81c.37-.02,.75-.05,1.12-.07,5.71-.35,10.12-5.15,10.06-10.81,0-.19,0-.38-.02-.57Z"/><path class="e" d="M259.48,1010.01c-.05-.75-.17-1.48-.36-2.18-1.31-4.78-5.85-8.17-11.01-7.85-23.63,1.55-47.55,2.34-71.66,2.34s-48.02-.79-71.67-2.34c-5.15-.32-9.68,3.05-11,7.84-.2,.7-.32,1.43-.37,2.19-.37,5.92,4.11,11.01,10.03,11.38,13.61,.91,27.16,1.55,40.64,1.95,1.59,8.47,3.09,17.04,4.5,25.68,1.63,10.02,3.14,20.06,4.51,30.13h46.7c1.37-10.08,2.88-20.14,4.51-30.15,1.39-8.62,2.89-17.19,4.48-25.66h.02c13.48-.4,27.02-1.06,40.65-1.95,5.9-.35,10.4-5.46,10.03-11.38Z"/><path class="e" d="M290.62,1051.54l9.44,12.95,10.69,14.66h223.94c.07,.25,.15,.52,.24,.8l.58-.8,12.15-16.67,2.32-3.18,5.66-7.76H290.62Zm215.54-96.01c-.03-.49-.09-.97-.19-1.44-1.01-5.18-5.76-8.94-11.19-8.6-23.63,1.55-47.54,2.34-71.66,2.34s-48.01-.79-71.66-2.34c-5.4-.34-10.12,3.38-11.18,8.54-.1,.49-.17,.99-.2,1.5v.17c-.28,5.84,4.18,10.83,10.04,11.2,13.61,.91,27.16,1.55,40.63,1.95,1.6,8.47,3.1,17.05,4.51,25.68,2.39,14.66,4.5,29.37,6.32,44.12h43.07c1.82-14.77,3.94-29.49,6.32-44.13,1.4-8.62,2.89-17.2,4.49-25.67h0c13.48-.4,27.03-1.05,40.66-1.95,5.84-.35,10.31-5.36,10.04-11.2-.01-.06-.01-.11-.01-.17Z"/><path class="e" d="M1740.01,1067.7c-.14-2.2-.93-4.21-2.19-5.84-2.09-2.75-5.48-4.43-9.19-4.2-23.63,1.55-47.54,2.34-71.66,2.34s-48.02-.79-71.66-2.34c-5.92-.37-11.01,4.12-11.38,10.04-.13,2.08,.34,4.07,1.28,5.78,1.7,3.14,4.93,5.36,8.75,5.6,.36,.02,.72,.05,1.08,.07h143.81c.37-.02,.75-.05,1.12-.07,5.9-.36,10.41-5.47,10.04-11.38Z"/><path class="e" d="M1064.94,1067.26l8.67,11.89h247.68l1.04-1.42,7.63-10.47h-265.02Zm215.55-96.02c-.08-1.36-.42-2.65-.96-3.81-1.8-3.91-5.86-6.5-10.42-6.22-23.63,1.54-47.54,2.33-71.66,2.33s-48.02-.79-71.66-2.33c-5.92-.37-11.01,4.11-11.38,10.03-.04,.7-.02,1.4,.07,2.07,.65,5,4.75,8.98,9.96,9.31,13.62,.9,27.16,1.54,40.64,1.95,1.6,8.47,3.09,17.04,4.5,25.68,2.39,14.65,4.51,29.36,6.32,44.11h43.08c1.81-14.77,3.93-29.49,6.32-44.13,1.39-8.62,2.89-17.19,4.49-25.66h.01c13.48-.41,27.02-1.06,40.65-1.95,5.9-.36,10.41-5.46,10.04-11.38Z"/><path class="f" d="M1460.6,991.34c-1-1.14-1.61-2.64-1.61-4.27,0-3.56,2.89-6.45,6.45-6.45h25.43l-19.21-24.92-39.73-51.55c-1.02-1.14-1.66-2.65-1.66-4.32,0-3.56,2.89-6.45,6.45-6.45h32.38l-78.04-118.06-63.5,96.08-1.38,2.09-13.15,19.89h32.37c1.38,.02,2.76,.45,3.93,1.36,2.81,2.17,3.33,6.22,1.16,9.03l-40.03,51.93-19.21,24.92h25.44c1.31,.03,2.64,.44,3.78,1.26,2.88,2.08,3.5,6.1,1.42,8.97l-55.7,76.41-7.63,10.47h265.02l-62.98-86.39Z"/><path class="f" d="M992.97,1020.58c-1.6-8.47-3.09-17.04-4.49-25.66-2.39-14.64-4.5-29.36-6.32-44.13h-43.08c-1.82,14.76-3.93,29.46-6.32,44.12-1.41,8.64-2.91,17.21-4.5,25.68-13.48,.4-27.02,1.04-40.64,1.95-5.92,.37-10.4,5.46-10.03,11.38,.37,5.92,5.46,10.4,11.38,10.03,23.65-1.55,47.55-2.34,71.66-2.34s48.03,.79,71.66,2.34c5.92,.37,11.02-4.13,11.38-10.03,.37-5.92-4.13-11.02-10.03-11.38-13.63-.89-27.18-1.55-40.65-1.95h-.01Zm45.7-267.03l-78.03-118.06-78.03,118.06h32.37c1.38,.02,2.76,.45,3.93,1.36,2.81,2.17,3.33,6.22,1.16,9.03l-59.24,76.85h25.45c1.31,.03,2.64,.44,3.78,1.26,2.87,2.08,3.5,6.1,1.41,8.97l-63.33,86.87h265.02l-62.97-86.38c-1.01-1.14-1.61-2.64-1.61-4.27,0-3.56,2.89-6.45,6.45-6.45h25.43l-58.94-76.47c-1.03-1.14-1.66-2.66-1.66-4.32,0-3.56,2.89-6.45,6.45-6.45h32.37Z"/><path class="f" d="M712.58,1055.17c-1.6-8.47-3.09-17.04-4.49-25.66-2.39-14.64-4.5-29.36-6.32-44.13h-43.08c-1.82,14.76-3.93,29.46-6.32,44.12-1.41,8.64-2.91,17.21-4.5,25.68-13.48,.4-27.02,1.04-40.64,1.95-5.92,.37-10.4,5.46-10.03,11.38,.37,5.92,5.46,10.4,11.38,10.03,23.65-1.55,47.55-2.34,71.66-2.34s48.03,.79,71.66,2.34c5.92,.37,11.02-4.13,11.38-10.03,.37-5.92-4.13-11.02-10.03-11.38-13.63-.89-27.18-1.55-40.65-1.95h-.01Zm45.7-267.03l-78.03-118.06-78.03,118.06h32.37c1.38,.02,2.76,.45,3.93,1.36,2.81,2.17,3.33,6.22,1.16,9.03l-59.24,76.85h25.45c1.31,.03,2.64,.44,3.78,1.26,2.87,2.08,3.5,6.1,1.41,8.97l-63.33,86.87h265.02l-62.97-86.38c-1.01-1.14-1.61-2.64-1.61-4.27,0-3.56,2.89-6.45,6.45-6.45h25.43l-58.94-76.47c-1.03-1.14-1.66-2.66-1.66-4.32,0-3.56,2.89-6.45,6.45-6.45h32.37Z"/><path class="f" d="M208.79,992.29c-1.6-8.47-3.09-17.04-4.49-25.66-2.39-14.64-4.5-29.36-6.32-44.13h-43.08c-1.82,14.76-3.93,29.46-6.32,44.12-1.41,8.64-2.91,17.21-4.5,25.68-13.48,.4-27.02,1.04-40.64,1.95-5.92,.37-10.4,5.46-10.03,11.38s5.46,10.4,11.38,10.03c23.65-1.55,47.55-2.34,71.66-2.34s48.03,.79,71.66,2.34c5.92,.37,11.02-4.13,11.38-10.03,.37-5.92-4.13-11.02-10.03-11.38-13.63-.89-27.18-1.55-40.65-1.95h-.01Zm45.7-267.03l-78.03-118.06-78.03,118.06h32.37c1.38,.02,2.76,.45,3.93,1.36,2.81,2.17,3.33,6.22,1.16,9.03l-59.24,76.85h25.45c1.31,.03,2.64,.44,3.78,1.26,2.87,2.08,3.5,6.1,1.41,8.97l-63.33,86.87H308.97l-62.97-86.38c-1.01-1.14-1.61-2.64-1.61-4.27,0-3.56,2.89-6.45,6.45-6.45h25.43l-58.94-76.47c-1.03-1.14-1.66-2.66-1.66-4.32,0-3.56,2.89-6.45,6.45-6.45h32.37Z"/><path class="f" d="M455.47,939.26c-1.6-8.47-3.09-17.04-4.49-25.66-2.39-14.64-4.5-29.36-6.32-44.13h-43.08c-1.82,14.76-3.93,29.46-6.32,44.12-1.41,8.64-2.91,17.21-4.5,25.68-13.48,.4-27.02,1.04-40.64,1.95-5.92,.37-10.4,5.46-10.03,11.38,.37,5.92,5.46,10.4,11.38,10.03,23.65-1.55,47.55-2.34,71.66-2.34s48.03,.79,71.66,2.34c5.92,.37,11.02-4.13,11.38-10.03,.37-5.92-4.13-11.02-10.03-11.38-13.63-.89-27.18-1.55-40.65-1.95h-.01Zm45.7-267.03l-78.03-118.06-78.03,118.06h32.37c1.38,.02,2.76,.45,3.93,1.36,2.81,2.17,3.33,6.22,1.16,9.03l-59.24,76.85h25.45c1.31,.03,2.64,.44,3.78,1.26,2.87,2.08,3.5,6.1,1.41,8.97l-63.33,86.87h265.02l-62.97-86.38c-1.01-1.14-1.61-2.64-1.61-4.27,0-3.56,2.89-6.45,6.45-6.45h25.43l-58.94-76.47c-1.03-1.14-1.66-2.66-1.66-4.32,0-3.56,2.89-6.45,6.45-6.45h32.37Z"/><path class="f" d="M1688.42,1054.34c-1.6-8.47-3.09-17.04-4.49-25.66-2.39-14.64-4.5-29.36-6.32-44.13h-43.08c-1.82,14.76-3.93,29.46-6.32,44.12-1.41,8.64-2.91,17.21-4.5,25.68-13.48,.4-27.02,1.04-40.64,1.95-5.92,.37-10.4,5.46-10.03,11.38,.37,5.92,5.46,10.4,11.38,10.03,23.65-1.55,47.55-2.34,71.66-2.34s48.03,.79,71.66,2.34c5.92,.37,11.02-4.13,11.38-10.03,.37-5.92-4.13-11.02-10.03-11.38-13.63-.89-27.18-1.55-40.65-1.95h-.01Zm45.7-267.03l-78.03-118.06-78.03,118.06h32.37c1.38,.02,2.76,.45,3.93,1.36,2.81,2.17,3.33,6.22,1.16,9.03l-59.24,76.85h25.45c1.31,.03,2.64,.44,3.78,1.26,2.87,2.08,3.5,6.1,1.41,8.97l-63.33,86.87h265.02l-62.97-86.38c-1.01-1.14-1.61-2.64-1.61-4.27,0-3.56,2.89-6.45,6.45-6.45h25.43l-58.94-76.47c-1.03-1.14-1.66-2.66-1.66-4.32,0-3.56,2.89-6.45,6.45-6.45h32.37Z"/><path class="f" d="M1228.9,956.17c-1.6-8.47-3.09-17.04-4.49-25.66-2.39-14.64-4.5-29.36-6.32-44.13h-43.08c-1.82,14.76-3.93,29.46-6.32,44.12-1.41,8.64-2.91,17.21-4.5,25.68-13.48,.4-27.02,1.04-40.64,1.95-5.92,.37-10.4,5.46-10.03,11.38,.37,5.92,5.46,10.4,11.38,10.03,23.65-1.55,47.55-2.34,71.66-2.34s48.03,.79,71.66,2.34c5.92,.37,11.02-4.13,11.38-10.03,.37-5.92-4.13-11.02-10.03-11.38-13.63-.89-27.18-1.55-40.65-1.95h-.01Zm45.7-267.03l-78.03-118.06-78.03,118.06h32.37c1.38,.02,2.76,.45,3.93,1.36,2.81,2.17,3.33,6.22,1.16,9.03l-59.24,76.85h25.45c1.31,.03,2.64,.44,3.78,1.26,2.87,2.08,3.5,6.1,1.41,8.97l-63.33,86.87h265.02l-62.97-86.38c-1.01-1.14-1.61-2.64-1.61-4.27,0-3.56,2.89-6.45,6.45-6.45h25.43l-58.94-76.47c-1.03-1.14-1.66-2.66-1.66-4.32,0-3.56,2.89-6.45,6.45-6.45h32.37Z"/><path class="f" d="M1897.4,1058.68c-.84,6.84-1.74,13.66-2.71,20.47h24.26v-20.47h-21.55Zm-56.48-197.24h32.37c1.36,.01,2.74,.46,3.93,1.36,2.8,2.18,3.33,6.23,1.15,9.02l-59.23,76.87h25.45c1.3,.03,2.63,.44,3.76,1.25,1.9,1.38,2.82,3.6,2.64,5.76-.1,1.13-.51,2.23-1.22,3.22l-63.32,86.88h132.5v-302.41l-78.03,118.05Z"/><path class="d" d="M1046.38,345.72c.88-3.69,4.02-6.27,7.4-6.27s6.58,2.03,9.17,4.46c6.92-9.43,17.1-17.18,23.21-22.17,1.26,2.93,1.82,6.1,1.82,9.33,0,3.54-.7,8.55-1.84,11.98l-11.5,.85h36.95c-4.42,10.2-13.22,17.66-23.59,21.83,6.55,4.57,12,7.81,18.18,12.06-3.6,3.6-5.99,5.19-11.69,7.14-3.9-5.64-7.06-9.55-9.88-13.55-3.93,1.75-8.38,2.71-12.76,2.71-19.79,0-25.24-21.57-25.68-25.84-1.72-.28-3.44-.58-5.16-.81,1.82-.48,3.62-1.05,5.37-1.73Zm5.49,.21c.75,0,1.36-.61,1.36-1.36s-.61-1.36-1.36-1.36-1.36,.61-1.36,1.36,.61,1.36,1.36,1.36Z"/><path class="d" d="M857.01,385.07c0,57.52-46.6,104.14-104.12,104.14-2.11,0-4.09-.16-6.14-.3v.3H330.3v-.16c-51.02-1.65-91.84-43.4-91.84-94.77,0-21.49,7.13-41.27,19.15-57.16,7.84-10.37,17.77-19.08,29.17-25.5,13.54-7.65,29.13-12.07,45.77-12.21-1.45-7.96-2.28-16.14-2.28-24.51,0-48.62,24.64-91.48,62.08-116.79,4.97-3.36,10.18-6.41,15.57-9.11,19.01-9.57,40.48-14.95,63.2-14.95,49.4,0,92.83,25.5,117.94,63.98,15.72-9.4,34-14.94,53.57-14.94,55.55,0,100.81,43.48,103.82,98.28,2.23-.05,4.28-.3,6.48-.3,57.52,0,104.12,46.62,104.08,104.03Z"/><path class="d" d="M322.56,292.33s-38.9,5.96-59.22,19.27H112.06v-.09c-34.58-1.13-62.26-29.43-62.26-64.26s28.49-64.01,63.78-64.31c-.97-5.4-1.54-10.96-1.54-16.62,0-52.74,42.76-95.5,95.48-95.5,33.48,0,62.93,17.29,79.96,43.38,10.65-6.37,23.06-10.12,36.32-10.12,28.71,0,53.36,17.11,64.35,41.7-20.57,15.04-75.13,68-65.59,146.56Z"/><path class="d" d="M469.14,241.03c0,38.99-31.59,70.58-70.58,70.58-1.43,0-2.78-.09-4.16-.19v.19h-107.62c13.54-7.65,29.13-12.07,45.77-12.21-1.45-7.96-2.28-16.14-2.28-24.51,0-48.62,24.64-91.48,62.08-116.79,.99,4.07,1.61,8.28,1.84,12.6,1.5-.04,2.9-.19,4.39-.19,8.12,0,15.93,1.38,23.2,3.89,27.59,9.59,47.38,35.82,47.36,66.63Z"/><path class="c" d="M330.26,274.89c0,8.37,.83,16.55,2.28,24.51-16.64,.14-32.23,4.57-45.77,12.21h-23.43c20.32-13.31,53.49-20.23,53.49-20.23-9.54-78.56,50.75-130.56,71.32-145.6,.5,1.1,.96,2.21,1.4,3.33,1.13,2.9,2.07,5.91,2.8,8.99-37.45,25.31-62.08,68.17-62.08,116.79Z"/><path class="f" d="M1460.6,991.34c-1-1.14-1.61-2.64-1.61-4.27,0-3.56,2.89-6.45,6.45-6.45h25.43l-19.21-24.92-39.73-51.55c-1.02-1.14-1.66-2.65-1.66-4.32,0-3.56,2.89-6.45,6.45-6.45h32.38l-78.04-118.06-63.5,96.08-1.38,2.09-13.15,19.89h32.37c1.38,.02,2.76,.45,3.93,1.36,2.81,2.17,3.33,6.22,1.16,9.03l-40.03,51.93-19.21,24.92h25.44c1.31,.03,2.64,.44,3.78,1.26,2.88,2.08,3.5,6.1,1.42,8.97l-55.7,76.41-7.63,10.47h265.02l-62.98-86.39Z"/><path class="f" d="M712.58,1055.17c-1.6-8.47-3.09-17.04-4.49-25.66-2.39-14.64-4.5-29.36-6.32-44.13h-43.08c-1.82,14.76-3.93,29.46-6.32,44.12-1.41,8.64-2.91,17.21-4.5,25.68-13.48,.4-27.02,1.04-40.64,1.95-5.92,.37-10.4,5.46-10.03,11.38,.37,5.92,5.46,10.4,11.38,10.03,23.65-1.55,47.55-2.34,71.66-2.34s48.03,.79,71.66,2.34c5.92,.37,11.02-4.13,11.38-10.03,.37-5.92-4.13-11.02-10.03-11.38-13.63-.89-27.18-1.55-40.65-1.95h-.01Zm45.7-267.03l-78.03-118.06-78.03,118.06h32.37c1.38,.02,2.76,.45,3.93,1.36,2.81,2.17,3.33,6.22,1.16,9.03l-59.24,76.85h25.45c1.31,.03,2.64,.44,3.78,1.26,2.87,2.08,3.5,6.1,1.41,8.97l-63.33,86.87h265.02l-62.97-86.38c-1.01-1.14-1.61-2.64-1.61-4.27,0-3.56,2.89-6.45,6.45-6.45h25.43l-58.94-76.47c-1.03-1.14-1.66-2.66-1.66-4.32,0-3.56,2.89-6.45,6.45-6.45h32.37Z"/><path class="f" d="M208.79,992.29c-1.6-8.47-3.09-17.04-4.49-25.66-2.39-14.64-4.5-29.36-6.32-44.13h-43.08c-1.82,14.76-3.93,29.46-6.32,44.12-1.41,8.64-2.91,17.21-4.5,25.68-13.48,.4-27.02,1.04-40.64,1.95-5.92,.37-10.4,5.46-10.03,11.38s5.46,10.4,11.38,10.03c23.65-1.55,47.55-2.34,71.66-2.34s48.03,.79,71.66,2.34c5.92,.37,11.02-4.13,11.38-10.03,.37-5.92-4.13-11.02-10.03-11.38-13.63-.89-27.18-1.55-40.65-1.95h-.01Zm45.7-267.03l-78.03-118.06-78.03,118.06h32.37c1.38,.02,2.76,.45,3.93,1.36,2.81,2.17,3.33,6.22,1.16,9.03l-59.24,76.85h25.45c1.31,.03,2.64,.44,3.78,1.26,2.87,2.08,3.5,6.1,1.41,8.97l-63.33,86.87H308.97l-62.97-86.38c-1.01-1.14-1.61-2.64-1.61-4.27,0-3.56,2.89-6.45,6.45-6.45h25.43l-58.94-76.47c-1.03-1.14-1.66-2.66-1.66-4.32,0-3.56,2.89-6.45,6.45-6.45h32.37Z"/><path class="f" d="M455.47,939.26c-1.6-8.47-3.09-17.04-4.49-25.66-2.39-14.64-4.5-29.36-6.32-44.13h-43.08c-1.82,14.76-3.93,29.46-6.32,44.12-1.41,8.64-2.91,17.21-4.5,25.68-13.48,.4-27.02,1.04-40.64,1.95-5.92,.37-10.4,5.46-10.03,11.38,.37,5.92,5.46,10.4,11.38,10.03,23.65-1.55,47.55-2.34,71.66-2.34s48.03,.79,71.66,2.34c5.92,.37,11.02-4.13,11.38-10.03,.37-5.92-4.13-11.02-10.03-11.38-13.63-.89-27.18-1.55-40.65-1.95h-.01Zm45.7-267.03l-78.03-118.06-78.03,118.06h32.37c1.38,.02,2.76,.45,3.93,1.36,2.81,2.17,3.33,6.22,1.16,9.03l-59.24,76.85h25.45c1.31,.03,2.64,.44,3.78,1.26,2.87,2.08,3.5,6.1,1.41,8.97l-63.33,86.87h265.02l-62.97-86.38c-1.01-1.14-1.61-2.64-1.61-4.27,0-3.56,2.89-6.45,6.45-6.45h25.43l-58.94-76.47c-1.03-1.14-1.66-2.66-1.66-4.32,0-3.56,2.89-6.45,6.45-6.45h32.37Z"/><path class="f" d="M1688.42,1054.34c-1.6-8.47-3.09-17.04-4.49-25.66-2.39-14.64-4.5-29.36-6.32-44.13h-43.08c-1.82,14.76-3.93,29.46-6.32,44.12-1.41,8.64-2.91,17.21-4.5,25.68-13.48,.4-27.02,1.04-40.64,1.95-5.92,.37-10.4,5.46-10.03,11.38,.37,5.92,5.46,10.4,11.38,10.03,23.65-1.55,47.55-2.34,71.66-2.34s48.03,.79,71.66,2.34c5.92,.37,11.02-4.13,11.38-10.03,.37-5.92-4.13-11.02-10.03-11.38-13.63-.89-27.18-1.55-40.65-1.95h-.01Zm45.7-267.03l-78.03-118.06-78.03,118.06h32.37c1.38,.02,2.76,.45,3.93,1.36,2.81,2.17,3.33,6.22,1.16,9.03l-59.24,76.85h25.45c1.31,.03,2.64,.44,3.78,1.26,2.87,2.08,3.5,6.1,1.41,8.97l-63.33,86.87h265.02l-62.97-86.38c-1.01-1.14-1.61-2.64-1.61-4.27,0-3.56,2.89-6.45,6.45-6.45h25.43l-58.94-76.47c-1.03-1.14-1.66-2.66-1.66-4.32,0-3.56,2.89-6.45,6.45-6.45h32.37Z"/><path class="f" d="M1228.9,956.17c-1.6-8.47-3.09-17.04-4.49-25.66-2.39-14.64-4.5-29.36-6.32-44.13h-43.08c-1.82,14.76-3.93,29.46-6.32,44.12-1.41,8.64-2.91,17.21-4.5,25.68-13.48,.4-27.02,1.04-40.64,1.95-5.92,.37-10.4,5.46-10.03,11.38,.37,5.92,5.46,10.4,11.38,10.03,23.65-1.55,47.55-2.34,71.66-2.34s48.03,.79,71.66,2.34c5.92,.37,11.02-4.13,11.38-10.03,.37-5.92-4.13-11.02-10.03-11.38-13.63-.89-27.18-1.55-40.65-1.95h-.01Zm45.7-267.03l-78.03-118.06-78.03,118.06h32.37c1.38,.02,2.76,.45,3.93,1.36,2.81,2.17,3.33,6.22,1.16,9.03l-59.24,76.85h25.45c1.31,.03,2.64,.44,3.78,1.26,2.87,2.08,3.5,6.1,1.41,8.97l-63.33,86.87h265.02l-62.97-86.38c-1.01-1.14-1.61-2.64-1.61-4.27,0-3.56,2.89-6.45,6.45-6.45h25.43l-58.94-76.47c-1.03-1.14-1.66-2.66-1.66-4.32,0-3.56,2.89-6.45,6.45-6.45h32.37Z"/><path class="f" d="M1897.4,1058.68c-.84,6.84-1.74,13.66-2.71,20.47h24.26v-20.47h-21.55Zm-56.48-197.24h32.37c1.36,.01,2.74,.46,3.93,1.36,2.8,2.18,3.33,6.23,1.15,9.02l-59.23,76.87h25.45c1.3,.03,2.63,.44,3.76,1.25,1.9,1.38,2.82,3.6,2.64,5.76-.1,1.13-.51,2.23-1.22,3.22l-63.32,86.88h132.5v-302.41l-78.03,118.05Z"/><path class="e" d="M1043.04,1041.19c-.08-1.36-.42-2.65-.96-3.81-1.8-3.91-5.86-6.5-10.42-6.22-23.63,1.54-47.54,2.33-71.66,2.33s-48.02-.79-71.66-2.33c-5.92-.37-11.01,4.11-11.38,10.03-.04,.7-.02,1.4,.07,2.07,.65,5,4.75,8.98,9.96,9.31,13.62,.9,27.16,1.54,40.64,1.95,1.54,8.13,2.97,16.34,4.33,24.63h56.06c1.34-8.27,2.78-16.5,4.32-24.63h0c13.48-.41,27.02-1.06,40.65-1.95,5.9-.36,10.41-5.46,10.04-11.38Z"/><path class="f" d="M992.97,1020.58c-1.6-8.47-3.09-17.04-4.49-25.66-2.39-14.64-4.5-29.36-6.32-44.13h-43.08c-1.82,14.76-3.93,29.46-6.32,44.12-1.41,8.64-2.91,17.21-4.5,25.68-13.48,.4-27.02,1.04-40.64,1.95-5.92,.37-10.4,5.46-10.03,11.38,.37,5.92,5.46,10.4,11.38,10.03,23.65-1.55,47.55-2.34,71.66-2.34s48.03,.79,71.66,2.34c5.92,.37,11.02-4.13,11.38-10.03,.37-5.92-4.13-11.02-10.03-11.38-13.63-.89-27.18-1.55-40.65-1.95h-.01Zm45.7-267.03l-78.03-118.06-78.03,118.06h32.37c1.38,.02,2.76,.45,3.93,1.36,2.81,2.17,3.33,6.22,1.16,9.03l-59.24,76.85h25.45c1.31,.03,2.64,.44,3.78,1.26,2.87,2.08,3.5,6.1,1.41,8.97l-63.33,86.87h265.02l-62.97-86.38c-1.01-1.14-1.61-2.64-1.61-4.27,0-3.56,2.89-6.45,6.45-6.45h25.43l-58.94-76.47c-1.03-1.14-1.66-2.66-1.66-4.32,0-3.56,2.89-6.45,6.45-6.45h32.37Z"/></svg>