<?xml version="1.0" encoding="utf-8"?>
<!-- Generator: Adobe Illustrator 26.2.1, SVG Export Plug-In . SVG Version: 6.00 Build 0)  -->
<svg version="1.1" id="a" xmlns="http://www.w3.org/2000/svg" xmlns:xlink="http://www.w3.org/1999/xlink" x="0px" y="0px"
	 viewBox="0 0 1918.9 1079.9" style="enable-background:new 0 0 1918.9 1079.9;" xml:space="preserve">
<style type="text/css">
	.st0{fill:#2C302C;}
	.st1{fill:#C2C1A5;}
	.st2{opacity:0.21;enable-background:new    ;}
	.st3{fill:#36453B;}
	.st4{fill:#F5F9E9;}
</style>
<path class="st0" d="M1918.9,0v1079.2H535.5l-0.6,0.8c-0.1-0.3-0.2-0.6-0.2-0.8H0V0H1918.9z"/>
<rect class="st1" width="1918.9" height="955.7"/>
<path class="st2" d="M763.3,1067.7c-0.3-5.9-5.5-10.4-11.4-10c-23.6,1.6-47.5,2.3-71.7,2.3s-48-0.8-71.7-2.3
	c-5.9-0.4-11,4.1-11.4,10c0,0.1,0,0.2,0,0.2c-0.2,5.8,4.2,10.8,10,11.2c0.4,0,0.7,0.1,1.1,0.1h143.8c0.4,0,0.8-0.1,1.1-0.1
	c5.7-0.3,10.1-5.2,10.1-10.8C763.3,1068.1,763.3,1067.9,763.3,1067.7L763.3,1067.7z"/>
<path class="st2" d="M259.5,1010c0-0.8-0.2-1.5-0.4-2.2c-1.3-4.8-5.9-8.2-11-7.8c-23.6,1.5-47.6,2.3-71.7,2.3s-48-0.8-71.7-2.3
	c-5.2-0.3-9.7,3-11,7.8c-0.2,0.7-0.3,1.4-0.4,2.2c-0.4,5.9,4.1,11,10,11.4c13.6,0.9,27.2,1.5,40.6,2c1.6,8.5,3.1,17,4.5,25.7
	c1.6,10,3.1,20.1,4.5,30.1h46.7c1.4-10.1,2.9-20.1,4.5-30.2c1.4-8.6,2.9-17.2,4.5-25.7h0c13.5-0.4,27-1.1,40.7-2
	C255.4,1021,259.9,1015.9,259.5,1010L259.5,1010z"/>
<path class="st2" d="M290.6,1051.5l9.4,12.9l10.7,14.7h223.9c0.1,0.2,0.2,0.5,0.2,0.8l0.6-0.8l12.2-16.7l2.3-3.2l5.7-7.8
	L290.6,1051.5L290.6,1051.5z M506.2,955.5c0-0.5-0.1-1-0.2-1.4c-1-5.2-5.8-8.9-11.2-8.6c-23.6,1.5-47.5,2.3-71.7,2.3
	s-48-0.8-71.7-2.3c-5.4-0.3-10.1,3.4-11.2,8.5c-0.1,0.5-0.2,1-0.2,1.5v0.2c-0.3,5.8,4.2,10.8,10,11.2c13.6,0.9,27.2,1.5,40.6,2
	c1.6,8.5,3.1,17,4.5,25.7c2.4,14.7,4.5,29.4,6.3,44.1h43.1c1.8-14.8,3.9-29.5,6.3-44.1c1.4-8.6,2.9-17.2,4.5-25.7l0,0
	c13.5-0.4,27-1,40.7-2c5.8-0.3,10.3-5.4,10-11.2C506.1,955.6,506.1,955.6,506.2,955.5L506.2,955.5z"/>
<path class="st2" d="M1740,1067.7c-0.1-2.2-0.9-4.2-2.2-5.8c-2.1-2.8-5.5-4.4-9.2-4.2c-23.6,1.6-47.5,2.3-71.7,2.3s-48-0.8-71.7-2.3
	c-5.9-0.4-11,4.1-11.4,10c-0.1,2.1,0.3,4.1,1.3,5.8c1.7,3.1,4.9,5.4,8.8,5.6c0.4,0,0.7,0.1,1.1,0.1h143.8c0.4,0,0.8-0.1,1.1-0.1
	C1735.9,1078.7,1740.4,1073.6,1740,1067.7L1740,1067.7z"/>
<path class="st2" d="M1064.9,1067.3l8.7,11.9h247.7l1-1.4l7.6-10.5H1064.9L1064.9,1067.3z M1280.5,971.2c-0.1-1.4-0.4-2.7-1-3.8
	c-1.8-3.9-5.9-6.5-10.4-6.2c-23.6,1.5-47.5,2.3-71.7,2.3s-48-0.8-71.7-2.3c-5.9-0.4-11,4.1-11.4,10c0,0.7,0,1.4,0.1,2.1
	c0.7,5,4.8,9,10,9.3c13.6,0.9,27.2,1.5,40.6,2c1.6,8.5,3.1,17,4.5,25.7c2.4,14.6,4.5,29.4,6.3,44.1h43.1c1.8-14.8,3.9-29.5,6.3-44.1
	c1.4-8.6,2.9-17.2,4.5-25.7h0c13.5-0.4,27-1.1,40.7-2C1276.3,982.3,1280.9,977.2,1280.5,971.2L1280.5,971.2z"/>
<path class="st3" d="M1460.6,991.3c-1-1.1-1.6-2.6-1.6-4.3c0-3.6,2.9-6.5,6.4-6.5h25.4l-19.2-24.9l-39.7-51.5
	c-1-1.1-1.7-2.7-1.7-4.3c0-3.6,2.9-6.5,6.4-6.5h32.4l-78-118.1l-63.5,96.1l-1.4,2.1l-13.2,19.9h32.4c1.4,0,2.8,0.5,3.9,1.4
	c2.8,2.2,3.3,6.2,1.2,9l-40,51.9l-19.2,24.9h25.4c1.3,0,2.6,0.4,3.8,1.3c2.9,2.1,3.5,6.1,1.4,9l-55.7,76.4l-7.6,10.5h265
	L1460.6,991.3L1460.6,991.3z"/>
<path class="st3" d="M993,1020.6c-1.6-8.5-3.1-17-4.5-25.7c-2.4-14.6-4.5-29.4-6.3-44.1h-43.1c-1.8,14.8-3.9,29.5-6.3,44.1
	c-1.4,8.6-2.9,17.2-4.5,25.7c-13.5,0.4-27,1-40.6,2c-5.9,0.4-10.4,5.5-10,11.4s5.5,10.4,11.4,10c23.7-1.6,47.5-2.3,71.7-2.3
	s48,0.8,71.7,2.3c5.9,0.4,11-4.1,11.4-10c0.4-5.9-4.1-11-10-11.4C1020,1021.7,1006.5,1021,993,1020.6L993,1020.6L993,1020.6z
	 M1038.7,753.6l-78-118.1l-78,118.1H915c1.4,0,2.8,0.5,3.9,1.4c2.8,2.2,3.3,6.2,1.2,9l-59.2,76.8h25.5c1.3,0,2.6,0.4,3.8,1.3
	c2.9,2.1,3.5,6.1,1.4,9l-63.3,86.9h265l-63-86.4c-1-1.1-1.6-2.6-1.6-4.3c0-3.6,2.9-6.5,6.4-6.5h25.4l-58.9-76.5
	c-1-1.1-1.7-2.7-1.7-4.3c0-3.6,2.9-6.5,6.5-6.5L1038.7,753.6L1038.7,753.6z"/>
<path class="st3" d="M712.6,1055.2c-1.6-8.5-3.1-17-4.5-25.7c-2.4-14.6-4.5-29.4-6.3-44.1h-43.1c-1.8,14.8-3.9,29.5-6.3,44.1
	c-1.4,8.6-2.9,17.2-4.5,25.7c-13.5,0.4-27,1-40.6,1.9c-5.9,0.4-10.4,5.5-10,11.4s5.5,10.4,11.4,10c23.7-1.6,47.5-2.3,71.7-2.3
	s48,0.8,71.7,2.3c5.9,0.4,11-4.1,11.4-10c0.4-5.9-4.1-11-10-11.4C739.6,1056.2,726.1,1055.6,712.6,1055.2L712.6,1055.2L712.6,1055.2
	z M758.3,788.1l-78-118.1l-78,118.1h32.4c1.4,0,2.8,0.5,3.9,1.4c2.8,2.2,3.3,6.2,1.2,9l-59.2,76.8h25.5c1.3,0,2.6,0.4,3.8,1.3
	c2.9,2.1,3.5,6.1,1.4,9l-63.3,86.9h265l-63-86.4c-1-1.1-1.6-2.6-1.6-4.3c0-3.6,2.9-6.5,6.5-6.5h25.4l-58.9-76.5
	c-1-1.1-1.7-2.7-1.7-4.3c0-3.6,2.9-6.5,6.5-6.5L758.3,788.1L758.3,788.1z"/>
<path class="st3" d="M208.8,992.3c-1.6-8.5-3.1-17-4.5-25.7c-2.4-14.6-4.5-29.4-6.3-44.1h-43.1c-1.8,14.8-3.9,29.5-6.3,44.1
	c-1.4,8.6-2.9,17.2-4.5,25.7c-13.5,0.4-27,1-40.6,2c-5.9,0.4-10.4,5.5-10,11.4s5.5,10.4,11.4,10c23.7-1.5,47.5-2.3,71.7-2.3
	s48,0.8,71.7,2.3c5.9,0.4,11-4.1,11.4-10c0.4-5.9-4.1-11-10-11.4C235.8,993.4,222.3,992.7,208.8,992.3L208.8,992.3L208.8,992.3z
	 M254.5,725.3l-78-118.1l-78,118.1h32.4c1.4,0,2.8,0.5,3.9,1.4c2.8,2.2,3.3,6.2,1.2,9l-59.2,76.8h25.4c1.3,0,2.6,0.4,3.8,1.3
	c2.9,2.1,3.5,6.1,1.4,9L44,909.6h265l-63-86.4c-1-1.1-1.6-2.6-1.6-4.3c0-3.6,2.9-6.5,6.4-6.5h25.4L217.3,736c-1-1.1-1.7-2.7-1.7-4.3
	c0-3.6,2.9-6.5,6.4-6.5L254.5,725.3L254.5,725.3z"/>
<path class="st3" d="M455.5,939.3c-1.6-8.5-3.1-17-4.5-25.7c-2.4-14.6-4.5-29.4-6.3-44.1h-43.1c-1.8,14.8-3.9,29.5-6.3,44.1
	c-1.4,8.6-2.9,17.2-4.5,25.7c-13.5,0.4-27,1-40.6,2c-5.9,0.4-10.4,5.5-10,11.4s5.5,10.4,11.4,10c23.6-1.5,47.5-2.3,71.7-2.3
	s48,0.8,71.7,2.3c5.9,0.4,11-4.1,11.4-10c0.4-5.9-4.1-11-10-11.4C482.5,940.3,469,939.7,455.5,939.3L455.5,939.3L455.5,939.3z
	 M501.2,672.2l-78-118.1l-78,118.1h32.4c1.4,0,2.8,0.5,3.9,1.4c2.8,2.2,3.3,6.2,1.2,9l-59.2,76.8h25.5c1.3,0,2.6,0.4,3.8,1.3
	c2.9,2.1,3.5,6.1,1.4,9l-63.3,86.9h265l-63-86.4c-1-1.1-1.6-2.6-1.6-4.3c0-3.6,2.9-6.5,6.5-6.5H523L464,683c-1-1.1-1.7-2.7-1.7-4.3
	c0-3.6,2.9-6.5,6.5-6.5L501.2,672.2L501.2,672.2z"/>
<path class="st3" d="M1688.4,1054.3c-1.6-8.5-3.1-17-4.5-25.7c-2.4-14.6-4.5-29.4-6.3-44.1h-43.1c-1.8,14.8-3.9,29.5-6.3,44.1
	c-1.4,8.6-2.9,17.2-4.5,25.7c-13.5,0.4-27,1-40.6,1.9c-5.9,0.4-10.4,5.5-10,11.4s5.5,10.4,11.4,10c23.7-1.6,47.6-2.3,71.7-2.3
	s48,0.8,71.7,2.3c5.9,0.4,11-4.1,11.4-10c0.4-5.9-4.1-11-10-11.4C1715.5,1055.4,1701.9,1054.7,1688.4,1054.3L1688.4,1054.3
	L1688.4,1054.3z M1734.1,787.3l-78-118.1l-78,118.1h32.4c1.4,0,2.8,0.5,3.9,1.4c2.8,2.2,3.3,6.2,1.2,9l-59.2,76.8h25.4
	c1.3,0,2.6,0.4,3.8,1.3c2.9,2.1,3.5,6.1,1.4,9l-63.3,86.9h265l-63-86.4c-1-1.1-1.6-2.6-1.6-4.3c0-3.6,2.9-6.5,6.4-6.5h25.4
	l-58.9-76.5c-1-1.1-1.7-2.7-1.7-4.3c0-3.6,2.9-6.5,6.4-6.5L1734.1,787.3L1734.1,787.3z"/>
<path class="st3" d="M1228.9,956.2c-1.6-8.5-3.1-17-4.5-25.7c-2.4-14.6-4.5-29.4-6.3-44.1H1175c-1.8,14.8-3.9,29.5-6.3,44.1
	c-1.4,8.6-2.9,17.2-4.5,25.7c-13.5,0.4-27,1-40.6,2c-5.9,0.4-10.4,5.5-10,11.4s5.5,10.4,11.4,10c23.7-1.5,47.6-2.3,71.7-2.3
	s48,0.8,71.7,2.3c5.9,0.4,11-4.1,11.4-10c0.4-5.9-4.1-11-10-11.4C1255.9,957.2,1242.4,956.6,1228.9,956.2L1228.9,956.2L1228.9,956.2
	z M1274.6,689.1l-78-118.1l-78,118.1h32.4c1.4,0,2.8,0.5,3.9,1.4c2.8,2.2,3.3,6.2,1.2,9l-59.2,76.8h25.4c1.3,0,2.6,0.4,3.8,1.3
	c2.9,2.1,3.5,6.1,1.4,9l-63.3,86.9h265l-63-86.4c-1-1.1-1.6-2.6-1.6-4.3c0-3.6,2.9-6.5,6.4-6.5h25.4l-58.9-76.5
	c-1-1.1-1.7-2.7-1.7-4.3c0-3.6,2.9-6.5,6.4-6.5L1274.6,689.1L1274.6,689.1z"/>
<path class="st3" d="M1897.4,1058.7c-0.8,6.8-1.7,13.7-2.7,20.5h24.3v-20.5H1897.4z M1840.9,861.4h32.4c1.4,0,2.7,0.5,3.9,1.4
	c2.8,2.2,3.3,6.2,1.2,9l-59.2,76.9h25.4c1.3,0,2.6,0.4,3.8,1.2c1.9,1.4,2.8,3.6,2.6,5.8c-0.1,1.1-0.5,2.2-1.2,3.2l-63.3,86.9H1919
	V743.4L1840.9,861.4L1840.9,861.4z"/>
<path class="st4" d="M857,385.1c0,57.5-46.6,104.1-104.1,104.1c-2.1,0-4.1-0.2-6.1-0.3v0.3H330.3v-0.2c-51-1.6-91.8-43.4-91.8-94.8
	c0-21.5,7.1-41.3,19.1-57.2c7.8-10.4,17.8-19.1,29.2-25.5c13.5-7.6,29.1-12.1,45.8-12.2c-1.5-8-2.3-16.1-2.3-24.5
	c0-48.6,24.6-91.5,62.1-116.8c5-3.4,10.2-6.4,15.6-9.1c19-9.6,40.5-14.9,63.2-14.9c49.4,0,92.8,25.5,117.9,64
	c15.7-9.4,34-14.9,53.6-14.9c55.5,0,100.8,43.5,103.8,98.3c2.2,0,4.3-0.3,6.5-0.3C810.5,281.1,857,327.7,857,385.1L857,385.1z"/>
<path class="st4" d="M322.6,292.3c0,0-38.9,6-59.2,19.3H112.1v-0.1c-34.6-1.1-62.3-29.4-62.3-64.3s28.5-64,63.8-64.3
	c-1-5.4-1.5-11-1.5-16.6c0-52.7,42.8-95.5,95.5-95.5c33.5,0,62.9,17.3,80,43.4c10.6-6.4,23.1-10.1,36.3-10.1
	c28.7,0,53.4,17.1,64.4,41.7C367.6,160.8,313,213.8,322.6,292.3L322.6,292.3z"/>
<path class="st4" d="M469.1,241c0,39-31.6,70.6-70.6,70.6c-1.4,0-2.8-0.1-4.2-0.2v0.2H286.8c13.5-7.6,29.1-12.1,45.8-12.2
	c-1.5-8-2.3-16.1-2.3-24.5c0-48.6,24.6-91.5,62.1-116.8c1,4.1,1.6,8.3,1.8,12.6c1.5,0,2.9-0.2,4.4-0.2c8.1,0,15.9,1.4,23.2,3.9
	C449.4,184,469.2,210.2,469.1,241L469.1,241z"/>
<path class="st1" d="M330.3,274.9c0,8.4,0.8,16.5,2.3,24.5c-16.6,0.1-32.2,4.6-45.8,12.2h-23.4c20.3-13.3,53.5-20.2,53.5-20.2
	c-9.5-78.6,50.8-130.6,71.3-145.6c0.5,1.1,1,2.2,1.4,3.3c1.1,2.9,2.1,5.9,2.8,9C354.9,183.4,330.3,226.3,330.3,274.9L330.3,274.9z"
	/>
<path class="st3" d="M1460.6,991.3c-1-1.1-1.6-2.6-1.6-4.3c0-3.6,2.9-6.5,6.4-6.5h25.4l-19.2-24.9l-39.7-51.5
	c-1-1.1-1.7-2.7-1.7-4.3c0-3.6,2.9-6.5,6.4-6.5h32.4l-78-118.1l-63.5,96.1l-1.4,2.1l-13.2,19.9h32.4c1.4,0,2.8,0.5,3.9,1.4
	c2.8,2.2,3.3,6.2,1.2,9l-40,51.9l-19.2,24.9h25.4c1.3,0,2.6,0.4,3.8,1.3c2.9,2.1,3.5,6.1,1.4,9l-55.7,76.4l-7.6,10.5h265
	L1460.6,991.3L1460.6,991.3z"/>
<path class="st3" d="M712.6,1055.2c-1.6-8.5-3.1-17-4.5-25.7c-2.4-14.6-4.5-29.4-6.3-44.1h-43.1c-1.8,14.8-3.9,29.5-6.3,44.1
	c-1.4,8.6-2.9,17.2-4.5,25.7c-13.5,0.4-27,1-40.6,1.9c-5.9,0.4-10.4,5.5-10,11.4s5.5,10.4,11.4,10c23.7-1.6,47.5-2.3,71.7-2.3
	s48,0.8,71.7,2.3c5.9,0.4,11-4.1,11.4-10c0.4-5.9-4.1-11-10-11.4C739.6,1056.2,726.1,1055.6,712.6,1055.2L712.6,1055.2L712.6,1055.2
	z M758.3,788.1l-78-118.1l-78,118.1h32.4c1.4,0,2.8,0.5,3.9,1.4c2.8,2.2,3.3,6.2,1.2,9l-59.2,76.8h25.5c1.3,0,2.6,0.4,3.8,1.3
	c2.9,2.1,3.5,6.1,1.4,9l-63.3,86.9h265l-63-86.4c-1-1.1-1.6-2.6-1.6-4.3c0-3.6,2.9-6.5,6.5-6.5h25.4l-58.9-76.5
	c-1-1.1-1.7-2.7-1.7-4.3c0-3.6,2.9-6.5,6.5-6.5L758.3,788.1L758.3,788.1z"/>
<path class="st3" d="M208.8,992.3c-1.6-8.5-3.1-17-4.5-25.7c-2.4-14.6-4.5-29.4-6.3-44.1h-43.1c-1.8,14.8-3.9,29.5-6.3,44.1
	c-1.4,8.6-2.9,17.2-4.5,25.7c-13.5,0.4-27,1-40.6,2c-5.9,0.4-10.4,5.5-10,11.4s5.5,10.4,11.4,10c23.7-1.5,47.5-2.3,71.7-2.3
	s48,0.8,71.7,2.3c5.9,0.4,11-4.1,11.4-10c0.4-5.9-4.1-11-10-11.4C235.8,993.4,222.3,992.7,208.8,992.3L208.8,992.3L208.8,992.3z
	 M254.5,725.3l-78-118.1l-78,118.1h32.4c1.4,0,2.8,0.5,3.9,1.4c2.8,2.2,3.3,6.2,1.2,9l-59.2,76.8h25.4c1.3,0,2.6,0.4,3.8,1.3
	c2.9,2.1,3.5,6.1,1.4,9L44,909.6h265l-63-86.4c-1-1.1-1.6-2.6-1.6-4.3c0-3.6,2.9-6.5,6.4-6.5h25.4L217.3,736c-1-1.1-1.7-2.7-1.7-4.3
	c0-3.6,2.9-6.5,6.4-6.5L254.5,725.3L254.5,725.3z"/>
<path class="st3" d="M455.5,939.3c-1.6-8.5-3.1-17-4.5-25.7c-2.4-14.6-4.5-29.4-6.3-44.1h-43.1c-1.8,14.8-3.9,29.5-6.3,44.1
	c-1.4,8.6-2.9,17.2-4.5,25.7c-13.5,0.4-27,1-40.6,2c-5.9,0.4-10.4,5.5-10,11.4s5.5,10.4,11.4,10c23.6-1.5,47.5-2.3,71.7-2.3
	s48,0.8,71.7,2.3c5.9,0.4,11-4.1,11.4-10c0.4-5.9-4.1-11-10-11.4C482.5,940.3,469,939.7,455.5,939.3L455.5,939.3L455.5,939.3z
	 M501.2,672.2l-78-118.1l-78,118.1h32.4c1.4,0,2.8,0.5,3.9,1.4c2.8,2.2,3.3,6.2,1.2,9l-59.2,76.8h25.5c1.3,0,2.6,0.4,3.8,1.3
	c2.9,2.1,3.5,6.1,1.4,9l-63.3,86.9h265l-63-86.4c-1-1.1-1.6-2.6-1.6-4.3c0-3.6,2.9-6.5,6.5-6.5H523L464,683c-1-1.1-1.7-2.7-1.7-4.3
	c0-3.6,2.9-6.5,6.5-6.5L501.2,672.2L501.2,672.2z"/>
<path class="st3" d="M1688.4,1054.3c-1.6-8.5-3.1-17-4.5-25.7c-2.4-14.6-4.5-29.4-6.3-44.1h-43.1c-1.8,14.8-3.9,29.5-6.3,44.1
	c-1.4,8.6-2.9,17.2-4.5,25.7c-13.5,0.4-27,1-40.6,1.9c-5.9,0.4-10.4,5.5-10,11.4s5.5,10.4,11.4,10c23.7-1.6,47.6-2.3,71.7-2.3
	s48,0.8,71.7,2.3c5.9,0.4,11-4.1,11.4-10c0.4-5.9-4.1-11-10-11.4C1715.5,1055.4,1701.9,1054.7,1688.4,1054.3L1688.4,1054.3
	L1688.4,1054.3z M1734.1,787.3l-78-118.1l-78,118.1h32.4c1.4,0,2.8,0.5,3.9,1.4c2.8,2.2,3.3,6.2,1.2,9l-59.2,76.8h25.4
	c1.3,0,2.6,0.4,3.8,1.3c2.9,2.1,3.5,6.1,1.4,9l-63.3,86.9h265l-63-86.4c-1-1.1-1.6-2.6-1.6-4.3c0-3.6,2.9-6.5,6.4-6.5h25.4
	l-58.9-76.5c-1-1.1-1.7-2.7-1.7-4.3c0-3.6,2.9-6.5,6.4-6.5L1734.1,787.3L1734.1,787.3z"/>
<path class="st3" d="M1228.9,956.2c-1.6-8.5-3.1-17-4.5-25.7c-2.4-14.6-4.5-29.4-6.3-44.1H1175c-1.8,14.8-3.9,29.5-6.3,44.1
	c-1.4,8.6-2.9,17.2-4.5,25.7c-13.5,0.4-27,1-40.6,2c-5.9,0.4-10.4,5.5-10,11.4s5.5,10.4,11.4,10c23.7-1.5,47.6-2.3,71.7-2.3
	s48,0.8,71.7,2.3c5.9,0.4,11-4.1,11.4-10c0.4-5.9-4.1-11-10-11.4C1255.9,957.2,1242.4,956.6,1228.9,956.2L1228.9,956.2L1228.9,956.2
	z M1274.6,689.1l-78-118.1l-78,118.1h32.4c1.4,0,2.8,0.5,3.9,1.4c2.8,2.2,3.3,6.2,1.2,9l-59.2,76.8h25.4c1.3,0,2.6,0.4,3.8,1.3
	c2.9,2.1,3.5,6.1,1.4,9l-63.3,86.9h265l-63-86.4c-1-1.1-1.6-2.6-1.6-4.3c0-3.6,2.9-6.5,6.4-6.5h25.4l-58.9-76.5
	c-1-1.1-1.7-2.7-1.7-4.3c0-3.6,2.9-6.5,6.4-6.5L1274.6,689.1L1274.6,689.1z"/>
<path class="st3" d="M1897.4,1058.7c-0.8,6.8-1.7,13.7-2.7,20.5h24.3v-20.5H1897.4z M1840.9,861.4h32.4c1.4,0,2.7,0.5,3.9,1.4
	c2.8,2.2,3.3,6.2,1.2,9l-59.2,76.9h25.4c1.3,0,2.6,0.4,3.8,1.2c1.9,1.4,2.8,3.6,2.6,5.8c-0.1,1.1-0.5,2.2-1.2,3.2l-63.3,86.9H1919
	V743.4L1840.9,861.4L1840.9,861.4z"/>
<path class="st2" d="M1043,1041.2c-0.1-1.4-0.4-2.7-1-3.8c-1.8-3.9-5.9-6.5-10.4-6.2c-23.6,1.5-47.5,2.3-71.7,2.3s-48-0.8-71.7-2.3
	c-5.9-0.4-11,4.1-11.4,10c0,0.7,0,1.4,0.1,2.1c0.7,5,4.8,9,10,9.3c13.6,0.9,27.2,1.5,40.6,1.9c1.5,8.1,3,16.3,4.3,24.6H988
	c1.3-8.3,2.8-16.5,4.3-24.6l0,0c13.5-0.4,27-1.1,40.6-1.9C1038.9,1052.2,1043.4,1047.1,1043,1041.2L1043,1041.2z"/>
<path class="st3" d="M993,1020.6c-1.6-8.5-3.1-17-4.5-25.7c-2.4-14.6-4.5-29.4-6.3-44.1h-43.1c-1.8,14.8-3.9,29.5-6.3,44.1
	c-1.4,8.6-2.9,17.2-4.5,25.7c-13.5,0.4-27,1-40.6,2c-5.9,0.4-10.4,5.5-10,11.4s5.5,10.4,11.4,10c23.7-1.6,47.5-2.3,71.7-2.3
	s48,0.8,71.7,2.3c5.9,0.4,11-4.1,11.4-10c0.4-5.9-4.1-11-10-11.4C1020,1021.7,1006.5,1021,993,1020.6L993,1020.6L993,1020.6z
	 M1038.7,753.6l-78-118.1l-78,118.1H915c1.4,0,2.8,0.5,3.9,1.4c2.8,2.2,3.3,6.2,1.2,9l-59.2,76.8h25.5c1.3,0,2.6,0.4,3.8,1.3
	c2.9,2.1,3.5,6.1,1.4,9l-63.3,86.9h265l-63-86.4c-1-1.1-1.6-2.6-1.6-4.3c0-3.6,2.9-6.5,6.4-6.5h25.4l-58.9-76.5
	c-1-1.1-1.7-2.7-1.7-4.3c0-3.6,2.9-6.5,6.5-6.5L1038.7,753.6L1038.7,753.6z"/>
</svg>
