<?xml version="1.0" encoding="UTF-8"?><svg id="a" xmlns="http://www.w3.org/2000/svg" viewBox="0 0 2389.49 3751.82"><defs><style>.b{fill:#2c302c;}.c{fill:#c2c1a5;}.d{fill:#596869;}.e{opacity:.21;}.f{fill:#36453b;}</style></defs><rect class="b" width="1920" height="3751.82"/><rect class="c" width="1920" height="1875.91"/><path class="d" d="M1920,2335.56v869.85c-26.82,21.57-51.91,42.42-74.76,62.25-36.31,31.51-83.65,47.74-139.24,52.7-33.62,3.06-70.27,1.98-109.32-2.36-121.55-13.37-266.35-57.84-415.72-106.2-27.66-8.92-55.48-18.03-83.31-27.09-101.4-32.9-203.26-65.24-299.94-88.73h-.01c-84.41-20.49-164.82-34.18-237.46-35.57h-.01c-102-1.91-188.66,20.5-249.45,82.61-74.69,76.29-183.3,112.87-310.78,122.19v-986.86c44.77-2.66,93.36-8.25,146.39-17.39,40.26-6.95,78.34-13.65,114.36-20.11h.01c45.16-8.1,87.08-15.78,126.09-22.9,52.01-9.48,98.8-18.03,141.05-25.29,.02,0,.04-.01,.06-.01,6.4-1.11,12.7-2.18,18.87-3.22,91.14-15.32,160.07-24.18,214.02-23.34h.01c111.58,1.7,159.14,44.78,206.45,157.54,17.47,41.69,56.69,64.89,109.85,75.76,59.3,12.09,136,8.83,219.34-1.42h.03c34.97-4.27,71.09-9.8,107.59-15.91,83.23-13.93,168.48-30.95,246.27-43.7,117.68-19.28,218.39-28.75,269.61-2.8Z"/><path class="d" d="M2385.26,2748.73v-13.27c2.46,4,2.53,9.17,0,13.27Z"/><path class="e" d="M1412.54,2334.02c-3.13,16.63-6.07,33.45-8.81,50.37-4.68,28.73-8.84,57.63-12.4,86.63h-84.55c-3.56-28.96-7.72-57.83-12.4-86.6-2.77-16.96-5.71-33.78-8.84-50.41-26.46-.79-53.05-2.05-79.77-3.83-11.61-.73-20.42-10.72-19.69-22.33,.73-11.61,10.72-20.42,22.33-19.69,46.42,3.04,93.33,4.59,140.66,4.59s94.28-1.55,140.66-4.59c11.61-.73,21.64,8.12,22.33,19.69,.73,11.61-8.12,21.64-19.69,22.33-26.75,1.75-53.34,3.04-79.8,3.83h-.03Zm89.7,524.15l-153.17,231.74-153.17-231.74h63.54c2.71-.03,5.41-.89,7.72-2.67,5.51-4.26,6.53-12.21,2.28-17.72l-116.29-150.86h49.95c2.57-.07,5.18-.86,7.42-2.47,5.64-4.09,6.86-11.98,2.77-17.62l-124.3-170.52h520.2l-123.61,169.56c-1.98,2.24-3.17,5.18-3.17,8.38,0,6.99,5.67,12.67,12.67,12.67h49.91l-115.69,150.1c-2.01,2.24-3.27,5.21-3.27,8.48,0,6.99,5.67,12.67,12.67,12.67h63.54Z"/><path class="e" d="M567.64,2055.65c-3.13,16.63-6.07,33.45-8.81,50.37-4.68,28.73-8.84,57.63-12.4,86.63h-84.55c-3.56-28.96-7.72-57.83-12.4-86.6-2.77-16.96-5.71-33.78-8.84-50.41-26.46-.79-53.05-2.05-79.77-3.83-11.61-.73-20.42-10.72-19.69-22.33,.73-11.61,10.72-20.42,22.33-19.69,46.42,3.04,93.33,4.59,140.66,4.59s94.28-1.55,140.66-4.59c11.61-.73,21.64,8.12,22.33,19.69,.73,11.61-8.12,21.64-19.69,22.33-26.75,1.75-53.34,3.04-79.8,3.83h-.03Zm89.7,524.15l-153.17,231.74-153.17-231.74h63.54c2.71-.03,5.41-.89,7.72-2.67,5.51-4.26,6.53-12.21,2.28-17.72l-116.29-150.86h49.95c2.57-.07,5.18-.86,7.42-2.47,5.64-4.09,6.86-11.98,2.77-17.62l-124.3-170.52H764.28l-123.61,169.56c-1.98,2.24-3.17,5.18-3.17,8.38,0,6.99,5.67,12.67,12.67,12.67h49.91l-115.69,150.1c-2.01,2.24-3.27,5.21-3.27,8.48,0,6.99,5.67,12.67,12.67,12.67h63.54Z"/><path class="e" d="M149.72,2474.83h-49.92c-6.99,0-12.66-5.67-12.66-12.67,0-3.2,1.18-6.13,3.16-8.38l123.61-169.56H0v523.69l106.97-161.84H43.43c-7,0-12.67-5.67-12.67-12.67,0-3.26,1.25-6.23,3.27-8.47l115.69-150.1Zm-32.92-379.07c-.7-11.58-10.72-20.42-22.34-19.7-31.25,2.05-62.75,3.42-94.46,4.1v148.54c2.58-18.86,5.41-37.67,8.47-56.41,2.74-16.92,5.67-33.75,8.81-50.37h.02c26.46-.8,53.05-2.08,79.8-3.83,11.19-.67,19.82-10.05,19.74-21.16,0-.39-.01-.78-.04-1.17Z"/><path class="e" d="M1610.93,2284.22l39.46,54.14,84.84,116.38c4.09,5.64,2.87,13.52-2.77,17.61-2.24,1.62-4.85,2.41-7.42,2.48h-49.95l116.29,150.85c4.26,5.51,3.23,13.46-2.28,17.72-2.31,1.78-5.01,2.64-7.72,2.67h-63.53l153.17,231.74,48.98-74.1v-519.49h-309.07Zm260.08-203.57c-47.33,0-94.24-1.55-140.66-4.59-11.61-.72-21.6,8.08-22.33,19.7-.26,4.11,.68,8.02,2.53,11.39,3.34,6.14,9.66,10.47,17.16,10.94,26.73,1.78,53.31,3.03,79.77,3.83,3.13,16.62,6.07,33.45,8.84,50.4,4.69,28.77,8.84,57.63,12.41,86.6h84.55c2.04-16.66,4.29-33.28,6.72-49.86v-128.97c-16.28,.37-32.61,.56-48.99,.56Z"/><path class="e" d="M1032.51,1932.58c-3.13,16.63-6.07,33.45-8.81,50.37-4.68,28.73-8.84,57.63-12.4,86.63h-84.55c-3.56-28.96-7.72-57.83-12.4-86.6-2.77-16.96-5.71-33.78-8.84-50.41-26.46-.79-53.05-2.05-79.77-3.83-11.61-.73-20.42-10.72-19.69-22.33,.73-11.61,10.72-20.42,22.33-19.69,46.42,3.04,93.33,4.59,140.66,4.59s94.28-1.55,140.66-4.59c11.61-.73,21.64,8.12,22.33,19.69,.73,11.61-8.12,21.64-19.69,22.33-26.75,1.75-53.34,3.04-79.8,3.83h-.03Zm89.7,524.15l-153.17,231.74-153.17-231.74h63.54c2.71-.03,5.41-.89,7.72-2.67,5.51-4.26,6.53-12.21,2.28-17.72l-116.29-150.86h49.95c2.57-.07,5.18-.86,7.42-2.47,5.64-4.09,6.86-11.98,2.77-17.62l-124.3-170.52h520.2l-123.61,169.56c-1.98,2.24-3.17,5.18-3.17,8.38,0,6.99,5.67,12.67,12.67,12.67h49.91l-115.69,150.1c-2.01,2.24-3.27,5.21-3.27,8.48,0,6.99,5.67,12.67,12.67,12.67h63.54Z"/><path class="e" d="M2385.26,2735.46v13.27c2.53-4.1,2.46-9.27,0-13.27Z"/><path class="e" d="M2385.26,3527.48v5.8h4.23l-4.23-5.8Z"/><path class="f" d="M1412.55,2277.75c-3.13-16.63-6.07-33.45-8.81-50.37-4.68-28.73-8.84-57.63-12.4-86.63h-84.55c-3.56,28.96-7.72,57.83-12.4,86.6-2.77,16.96-5.71,33.78-8.84,50.41-26.46,.79-53.05,2.05-79.77,3.83-11.61,.73-20.42,10.72-19.69,22.33,.73,11.61,10.72,20.42,22.33,19.69,46.42-3.04,93.33-4.59,140.66-4.59s94.28,1.55,140.66,4.59c11.61,.73,21.64-8.12,22.33-19.69,.73-11.61-8.12-21.64-19.69-22.33-26.75-1.75-53.34-3.04-79.8-3.83h-.03Zm89.7-524.15l-153.17-231.74-153.17,231.74h63.54c2.71,.03,5.41,.89,7.72,2.67,5.51,4.26,6.53,12.21,2.28,17.72l-116.29,150.86h49.95c2.57,.07,5.18,.86,7.42,2.47,5.64,4.09,6.86,11.98,2.77,17.62l-124.3,170.52h520.2l-123.61-169.56c-1.98-2.24-3.17-5.18-3.17-8.38,0-6.99,5.67-12.67,12.67-12.67h49.91l-115.69-150.1c-2.01-2.24-3.27-5.21-3.27-8.48,0-6.99,5.67-12.67,12.67-12.67h63.54Z"/><path class="f" d="M567.66,2003.26c-3.13-16.63-6.07-33.45-8.81-50.37-4.68-28.73-8.84-57.63-12.4-86.63h-84.55c-3.56,28.96-7.72,57.83-12.4,86.6-2.77,16.96-5.71,33.78-8.84,50.41-26.46,.79-53.05,2.05-79.77,3.83-11.61,.73-20.42,10.72-19.69,22.33,.73,11.61,10.72,20.42,22.33,19.69,46.42-3.04,93.33-4.59,140.66-4.59s94.28,1.55,140.66,4.59c11.61,.73,21.64-8.12,22.33-19.69,.73-11.61-8.12-21.64-19.69-22.33-26.75-1.75-53.34-3.04-79.8-3.83h-.03Zm89.7-524.15l-153.17-231.74-153.17,231.74h63.54c2.71,.03,5.41,.89,7.72,2.67,5.51,4.26,6.53,12.21,2.28,17.72l-116.29,150.86h49.95c2.57,.07,5.18,.86,7.42,2.47,5.64,4.09,6.86,11.98,2.77,17.62l-124.3,170.52H764.3l-123.61-169.56c-1.98-2.24-3.17-5.18-3.17-8.38,0-6.99,5.67-12.67,12.67-12.67h49.91l-115.69-150.1c-2.01-2.24-3.27-5.21-3.27-8.48,0-6.99,5.67-12.67,12.67-12.67h63.54Z"/><path class="f" d="M189.93,1875.91l-99.6-136.62c-1.98-2.24-3.17-5.18-3.17-8.38,0-6.99,5.67-12.67,12.67-12.67h49.91l-115.69-150.09c-2.01-2.24-3.26-5.21-3.26-8.48,0-6.99,5.67-12.67,12.66-12.67h63.55L0,1385.11v523.74H213.94l-24.01-32.94Zm-92.8,199.08c-26.76-1.75-53.35-3.04-79.8-3.83h-.03c-3.13-16.63-6.07-33.45-8.81-50.37-3.06-18.79-5.9-37.66-8.49-56.57v148.7c31.72,.68,63.23,2.05,94.49,4.09,11.61,.73,21.64-8.11,22.33-19.69,.01-.13,.02-.26,.02-.39,.51-11.44-8.26-21.26-19.71-21.94Z"/><path class="f" d="M1869.28,1313.65l-153.17,231.74h63.54c2.7,.03,5.41,.89,7.72,2.67,5.51,4.26,6.53,12.21,2.27,17.72l-116.29,150.85h49.95c2.57,.07,5.18,.86,7.42,2.48,5.64,4.09,6.86,11.97,2.77,17.61l-101.46,139.19-22.84,31.33h310.81v-516.85l-50.72-76.74Zm42.26,618.89h-84.55c-3.56,28.96-7.72,57.83-12.41,86.6-2.77,16.95-5.7,33.78-8.84,50.4-26.45,.8-53.04,2.05-79.76,3.83-11.62,.73-20.42,10.72-19.7,22.33,.27,4.32,1.83,8.26,4.27,11.45,4.12,5.4,10.77,8.7,18.07,8.25,46.41-3.04,93.32-4.59,140.66-4.59,16.96,0,33.87,.2,50.72,.6v-117.33c-3.11-20.44-5.93-40.97-8.46-61.54Z"/><path class="f" d="M1030.78,1876.85c-3.13-16.63-6.07-33.45-8.81-50.37-4.68-28.73-8.84-57.63-12.4-86.63h-84.55c-3.56,28.96-7.72,57.83-12.4,86.6-2.77,16.96-5.71,33.78-8.84,50.41-26.46,.79-53.05,2.05-79.77,3.83-11.61,.73-20.42,10.72-19.69,22.33,.73,11.61,10.72,20.42,22.33,19.69,46.42-3.04,93.33-4.59,140.66-4.59s94.28,1.55,140.66,4.59c11.61,.73,21.64-8.12,22.33-19.69,.73-11.61-8.12-21.64-19.69-22.33-26.75-1.75-53.34-3.04-79.8-3.83h-.03Zm89.7-524.15l-153.17-231.74-153.17,231.74h63.54c2.71,.03,5.41,.89,7.72,2.67,5.51,4.26,6.53,12.21,2.28,17.72l-116.29,150.86h49.95c2.57,.07,5.18,.86,7.42,2.47,5.64,4.09,6.86,11.98,2.77,17.62l-124.3,170.52h520.2l-123.61-169.56c-1.98-2.24-3.17-5.18-3.17-8.38,0-6.99,5.67-12.67,12.67-12.67h49.91l-115.69-150.1c-2.01-2.24-3.27-5.21-3.27-8.48,0-6.99,5.67-12.67,12.67-12.67h63.54Z"/><path class="f" d="M1412.55,2277.75c-3.13-16.63-6.07-33.45-8.81-50.37-4.68-28.73-8.84-57.63-12.4-86.63h-84.55c-3.56,28.96-7.72,57.83-12.4,86.6-2.77,16.96-5.71,33.78-8.84,50.41-26.46,.79-53.05,2.05-79.77,3.83-11.61,.73-20.42,10.72-19.69,22.33,.73,11.61,10.72,20.42,22.33,19.69,46.42-3.04,93.33-4.59,140.66-4.59s94.28,1.55,140.66,4.59c11.61,.73,21.64-8.12,22.33-19.69,.73-11.61-8.12-21.64-19.69-22.33-26.75-1.75-53.34-3.04-79.8-3.83h-.03Zm89.7-524.15l-153.17-231.74-153.17,231.74h63.54c2.71,.03,5.41,.89,7.72,2.67,5.51,4.26,6.53,12.21,2.28,17.72l-116.29,150.86h49.95c2.57,.07,5.18,.86,7.42,2.47,5.64,4.09,6.86,11.98,2.77,17.62l-124.3,170.52h520.2l-123.61-169.56c-1.98-2.24-3.17-5.18-3.17-8.38,0-6.99,5.67-12.67,12.67-12.67h49.91l-115.69-150.1c-2.01-2.24-3.27-5.21-3.27-8.48,0-6.99,5.67-12.67,12.67-12.67h63.54Z"/><path class="f" d="M567.66,2003.26c-3.13-16.63-6.07-33.45-8.81-50.37-4.68-28.73-8.84-57.63-12.4-86.63h-84.55c-3.56,28.96-7.72,57.83-12.4,86.6-2.77,16.96-5.71,33.78-8.84,50.41-26.46,.79-53.05,2.05-79.77,3.83-11.61,.73-20.42,10.72-19.69,22.33,.73,11.61,10.72,20.42,22.33,19.69,46.42-3.04,93.33-4.59,140.66-4.59s94.28,1.55,140.66,4.59c11.61,.73,21.64-8.12,22.33-19.69,.73-11.61-8.12-21.64-19.69-22.33-26.75-1.75-53.34-3.04-79.8-3.83h-.03Zm89.7-524.15l-153.17-231.74-153.17,231.74h63.54c2.71,.03,5.41,.89,7.72,2.67,5.51,4.26,6.53,12.21,2.28,17.72l-116.29,150.86h49.95c2.57,.07,5.18,.86,7.42,2.47,5.64,4.09,6.86,11.98,2.77,17.62l-124.3,170.52H764.3l-123.61-169.56c-1.98-2.24-3.17-5.18-3.17-8.38,0-6.99,5.67-12.67,12.67-12.67h49.91l-115.69-150.1c-2.01-2.24-3.27-5.21-3.27-8.48,0-6.99,5.67-12.67,12.67-12.67h63.54Z"/><path class="f" d="M189.93,1875.91l-99.6-136.62c-1.98-2.24-3.17-5.18-3.17-8.38,0-6.99,5.67-12.67,12.67-12.67h49.91l-115.69-150.09c-2.01-2.24-3.26-5.21-3.26-8.48,0-6.99,5.67-12.67,12.66-12.67h63.55L0,1385.11v523.74H213.94l-24.01-32.94Zm-92.8,199.08c-26.76-1.75-53.35-3.04-79.8-3.83h-.03c-3.13-16.63-6.07-33.45-8.81-50.37-3.06-18.79-5.9-37.66-8.49-56.57v148.7c31.72,.68,63.23,2.05,94.49,4.09,11.61,.73,21.64-8.11,22.33-19.69,.01-.13,.02-.26,.02-.39,.51-11.44-8.26-21.26-19.71-21.94Z"/><path class="f" d="M1869.28,1313.65l-153.17,231.74h63.54c2.7,.03,5.41,.89,7.72,2.67,5.51,4.26,6.53,12.21,2.27,17.72l-116.29,150.85h49.95c2.57,.07,5.18,.86,7.42,2.48,5.64,4.09,6.86,11.97,2.77,17.61l-101.46,139.19-22.84,31.33h310.81v-516.85l-50.72-76.74Zm42.26,618.89h-84.55c-3.56,28.96-7.72,57.83-12.41,86.6-2.77,16.95-5.7,33.78-8.84,50.4-26.45,.8-53.04,2.05-79.76,3.83-11.62,.73-20.42,10.72-19.7,22.33,.27,4.32,1.83,8.26,4.27,11.45,4.12,5.4,10.77,8.7,18.07,8.25,46.41-3.04,93.32-4.59,140.66-4.59,16.96,0,33.87,.2,50.72,.6v-117.33c-3.11-20.44-5.93-40.97-8.46-61.54Z"/><path class="f" d="M1030.78,1876.85c-3.13-16.63-6.07-33.45-8.81-50.37-4.68-28.73-8.84-57.63-12.4-86.63h-84.55c-3.56,28.96-7.72,57.83-12.4,86.6-2.77,16.96-5.71,33.78-8.84,50.41-26.46,.79-53.05,2.05-79.77,3.83-11.61,.73-20.42,10.72-19.69,22.33,.73,11.61,10.72,20.42,22.33,19.69,46.42-3.04,93.33-4.59,140.66-4.59s94.28,1.55,140.66,4.59c11.61,.73,21.64-8.12,22.33-19.69,.73-11.61-8.12-21.64-19.69-22.33-26.75-1.75-53.34-3.04-79.8-3.83h-.03Zm89.7-524.15l-153.17-231.74-153.17,231.74h63.54c2.71,.03,5.41,.89,7.72,2.67,5.51,4.26,6.53,12.21,2.28,17.72l-116.29,150.86h49.95c2.57,.07,5.18,.86,7.42,2.47,5.64,4.09,6.86,11.98,2.77,17.62l-124.3,170.52h520.2l-123.61-169.56c-1.98-2.24-3.17-5.18-3.17-8.38,0-6.99,5.67-12.67,12.67-12.67h49.91l-115.69-150.1c-2.01-2.24-3.27-5.21-3.27-8.48,0-6.99,5.67-12.67,12.67-12.67h63.54Z"/></svg>