<?xml version="1.0" encoding="UTF-8"?><svg id="a" xmlns="http://www.w3.org/2000/svg" viewBox="0 0 1920 1080"><defs><style>.b{fill:#2c302c;}.c{fill:#596869;}.d{fill:#f5f9e9;}.e{opacity:.21;}.f{fill:#36453b;}</style></defs><rect class="b" width="1920" height="1080"/><path class="c" d="M1920,0V1080c-59.55-60.72-105.72-116.18-261.02-133.55-134.23-15.01-202.61-84.15-303.7-194.77-25.54-27.95-50.11-58.74-73.67-91.76-131.89-184.82,31.91-439.61-42.9-659.92h681.29Z"/><path class="e" d="M976.43,825.02c-2.67,9.52-6.23,18.17-8.9,26.82-11.13,35.47-18.69,71.79-11.13,115.03,5.79,33.74,8.46,69.2,4.9,105.52-.24,2.55-.32,5.09-.24,7.62h-193.9c-1.33-6.53-2.63-13.1-3.91-19.72-7.12-39.78-12.46-80.43-21.36-119.36-6.68-30.28-17.36-51.03-28.93-72.64-4.89-8.65-10.23-12.98-16.91-14.71-22.25-5.19-44.06-12.96-66.31-12.11-7.12,0-9.79-6.92-13.35-15.57-1.78-5.19-2.23-12.11,0-18.17,2.22-6.04,4.89-4.31,8.01-3.46,4.89,.87,10.68,5.19,14.24-2.58,4.45-11.25,9.34-6.92,14.69-5.19,3.11,1.73,7.56,6.92,9.34,2.58,7.12-16.42,12.46-4.31,18.69,.87,1.78,1.73,4.01,7.77,6.23,2.58,5.79-12.96,11.13-5.19,16.92,0,2.67,2.6,5.34,10.38,8.9,4.33,4.45-7.79,7.12-1.73,9.79,2.58,11.12,16.44,21.36,34.61,31.15,53.64,4.01,6.92,8.46,22.48,13.8,12.96,3.56-6.92-3.56-17.3-7.57-24.21-4.89-7.77-7.12-16.42-4.45-27.67,2.67-11.25,6.24-32.8,14.25-29.35,5.34,2.6,13.04-2.87,18.38-1.14,16.47,4.33,26.92-3.76,43.84-2.91,11.57,.87,27.24,3.11,38.81,1.38,6.23-.86,11.57,23.37,12.91,33.75,1.78,8.65,1.72,11.49-3.18,16.68-4.45,5.19-11.65,11.14-16.99,7.69-3.56-2.6-6.98,4.18-11.43,11.95,6.23,12.11,11.12,25.09,17.8,33.74,4.45,6.04,7.12,12.96,10.24,20.75,9.79,25.09,14.68,52.76,14.68,83.89,0,17.3,1.34,18.17,10.24,20.75,9.79,2.6,12.01,.87,14.69-14.71,1.78-12.11,3.56-25.07,4-38.05,1.34-25.94,0-50.16-3.11-75.25-2.23-19.88-1.34-21.61,8.45-31.13,2.23-2.58,4.9-3.46,4.9-9.5-.45-12.98,4.45-22.5,6.23-33.74,2.22-14.71,8.01-19.9,15.13-19.9,4.45,0,9.35,0,13.8,1.73,7.12,1.73,9.79,11.25,6.67,24.21Z"/><path class="d" d="M852.71,765.89c4.45,4.01,8.01,3.56,11.57,2.23,5.34-1.78,9.79,0,14.24,2.67,4.9,2.67,7.57,9.35,5.79,13.8-1.34,5.34-6.68,8.01-12.91,7.57-11.57-.89-23.14-3.12-34.71-2.67-16.91,.45-33.38,2.23-49.85,4.45-5.34,.89-11.13-.45-16.47,.89-8.01,1.78-11.57-3.56-14.24-9.35-2.67-5.79-.45-10.24,4.45-14.24,4.01-3.56,11.13-8.9,7.57-12.46-5.34-4.9-9.79,3.12-13.8,6.68-9.79,9.79-20.03,19.14-31.15,27.59-2.67,2.23-5.34,5.34-9.79,1.34-3.56-3.12-6.23,.89-8.9,2.23-5.79,2.67-11.13,6.68-16.91,0-2.23-2.67-4.45,.45-6.23,1.34-6.23,2.67-11.57,8.9-18.69,.45-1.78-2.23-6.23,.45-9.35,1.34-5.34,.89-10.24,3.12-14.69-2.67-3.56-4.01-9.35-1.78-14.24-1.34-3.12,.45-5.79,1.34-8.01-1.78-2.23-3.12-1.78-6.68,0-9.35,3.56-4.45,6.23-8.01,13.35-8.01,22.25,.45,44.06-3.56,66.31-6.23,6.68-.89,12.02-3.12,16.91-7.57,11.57-11.13,22.25-21.81,28.93-37.38,8.9-20.03,14.24-40.94,21.36-61.42,5.34-14.24,11.13-28.04,17.36-41.83,9.35-19.14,24.03-32.93,44.06-40.5,24.03-9.35,42.72-26.26,58.3-46.73,8.01-10.68,14.24-22.7,23.14-32.04-1.34-3.56-4.45-2.67-6.68-3.12-8.01-1.78-9.79-5.34-5.79-12.02,3.56-5.79,7.57-11.13,12.91-15.58,6.23-5.34,12.02-10.68,18.25-15.13,9.35-6.68,17.36-14.69,24.03-24.03,6.23-9.35,13.8-15.58,25.81-13.8,5.79,.89,11.57-1.78,15.13-7.12,4.01-5.79,9.79-10.24,12.91-16.91,3.56-7.57,8.01-7.12,13.35-.45,2.23,2.67,4.9,4.9,6.68,7.57,3.12,4.01,4.9,8.46,3.12,13.8-1.34,3.56-2.23,7.12-4.01,10.68-12.02,23.59-16.02,49.4-16.91,75.66-.45,6.23,1.78,12.46,4.45,18.25,3.12,7.12,3.56,13.8-.45,20.47-7.12,12.91-9.79,27.59-12.02,42.28-2.23,16.02-10.68,28.04-18.69,40.5-4.01,6.68-8.9,13.35-13.35,19.58-3.12,4.45-4.45,9.35-3.56,14.24,3.56,18.69,.89,36.94-4.9,54.3-7.57,22.25,0,40.94,11.13,59.19,2.67,4.45,6.23,8.9,8.9,13.8,3.12,6.68,.45,11.57-6.68,12.46-4.45,.89-9.35,.89-13.8,.89-7.12,0-12.91-2.67-15.13-10.24-1.78-5.79-6.68-10.68-6.23-17.36,0-3.12-2.67-3.56-4.9-4.9-9.79-4.9-10.68-5.79-8.46-16.02,3.12-12.91,4.45-25.37,3.12-38.72-.45-6.68-2.23-13.35-4.01-19.58-2.67-8.01-4.9-8.9-14.69-7.57-8.9,1.34-10.24,1.78-10.24,10.68,0,16.02-4.9,30.26-14.69,43.17-3.12,4.01-5.79,7.57-10.24,10.68-6.68,4.45-11.57,11.13-17.8,17.36Z"/><path class="e" d="M1066.78,782.37c10.14,1.97,64.04,6.31,80.75-27.78,3.7-7.54,5.25-15.83,4.58-23.7,11.51-2.31,23.12-5.27,39.3-8.4,.37-11.06-1.27-16.19-6.45-24.69-14.93,7.95-26.94,15.27-42.91,23.64-.78-20.51-10.4-40.42-29.97-54.53l-31.2,63.66,7.78-20.35c-6.87-4.16-17.74-8.55-25.82-10.81-7.37-2.05-15.09-3.1-22.86-2.8,6.25,13.7,15.37,36.17,31.08,54.09-7.75,2.92-15.24,7.43-17.95,12.96-2.86,5.82,.37,12.89,8.07,16.75,.06,3.43-.14,6.9-.6,10.35,1.97-2.82,4.1-5.6,6.21-8.39Zm-6.7-13.02c.63-1.3,2.53-1.96,4.25-1.48,1.71,.48,2.59,1.92,1.96,3.21-.64,1.29-2.55,1.96-4.26,1.48-1.73-.48-2.59-1.92-1.95-3.21Z"/><path class="d" d="M1078.38,763.86c-7.69-3.86-10.92-10.92-8.07-16.74,2.71-5.54,10.2-10.04,17.95-12.97-15.71-17.93-24.83-40.39-31.08-54.09,7.76-.31,15.49,.75,22.86,2.8,8.09,2.25,18.96,6.65,25.82,10.8l-7.78,20.36,31.2-63.66c19.57,14.11,29.19,34.02,29.97,54.53,15.98-8.37,27.99-15.69,42.92-23.64,5.19,8.49,6.82,13.62,6.45,24.69-16.18,3.14-27.79,6.09-39.3,8.4,.68,7.88-.88,16.16-4.57,23.7-16.71,34.1-70.62,29.76-80.76,27.79-2.1,2.78-4.24,5.56-6.2,8.38,.45-3.44,.65-6.91,.59-10.36Zm5.12-9.32c.64-1.3-.25-2.73-1.96-3.21-1.72-.48-3.62,.18-4.26,1.48s.23,2.73,1.96,3.21c1.72,.48,3.63-.19,4.26-1.48Z"/><path class="e" d="M194.11,253.22c-.51-8.68-8.03-15.3-16.73-14.76-34.75,2.28-69.92,3.44-105.39,3.44-24.15,0-48.15-.54-71.99-1.6v31.62c8.15,.36,16.28,.66,24.39,.9,2.35,12.46,4.55,25.06,6.62,37.77,3.51,21.55,6.63,43.18,9.3,64.88h63.35c2.67-21.73,5.78-43.38,9.29-64.91,2.05-12.68,4.25-25.28,6.6-37.74h.02c19.82-.59,39.74-1.56,59.79-2.87,8.07-.48,14.36-7.04,14.74-14.96,0-.09,.01-.17,.01-.26,.01-.02,.01-.03,.01-.05,.01-.2,.02-.41,.02-.61,0-.28-.01-.57-.03-.85Zm24.67,284.02h-37.4c-5.24,0-9.49-4.25-9.49-9.49,0-2.4,.89-4.6,2.38-6.28l92.61-127.04H0v239.83l12.33,16c3.19,4.13,2.42,10.09-1.71,13.27-1.73,1.34-3.75,1.98-5.78,2.01H0v64.71l71.99,108.92,114.76-173.63h-47.6c-5.24,0-9.5-4.25-9.5-9.49,0-2.45,.94-4.68,2.45-6.36l86.68-112.45Z"/><path class="f" d="M184.16,0H0V113.47H266.89L184.16,0Zm-4.79,237.94c-20.05-1.31-39.97-2.27-59.79-2.86h-.02c-2.35-12.46-4.55-25.07-6.6-37.75-3.51-21.52-6.62-43.17-9.29-64.9H40.32c-2.67,21.7-5.79,43.33-9.3,64.88-2.07,12.7-4.27,25.31-6.62,37.77-8.12,.24-16.25,.54-24.4,.9v31.62c23.85-1.06,47.85-1.6,72-1.6,35.47,0,70.64,1.16,105.39,3.43,8.6,.54,16.04-5.92,16.71-14.44,.01-.1,.01-.21,.02-.31,.01-.2,.02-.41,.02-.61,.22-8.44-6.3-15.62-14.77-16.13Z"/><path class="e" d="M537.29,991.44c0-2.39,.89-4.59,2.37-6.27l92.62-127.05H242.52l93.14,127.76c3.06,4.23,2.15,10.13-2.08,13.2-1.68,1.21-3.63,1.8-5.56,1.85h-37.42l60.95,79.07h171.69l60.94-79.07h-37.4c-5.24,0-9.49-4.25-9.49-9.49Zm22.25-273.63c0-.3,0-.59-.03-.89-.52-8.68-8.03-15.3-16.73-14.76-18.08,1.19-36.27,2.07-54.56,2.64-16.87,.53-33.82,.8-50.83,.8-35.46,0-70.61-1.16-105.39-3.44-8.7-.54-16.19,6.06-16.73,14.76-.01,.19-.02,.38-.02,.56-.24,8.46,6.26,15.64,14.77,16.17,20.02,1.34,39.95,2.27,59.77,2.87,2.35,12.45,4.55,25.06,6.62,37.76,3.51,21.56,6.63,43.18,9.3,64.89h63.35c2.67-21.73,5.78-43.38,9.29-64.91,2.05-12.68,4.25-25.29,6.6-37.74h.02c7.86-.24,15.74-.53,23.63-.89,12.01-.53,24.06-1.19,36.16-1.98,8.16-.49,14.5-7.18,14.75-15.23,0-.02,0-.03,0-.05,.01-.19,.02-.37,.02-.56Z"/><path class="e" d="M607.11,246.37c-2.35,12.46-4.55,25.06-6.6,37.74-3.51,21.53-6.62,43.18-9.29,64.91h-63.35c-2.67-21.7-5.78-43.33-9.29-64.88-2.08-12.7-4.28-25.31-6.62-37.77-19.82-.59-39.74-1.53-59.76-2.87-8.7-.54-15.3-8.03-14.76-16.73,.54-8.7,8.03-15.3,16.73-14.76,34.78,2.27,69.92,3.44,105.39,3.44s70.64-1.16,105.39-3.44c8.7-.54,16.21,6.08,16.73,14.76,.54,8.7-6.08,16.21-14.76,16.73-20.05,1.31-39.97,2.27-59.79,2.87h-.02Zm67.2,392.72l-114.76,173.63-114.76-173.63h47.6c2.03-.02,4.05-.67,5.78-2,4.13-3.19,4.89-9.14,1.71-13.27l-87.13-113.03h37.42c1.93-.05,3.88-.64,5.56-1.85,4.23-3.06,5.14-8.97,2.08-13.2l-93.13-127.76h389.75l-92.61,127.04c-1.48,1.68-2.37,3.88-2.37,6.28,0,5.24,4.25,9.49,9.49,9.49h37.4l-86.68,112.46c-1.51,1.68-2.45,3.91-2.45,6.35,0,5.24,4.25,9.49,9.49,9.49h47.61Z"/><path class="f" d="M691.01,0H428.13l-63.44,87.02h389.76L691.01,0Zm-24.08,211.49c-20.05-1.31-39.97-2.27-59.79-2.86h-.02c-2.35-12.46-4.55-25.07-6.6-37.75-3.51-21.52-6.62-43.17-9.29-64.9h-63.35c-2.67,21.7-5.79,43.33-9.3,64.88-2.07,12.7-4.27,25.31-6.62,37.77-7.86,.23-15.73,.52-23.62,.87-12.01,.53-24.06,1.19-36.14,1.99-8.2,.52-14.51,7.2-14.77,15.24,0,.01,0,.03,0,.04-.01,.16-.02,.31-.02,.47v.03c0,.31,.01,.64,.03,.96,.54,8.7,8.03,15.3,16.73,14.75,18.09-1.18,36.28-2.06,54.56-2.63,16.87-.53,33.81-.8,50.83-.8,35.47,0,70.64,1.16,105.39,3.43,8.7,.55,16.21-6.08,16.73-14.75,.01-.19,.02-.37,.02-.56,.24-8.46-6.29-15.67-14.77-16.18Z"/><path class="e" d="M1065.63,127.94h-37.39c-5.24,0-9.49-4.25-9.49-9.49,0-2.4,.89-4.6,2.37-6.28L1102.89,0h-368.07l82.29,112.89c3.07,4.22,2.15,10.13-2.07,13.2-1.68,1.21-3.64,1.8-5.56,1.85h-37.43l87.13,113.03c3.19,4.12,2.42,10.08-1.7,13.27-1.73,1.33-3.76,1.98-5.79,2h-47.6l114.76,173.63,114.76-173.63h-47.61c-5.24,0-9.49-4.25-9.49-9.49,0-2.45,.94-4.67,2.45-6.35l86.67-112.46Z"/><path class="f" d="M484.96,698.77c-2.35-12.46-4.55-25.06-6.6-37.74-3.51-21.53-6.62-43.18-9.29-64.91h-63.35c-2.67,21.7-5.78,43.33-9.29,64.88-2.08,12.7-4.28,25.31-6.62,37.77-19.82,.59-39.74,1.53-59.76,2.87-8.7,.54-15.3,8.03-14.76,16.73,.54,8.7,8.03,15.3,16.73,14.76,34.78-2.27,69.92-3.44,105.39-3.44s70.64,1.16,105.39,3.44c8.7,.54,16.21-6.08,16.73-14.76,.54-8.7-6.08-16.21-14.76-16.73-20.05-1.31-39.97-2.27-59.79-2.87h-.02Zm67.2-392.72l-114.76-173.63-114.76,173.63h47.6c2.03,.02,4.05,.67,5.78,2,4.13,3.19,4.89,9.14,1.71,13.27l-87.13,113.03h37.42c1.93,.05,3.88,.64,5.56,1.85,4.23,3.06,5.14,8.97,2.08,13.2l-93.13,127.76h389.75l-92.61-127.04c-1.48-1.68-2.37-3.88-2.37-6.28,0-5.24,4.25-9.49,9.49-9.49h37.4l-86.68-112.46c-1.51-1.68-2.45-3.91-2.45-6.35,0-5.24,4.25-9.49,9.49-9.49h47.61Z"/></svg>