<?xml version="1.0" encoding="UTF-8"?><svg id="a" xmlns="http://www.w3.org/2000/svg" viewBox="0 0 1921.36 1080"><defs><style>.b{fill:#2c302c;}.c{fill:#596869;}.d{fill:#f5f9e9;}.e{opacity:.21;}.f{fill:#36453b;}</style></defs><rect class="b" width="1920" height="1080"/><path class="c" d="M1920.23,523.94v115.29l-.02,.03-.21-.22v173.49c-59-6.96-126.52-22.1-195.91-38.4-14.66-3.43-29.42-6.93-44.18-10.42-53.78-12.65-107.81-25.09-159.09-34.13-44.77-7.88-87.42-13.15-125.95-13.68-54.1-.74-100.07,7.88-132.31,31.78-39.34,29.14-96.43,43.22-163.43,46.93-7.82,.43-15.77,.72-23.84,.88-8.88,.17-17.92,.18-27.08,.04-20.46-.32-41.6-1.39-63.19-3.11-2.11-.16-4.22-.33-6.34-.51-7.66-.65-15.37-1.38-23.13-2.19-24.91-2.57-50.32-5.92-75.97-9.88-23.96-3.68-48.13-7.9-72.28-12.52-143.57-27.45-286.62-68.9-383.19-96.76-25.48-7.36-61.17-11.45-104.36-13.07-38.6-1.44-83.21-.92-131.95,1h-.02c-29.48,1.18-60.47,2.85-92.55,4.93-30.86,1.99-62.73,4.34-95.23,6.94V362.61c35.11-4.71,67.27-8.08,96.93-10.38,30.2-2.34,57.8-3.58,83.3-4,13.68-.22,26.76-.2,39.31,.01,1.9,.03,3.79,.06,5.67,.1,50.3,1.07,91.96,5.19,129.93,9.39,68.03,7.54,124.2,15.33,196.86,6.31,2.07-.25,4.14-.52,6.24-.81h.01c4.4-.59,8.86-1.26,13.39-1.98,14.19-2.28,29.04-5.19,44.76-8.85,21.42-5,40.82-8.15,58.67-9.78h0c.79-.08,1.56-.15,2.34-.22,78.08-6.63,126.52,15.76,186.96,37.51,1.28,.46,2.56,.92,3.85,1.38,6.38,2.27,12.9,4.53,19.61,6.74,6.78,2.23,13.76,4.42,20.99,6.52h.01c2.97,.87,5.97,1.72,9.01,2.55h.02c3.5,.96,7.04,1.88,10.67,2.81,35.34,8.84,76.71,15.27,128.92,15.83,7.78,.09,15.81,.05,24.1-.14,28.1-.63,59.17-2.89,93.81-7.22,21.35-2.68,41.55-5.25,60.65-7.74,11.19-1.45,22-2.87,32.45-4.25,11.94-1.58,23.41-3.1,34.44-4.56,8.88-1.17,17.47-2.31,25.78-3.4,17.53-2.31,33.83-4.43,49.03-6.32,3.4-.43,6.76-.85,10.04-1.25,48.35-5.89,84.9-9.3,113.52-8.98,7.69,.09,14.81,.44,21.43,1.09,44.3,4.33,66.23,21.78,88.07,59.51,9.27,16.04,30.07,24.97,58.26,29.15,9.47,1.4,19.77,2.26,30.76,2.68,25.51,.97,54.68-.48,85.58-3.23,15.82-1.4,32.09-3.15,48.55-5.1,2.83-.33,5.68-.67,8.53-1.02,25.82-3.13,52-6.68,77.54-10.06,.08-.01,.16-.02,.23-.03v73.46c1.48,1.69,1.53,3.88,0,5.61Z"/><path class="e" d="M1335.87,358.75c-1.88,7.02-3.65,14.13-5.29,21.28-2.81,12.14-5.31,24.35-7.45,36.6h-50.79c-2.14-12.24-4.64-24.43-7.45-36.58-1.66-7.16-3.43-14.27-5.31-21.29-15.89-.33-31.87-.86-47.92-1.62-6.98-.31-12.27-4.53-11.83-9.43,.44-4.91,6.44-8.63,13.42-8.32,27.88,1.28,56.07,1.94,84.5,1.94s56.64-.65,84.5-1.94c6.98-.31,13,3.43,13.42,8.32,.44,4.91-4.88,9.14-11.83,9.43-16.07,.74-32.05,1.28-47.94,1.62h-.02Zm53.88,221.43l-92.02,97.9-92.02-97.9h38.17c1.63-.01,3.25-.38,4.64-1.13,3.31-1.8,3.92-5.16,1.37-7.48l-69.86-63.73h30c1.55-.03,3.11-.36,4.46-1.05,3.39-1.73,4.12-5.06,1.66-7.44l-74.68-72.03h312.51l-74.26,71.63c-1.19,.95-1.9,2.19-1.9,3.54,0,2.95,3.41,5.35,7.61,5.35h29.98l-69.5,63.41c-1.21,.95-1.96,2.2-1.96,3.58,0,2.95,3.41,5.35,7.61,5.35h38.17Z"/><path class="e" d="M828.3,191.15c-1.88,7.02-3.65,14.13-5.29,21.28-2.81,12.14-5.31,24.35-7.45,36.6h-50.79c-2.14-12.24-4.64-24.43-7.45-36.58-1.66-7.16-3.43-14.27-5.31-21.29-15.89-.33-31.87-.86-47.92-1.62-6.98-.31-12.27-4.53-11.83-9.43,.44-4.91,6.44-8.63,13.42-8.32,27.88,1.28,56.07,1.94,84.5,1.94s56.64-.65,84.5-1.94c6.98-.31,13,3.43,13.42,8.32,.44,4.91-4.88,9.14-11.83,9.43-16.07,.74-32.05,1.28-47.94,1.62h-.02Zm53.88,221.43l-92.02,97.9-92.02-97.9h38.17c1.63-.01,3.25-.38,4.64-1.13,3.31-1.8,3.92-5.16,1.37-7.48l-69.86-63.73h30c1.55-.03,3.11-.36,4.46-1.05,3.39-1.73,4.12-5.06,1.66-7.44l-74.68-72.03h312.51l-74.26,71.63c-1.19,.95-1.9,2.19-1.9,3.54,0,2.95,3.41,5.35,7.61,5.35h29.98l-69.5,63.41c-1.21,.95-1.96,2.2-1.96,3.58,0,2.95,3.41,5.35,7.61,5.35h38.17Z"/><path class="e" d="M497.67,239.15c-1.88,7.02-3.65,14.13-5.29,21.28-2.81,12.14-5.31,24.35-7.45,36.6h-50.79c-2.14-12.24-4.64-24.43-7.45-36.58-1.66-7.16-3.43-14.27-5.31-21.29-15.89-.33-31.87-.86-47.92-1.62-6.98-.31-12.27-4.53-11.83-9.43,.44-4.91,6.44-8.63,13.42-8.32,27.88,1.28,56.07,1.94,84.5,1.94s56.64-.65,84.5-1.94c6.98-.31,13,3.43,13.42,8.32,.44,4.91-4.88,9.14-11.83,9.43-16.07,.74-32.05,1.28-47.94,1.62h-.02Zm53.88,221.43l-92.02,97.9-92.02-97.9h38.17c1.63-.01,3.25-.38,4.64-1.13,3.31-1.8,3.92-5.16,1.37-7.48l-69.86-63.73h30c1.55-.03,3.11-.36,4.46-1.05,3.39-1.73,4.12-5.06,1.66-7.44l-74.68-72.03h312.51l-74.26,71.63c-1.19,.95-1.9,2.19-1.9,3.54,0,2.95,3.41,5.35,7.61,5.35h29.98l-69.5,63.41c-1.21,.95-1.96,2.2-1.96,3.58,0,2.95,3.41,5.35,7.61,5.35h38.17Z"/><path class="e" d="M194.49,96.13c-1.88,7.02-3.65,14.13-5.29,21.28-2.81,12.14-5.31,24.35-7.45,36.6h-50.79c-2.14-12.24-4.64-24.43-7.45-36.58-1.66-7.16-3.43-14.27-5.31-21.29-15.89-.33-31.87-.86-47.92-1.62-6.98-.31-12.27-4.53-11.83-9.43,.44-4.91,6.44-8.63,13.42-8.32,27.88,1.28,56.07,1.94,84.5,1.94s56.64-.65,84.5-1.94c6.98-.31,13,3.43,13.42,8.32,.44,4.91-4.88,9.14-11.83,9.43-16.07,.74-32.05,1.28-47.94,1.62h-.02Zm53.88,221.43l-92.02,97.9-92.02-97.9h38.17c1.63-.01,3.25-.38,4.64-1.13,3.31-1.8,3.92-5.16,1.37-7.48l-69.86-63.73h30c1.55-.03,3.11-.36,4.46-1.05,3.39-1.73,4.12-5.06,1.66-7.44L.11,164.7H312.62l-74.26,71.63c-1.19,.95-1.9,2.19-1.9,3.54,0,2.95,3.41,5.35,7.61,5.35h29.98l-69.5,63.41c-1.21,.95-1.96,2.2-1.96,3.58,0,2.95,3.41,5.35,7.61,5.35h38.17Z"/><path class="e" d="M1649.44,239.15c-1.88,7.02-3.65,14.13-5.29,21.28-2.81,12.14-5.31,24.35-7.45,36.6h-50.79c-2.14-12.24-4.64-24.43-7.45-36.58-1.66-7.16-3.43-14.27-5.31-21.29-15.89-.33-31.87-.86-47.92-1.62-6.98-.31-12.27-4.53-11.83-9.43,.44-4.91,6.44-8.63,13.42-8.32,27.88,1.28,56.07,1.94,84.5,1.94s56.64-.65,84.5-1.94c6.98-.31,13,3.43,13.42,8.32,.44,4.91-4.88,9.14-11.83,9.43-16.07,.74-32.05,1.28-47.94,1.62h-.02Zm53.88,221.43l-92.02,97.9-92.02-97.9h38.17c1.63-.01,3.25-.38,4.64-1.13,3.31-1.8,3.92-5.16,1.37-7.48l-69.86-63.73h30c1.55-.03,3.11-.36,4.46-1.05,3.39-1.73,4.12-5.06,1.66-7.44l-74.68-72.03h312.51l-74.26,71.63c-1.19,.95-1.9,2.19-1.9,3.54,0,2.95,3.41,5.35,7.61,5.35h29.98l-69.5,63.41c-1.21,.95-1.96,2.2-1.96,3.58,0,2.95,3.41,5.35,7.61,5.35h38.17Z"/><path class="e" d="M1107.57,109.16c-1.88,7.02-3.65,14.13-5.29,21.28-2.81,12.14-5.31,24.35-7.45,36.6h-50.79c-2.14-12.24-4.64-24.43-7.45-36.58-1.66-7.16-3.43-14.27-5.31-21.29-15.89-.33-31.87-.86-47.92-1.62-6.98-.31-12.27-4.53-11.83-9.43,.44-4.91,6.44-8.63,13.42-8.32,27.88,1.28,56.07,1.94,84.5,1.94s56.64-.65,84.5-1.94c6.98-.31,13,3.43,13.42,8.32,.44,4.91-4.88,9.14-11.83,9.43-16.07,.74-32.05,1.28-47.94,1.62h-.02Zm53.88,221.43l-92.02,97.9-92.02-97.9h38.17c1.63-.01,3.25-.38,4.64-1.13,3.31-1.8,3.92-5.16,1.37-7.48l-69.86-63.73h30c1.55-.03,3.11-.36,4.46-1.05,3.39-1.73,4.12-5.06,1.66-7.44l-74.68-72.03h312.51l-74.26,71.63c-1.19,.95-1.9,2.19-1.9,3.54,0,2.95,3.41,5.35,7.61,5.35h29.98l-69.5,63.41c-1.21,.95-1.96,2.2-1.96,3.58,0,2.95,3.41,5.35,7.61,5.35h38.17Z"/><path class="e" d="M1920.23,518.33v-129.83h-156.27l69.97,67.48,4.72,4.55c2.45,2.39,1.72,5.72-1.67,7.45-1.35,.68-2.92,1.01-4.46,1.04h-30.01l69.87,63.72c2.55,2.34,1.94,5.7-1.38,7.49-1.38,.76-3,1.11-4.63,1.13h-38.17l33.68,35.84,10.27,10.91,5.61,5.99,5.18,5.5,37.06,39.44,.21,.22,.02-.03v-115.29c1.53-1.73,1.48-3.92,0-5.61Zm-.23-215.83c-28.35,0-56.48-.66-84.29-1.93-6.85-.31-12.77,3.28-13.37,8.05-.02,.07-.02,.14-.03,.21-.02,.04-.02,.1-.02,.15-.14,1.88,.56,3.67,1.89,5.16,2.09,2.36,5.71,4,9.95,4.18,6.22,.29,12.44,.55,18.64,.77,9.79,.36,19.55,.64,29.27,.85,1.9,7.01,3.65,14.13,5.32,21.29,2.07,8.89,3.95,17.82,5.66,26.75,.63,3.28,1.21,6.55,1.79,9.84h25.42v-75.32h-.23Z"/><path class="d" d="M783.56,917.65c2.76,2.48,4.96,2.21,7.17,1.38,3.31-1.1,6.06,0,8.82,1.65,3.03,1.65,4.69,5.79,3.58,8.55-.83,3.31-4.13,4.96-7.99,4.69-7.17-.55-14.33-1.93-21.5-1.65-10.47,.28-20.67,1.38-30.87,2.76-3.31,.55-6.89-.28-10.2,.55-4.96,1.1-7.17-2.21-8.82-5.79-1.65-3.58-.28-6.34,2.76-8.82,2.48-2.21,6.89-5.51,4.69-7.72-3.31-3.03-6.06,1.93-8.55,4.13-6.06,6.06-12.4,11.85-19.3,17.09-1.65,1.38-3.31,3.31-6.06,.83-2.21-1.93-3.86,.55-5.51,1.38-3.58,1.65-6.89,4.13-10.47,0-1.38-1.65-2.76,.28-3.86,.83-3.86,1.65-7.17,5.51-11.58,.28-1.1-1.38-3.86,.28-5.79,.83-3.31,.55-6.34,1.93-9.1-1.65-2.21-2.48-5.79-1.1-8.82-.83-1.93,.28-3.58,.83-4.96-1.1-1.38-1.93-1.1-4.13,0-5.79,2.21-2.76,3.86-4.96,8.27-4.96,13.78,.28,27.29-2.21,41.07-3.86,4.13-.55,7.44-1.93,10.47-4.69,7.17-6.89,13.78-13.51,17.92-23.16,5.51-12.4,8.82-25.36,13.23-38.04,3.31-8.82,6.89-17.37,10.75-25.91,5.79-11.85,14.89-20.4,27.29-25.08,14.89-5.79,26.46-16.26,36.11-28.94,4.96-6.62,8.82-14.06,14.33-19.85-.83-2.21-2.76-1.65-4.13-1.93-4.96-1.1-6.06-3.31-3.58-7.44,2.21-3.58,4.69-6.89,7.99-9.65,3.86-3.31,7.44-6.62,11.3-9.37,5.79-4.13,10.75-9.1,14.89-14.89,3.86-5.79,8.55-9.65,15.99-8.55,3.58,.55,7.17-1.1,9.37-4.41,2.48-3.58,6.06-6.34,7.99-10.47,2.21-4.69,4.96-4.41,8.27-.28,1.38,1.65,3.03,3.03,4.13,4.69,1.93,2.48,3.03,5.24,1.93,8.55-.83,2.21-1.38,4.41-2.48,6.62-7.44,14.61-9.92,30.6-10.47,46.86-.28,3.86,1.1,7.72,2.76,11.3,1.93,4.41,2.21,8.55-.28,12.68-4.41,7.99-6.06,17.09-7.44,26.19-1.38,9.92-6.62,17.37-11.58,25.08-2.48,4.13-5.51,8.27-8.27,12.13-1.93,2.76-2.76,5.79-2.21,8.82,2.21,11.58,.55,22.88-3.03,33.63-4.69,13.78,0,25.36,6.89,36.66,1.65,2.76,3.86,5.51,5.51,8.55,1.93,4.13,.28,7.17-4.13,7.72-2.76,.55-5.79,.55-8.55,.55-4.41,0-7.99-1.65-9.37-6.34-1.1-3.58-4.13-6.62-3.86-10.75,0-1.93-1.65-2.21-3.03-3.03-6.06-3.03-6.62-3.58-5.24-9.92,1.93-7.99,2.76-15.71,1.93-23.98-.28-4.13-1.38-8.27-2.48-12.13-1.65-4.96-3.03-5.51-9.1-4.69-5.51,.83-6.34,1.1-6.34,6.62,0,9.92-3.03,18.74-9.1,26.74-1.93,2.48-3.58,4.69-6.34,6.62-4.13,2.76-7.17,6.89-11.03,10.75Z"/><path class="f" d="M1383.84,332.5c-16.08-1.05-32.05-1.82-47.94-2.3h-.02c-1.88-9.99-3.65-20.09-5.29-30.26-2.81-17.26-5.31-34.62-7.45-52.04h-50.8c-2.14,17.4-4.63,34.74-7.45,52.02-1.66,10.19-3.43,20.29-5.31,30.28-15.89,.48-31.87,1.23-47.92,2.3-6.98,.44-12.27,6.44-11.83,13.42,.02,.34,.06,.68,.11,1.02,.52,3.68,2.61,6.8,5.53,8.74,2.22,1.47,4.92,2.25,7.78,2.07,1.7-.11,3.4-.22,5.1-.32,26.22-1.61,52.69-2.43,79.4-2.43s53.11,.82,79.27,2.42h.04c1.73,.11,3.46,.22,5.19,.33,2.86,.18,5.55-.6,7.77-2.07,.01,0,.02-.01,.02-.01,2.91-1.93,4.99-5.04,5.52-8.68,.05-.35,.09-.71,.11-1.07,.43-6.98-4.88-13-11.83-13.42Zm-202.27-154.77l-40.07,54.97h312.51l-74.26-101.87c-1.19-1.34-1.9-3.11-1.9-5.03,0-4.2,3.41-7.61,7.61-7.61h29.98l-69.5-90.17c-1.21-1.35-1.96-3.13-1.96-5.09,0-4.2,3.41-7.61,7.61-7.61h38.18l-10.13-15.32h-163.78l-10.13,15.32h38.17c1.63,.02,3.25,.53,4.64,1.6,3.31,2.56,3.92,7.34,1.37,10.64l-69.86,90.63h30c1.55,.04,3.11,.52,4.46,1.49,3.39,2.45,4.12,7.19,1.66,10.58l-34.6,47.47Z"/><path class="f" d="M897.01,0h-213.65l-49.43,67.8h312.51L897.01,0Zm-20.74,167.61c-16.07-1.05-32.05-1.83-47.94-2.3h-.02c-1.88-9.99-3.64-20.1-5.29-30.26-2.81-17.26-5.31-34.63-7.45-52.05h-50.79c-2.14,17.4-4.64,34.74-7.46,52.03-1.66,10.18-3.42,20.29-5.31,30.28-15.89,.47-31.86,1.23-47.92,2.3-6.7,.41-11.85,5.99-11.85,12.62v.04c0,.25,0,.49,.02,.75,.02,.34,.06,.68,.11,1.01,.92,6.47,6.67,11.24,13.31,10.82,12.45-.81,24.95-1.45,37.52-1.91,15.58-.56,31.24-.84,46.98-.84s31.39,.28,46.96,.84c12.57,.46,25.09,1.1,37.54,1.91,6.96,.44,12.96-4.83,13.41-11.76,.01-.02,.01-.05,.01-.07,.01-.12,.02-.24,.01-.36,.25-6.82-5.01-12.65-11.84-13.05Z"/><path class="f" d="M541.55,6.73c-1.18-1.35-1.9-3.12-1.9-5.04,0-.58,.07-1.15,.19-1.69h-160.6c.47,2.06,.08,4.31-1.26,6.15l-74.68,102.44h312.51L541.55,6.73Zm4.09,201.66c-16.07-1.05-32.05-1.82-47.94-2.29h-.02c-1.88-9.99-3.64-20.1-5.29-30.27-2.81-17.26-5.31-34.62-7.45-52.04h-50.79c-2.14,17.4-4.64,34.74-7.46,52.02-1.66,10.19-3.42,20.3-5.31,30.29-15.89,.47-31.86,1.22-47.92,2.29-6.97,.44-12.26,6.45-11.83,13.42,.08,1.29,.35,2.53,.79,3.68,1.9,5.06,6.94,8.51,12.63,8.15,27.88-1.82,56.06-2.75,84.5-2.75s56.64,.93,84.5,2.75c5.68,.36,10.72-3.09,12.63-8.13,.44-1.16,.71-2.4,.79-3.7,.44-6.97-4.87-13-11.83-13.42Z"/><path class="f" d="M242.45,71.72c-16.07-1.05-32.04-1.83-47.94-2.3h-.01c-1.88-9.99-3.65-20.1-5.29-30.26-2.12-13.01-4.06-26.06-5.8-39.16h-54.1c-1.74,13.08-3.68,26.12-5.8,39.14-1.67,10.18-3.43,20.29-5.31,30.28-15.9,.47-31.87,1.23-47.92,2.3-6.95,.43-12.22,6.38-11.83,13.31v.1c.08,1.28,.35,2.51,.78,3.66,1.89,5.07,6.94,8.53,12.63,8.17,8.34-.54,16.7-1.01,25.09-1.4,19.67-.89,39.48-1.35,59.42-1.35s39.71,.46,59.35,1.35c8.41,.39,16.8,.85,25.15,1.4,5.76,.36,10.87-3.2,12.72-8.37t.01-.02c.37-1.06,.61-2.19,.68-3.37,.01-.02,.01-.05,.01-.07,.43-6.97-4.88-13-11.84-13.41Z"/><path class="f" d="M1692.26,5.76c-1.19-1.35-1.9-3.12-1.9-5.04,0-.24,.01-.48,.04-.72h-160.3c.17,1.78-.28,3.62-1.41,5.18l-74.68,102.44h312.51L1692.26,5.76Zm4.09,201.66c-16.08-1.05-32.05-1.82-47.94-2.29h-.02c-1.88-9.99-3.64-20.1-5.29-30.27-2.81-17.26-5.31-34.62-7.45-52.04h-50.8c-2.14,17.4-4.63,34.74-7.45,52.02-1.66,10.19-3.43,20.3-5.31,30.29-15.89,.47-31.87,1.22-47.92,2.29-6.97,.44-12.27,6.44-11.83,13.42,.12,1.92,.66,3.72,1.53,5.3,2.29,4.16,6.83,6.85,11.89,6.53,27.88-1.82,56.06-2.75,84.5-2.75s56.64,.93,84.5,2.75c5.82,.37,10.97-3.27,12.77-8.52,.36-1.04,.58-2.15,.65-3.31,.43-6.98-4.88-13-11.83-13.42Z"/><path class="f" d="M1166.21,102.42c-.86-5.79-5.67-10.4-11.73-10.76-6.41-.42-12.79-.79-19.17-1.12-9.62-.5-19.21-.89-28.77-1.18h-.01c-1.88-9.98-3.65-20.09-5.29-30.26-2.82-17.26-5.31-34.62-7.45-52.04h-50.8c-2.14,17.4-4.64,34.74-7.45,52.02-1.67,10.19-3.43,20.3-5.31,30.28-9.3,.28-18.63,.65-27.98,1.13-6.63,.34-13.28,.73-19.94,1.17-4.89,.31-8.95,3.34-10.79,7.53-.79,1.79-1.17,3.8-1.04,5.89,.43,6.98,6.44,12.27,13.41,11.83,16.18-1.06,32.45-1.81,48.82-2.26,11.85-.33,23.74-.49,35.69-.49,12.62,0,25.2,.18,37.72,.55,15.69,.45,31.29,1.19,46.78,2.2,6.97,.44,13-4.87,13.41-11.83,.06-.91,.02-1.8-.1-2.66Z"/><path class="f" d="M1894.81,210.24c-2.12,17.41-4.63,34.75-7.45,52.03-1.67,10.18-3.42,20.28-5.3,30.28-15.9,.48-31.86,1.23-47.91,2.3-6.66,.41-11.75,5.86-11.84,12.39-.02,.06-.02,.15-.02,.21,0,.27,0,.54,.02,.81l.03,.36c.18,2.03,.83,3.9,1.84,5.52,0,.01,.01,.01,.01,.01,2.38,3.82,6.72,6.25,11.54,5.95,5.67-.37,11.34-.71,17.04-1.01h.02c22.22-1.16,44.63-1.75,67.21-1.75h.23v-107.1h-25.42ZM1864.6,0l-62.07,80.54h30.01c1.54,.04,3.11,.52,4.44,1.48,2.24,1.63,3.32,4.23,3.11,6.78-.12,1.34-.6,2.63-1.44,3.8l-74.67,102.45h156.02V0h-55.4Z"/><path class="e" d="M876.95,1080h-84.66c-7.47-7.44-16.02-13.5-26.1-17.42-12.4-4.68-21.5-13.23-27.29-25.08-3.86-8.55-7.44-17.09-10.75-25.91-4.41-12.68-7.72-25.64-13.23-38.04-4.14-9.65-10.75-16.27-17.92-23.16-3.03-2.76-6.34-4.13-10.47-4.68-13.79-1.66-27.29-4.14-41.08-3.86-4.41,0-6.06-2.21-8.27-4.97-.74-1.11-1.1-2.46-.85-3.82,.13-.66,.4-1.33,.85-1.96,1.38-1.93,3.04-1.38,4.97-1.11,3.03,.28,6.61,1.66,8.82-.82,2.75-3.59,5.79-2.21,9.09-1.66,1.93,.55,4.69,2.21,5.79,.83,4.41-5.24,7.72-1.38,11.58,.27,1.1,.56,2.48,2.49,3.86,.83,3.58-4.13,6.89-1.65,10.47,0,1.66,.83,3.31,3.31,5.52,1.38,2.75-2.48,4.41-.55,6.06,.83,.61,.46,1.21,.93,1.81,1.41,6.2,4.85,11.96,10.15,17.49,15.68,2.48,2.2,5.23,7.16,8.54,4.13,2.21-2.2-2.2-5.51-4.68-7.72-3.04-2.48-4.41-5.23-2.76-8.82,.54-1.17,1.14-2.3,1.87-3.27,1.51-2,3.61-3.26,6.95-2.52,3.31,.83,6.89,0,10.2,.56,5.74,.77,11.47,1.46,17.26,1.96,4.5,.39,9.03,.67,13.61,.79,4.44,.17,8.88-.29,13.32-.79,2.73-.32,5.46-.65,8.18-.86,1.81-.13,3.49,.16,4.86,.86,1.56,.77,2.7,2.07,3.14,3.82,1.1,2.76-.55,6.9-3.58,8.55-2.76,1.65-5.52,2.76-8.83,1.65-2.2-.82-4.41-1.1-7.16,1.38,3.86,3.86,6.89,8,11.02,10.75,2.76,1.93,4.41,4.14,6.34,6.62,6.07,7.99,9.1,16.81,9.1,26.74,0,5.51,.83,5.79,6.34,6.61,6.06,.83,7.44,.28,9.1-4.68,1.1-3.86,2.2-8,2.48-12.13,.82-8.27,0-15.99-1.93-23.98-1.38-6.34-.83-6.9,5.24-9.93,1.37-.82,3.03-1.1,3.03-3.03-.28-4.14,2.75-7.17,3.86-10.75,.17-.59,.38-1.13,.62-1.62h0c1.67-3.46,4.9-4.72,8.75-4.72,2.76,0,5.79,0,8.54,.55,3.02,.38,4.75,1.92,4.92,4.17,.08,1.04-.17,2.24-.78,3.55-1.65,3.03-3.86,5.79-5.51,8.54-6.89,11.31-11.58,22.88-6.89,36.67,3.58,10.75,5.23,22.05,3.03,33.63-.55,3.03,.27,6.06,2.2,8.82,2.76,3.86,5.79,7.99,8.27,12.13,4.96,7.71,10.2,15.16,11.58,25.08,.95,6.3,2.04,12.59,4.08,18.52Z"/><path class="e" d="M1086.91,923.02c-2.37-6.35-19.31-37.09-49.51-29.19-6.68,1.75-13.09,5-18.39,9.23-5.89-4.97-12.28-9.68-20.49-16.72-7.92,5.24-10.93,8.64-14.99,15.57,11.14,4.01,20.74,6.78,32.56,11.14-14.15,10.51-24.6,25.41-27.28,42.74l56.39-14.76-17.22,5.89c-.38,5.69,.56,13.62,1.97,19.02,1.29,4.92,3.41,9.54,6.51,13.51,7.33-10.06,19.77-25.95,26.56-43.11,4.93,2.67,10.88,4.43,15.78,3.15,5.16-1.35,8.93-6.54,8.8-12.52,2.4-1.72,4.91-3.32,7.51-4.78-2.72,.34-5.46,.58-8.21,.84Zm-6.68,9.96c-1.15,.3-2.32-.38-2.62-1.53-.3-1.15,.39-2.32,1.53-2.62,1.15-.3,2.32,.39,2.62,1.53,.3,1.15-.39,2.32-1.53,2.62Z"/><path class="d" d="M1087.6,913.37c.14,5.98-3.64,11.17-8.79,12.52-4.91,1.28-10.85-.48-15.79-3.15-6.8,17.16-19.23,33.05-26.56,43.11-3.1-3.97-5.22-8.59-6.51-13.51-1.41-5.4-2.35-13.33-1.97-19.02l17.22-5.89-56.39,14.76c2.68-17.33,13.13-32.23,27.28-42.74-11.82-4.36-21.43-7.13-32.56-11.14,4.06-6.93,7.06-10.32,14.99-15.57,8.21,7.04,14.6,11.75,20.49,16.73,5.29-4.24,11.7-7.49,18.38-9.23,30.21-7.91,47.14,22.83,49.51,29.18,2.74-.25,5.49-.49,8.2-.83-2.59,1.46-5.11,3.06-7.51,4.78Zm-8.46,1.87c-1.15,.3-1.83,1.48-1.53,2.62,.3,1.15,1.47,1.83,2.62,1.53s1.84-1.47,1.53-2.62-1.48-1.83-2.62-1.53Z"/><path class="f" d="M256.26,1013.9c0-5.24,4.25-9.49,9.49-9.49h37.4l-86.68-112.46c-1.51-1.68-2.45-3.91-2.45-6.35,0-5.24,4.26-9.49,9.5-9.49h47.6l-114.76-173.63-114.76,173.63h47.61c2.03,.02,4.05,.66,5.78,2,4.13,3.19,4.9,9.14,1.71,13.27L9.57,1004.41H46.99c1.93,.05,3.88,.64,5.56,1.85,4.23,3.07,5.14,8.97,2.08,13.2l-44.14,60.54H302.25l-43.61-59.82c-1.49-1.68-2.38-3.88-2.38-6.28Z"/><path class="f" d="M583.35,1048.93c0-5.24,4.25-9.49,9.49-9.49h47.61l-114.76-173.63-114.76,173.63h47.6c2.03,.02,4.05,.67,5.78,2,4.13,3.19,4.9,9.15,1.71,13.27l-19.49,25.29h158.31l-19.05-24.72c-1.5-1.68-2.44-3.9-2.44-6.35Z"/><path class="f" d="M1727.3,1013.9c0-5.24,4.25-9.49,9.49-9.49h37.4l-86.68-112.46c-1.51-1.68-2.45-3.91-2.45-6.35,0-5.24,4.26-9.49,9.5-9.49h47.61l-76.5-115.74-38.26-57.89-28.26,42.75-86.5,130.88h47.6c2.03,.02,4.05,.66,5.78,2,4.13,3.19,4.9,9.14,1.71,13.27l-87.13,113.03h37.42c1.93,.05,3.88,.64,5.56,1.85,4.23,3.07,5.14,8.97,2.08,13.2l-44.13,60.54h291.75l-43.61-59.82c-1.49-1.68-2.38-3.88-2.38-6.28Z"/><path class="f" d="M1920,1080v-37.18l-28.67,37.18h28.67Zm-49.66-59.52h47.61c.69,.01,1.37,.09,2.05,.26v-75.39l-49.66,75.13Z"/></svg>