<?xml version="1.0" encoding="UTF-8"?><svg id="a" xmlns="http://www.w3.org/2000/svg" viewBox="0 0 1919.57 1080"><defs><style>.b{fill:#2c302c;}.c{fill:#c2c1a5;}.d{fill:#f5f9e9;}</style></defs><rect class="b" width="1919.57" height="1080"/><rect class="c" width="1919.57" height="446.27"/><path class="d" d="M351.85,46.96c-.43,0-.83,.05-1.26,.06-.59-10.66-9.39-19.13-20.21-19.13-3.81,0-7.37,1.08-10.43,2.91-4.89-7.49-13.34-12.45-22.95-12.45-15.14,0-27.42,12.27-27.42,27.42,0,1.63,.16,3.22,.44,4.77-10.13,.09-18.31,8.32-18.31,18.47s7.95,18.13,17.88,18.45v.03h81.06v-.06c.4,.03,.78,.06,1.19,.06,11.19,0,20.27-9.07,20.27-20.27,0-11.18-9.07-20.25-20.26-20.25h0Z"/><path class="d" d="M1693.96,361.94c0,11.38-9.22,20.6-20.59,20.6-.42,0-.81-.03-1.21-.06v.06h-82.37v-.03c-10.09-.33-18.16-8.58-18.16-18.74,0-4.25,1.41-8.16,3.79-11.31,1.55-2.05,3.51-3.77,5.77-5.04,2.68-1.51,5.76-2.39,9.05-2.42-.29-1.58-.45-3.19-.45-4.85,0-9.62,4.87-18.09,12.28-23.1,.98-.67,2.01-1.27,3.08-1.8,3.76-1.89,8.01-2.96,12.5-2.96,9.77,0,18.36,5.04,23.33,12.65,3.11-1.86,6.72-2.95,10.6-2.95,10.99,0,19.94,8.6,20.53,19.44,.44-.01,.85-.06,1.28-.06,11.38,0,20.59,9.22,20.59,20.58Z"/><path class="d" d="M1588.25,343.6s-7.69,1.18-11.71,3.81h-29.92v-.02c-6.84-.22-12.31-5.82-12.31-12.71s5.64-12.66,12.62-12.72c-.19-1.07-.3-2.17-.3-3.29,0-10.43,8.46-18.89,18.88-18.89,6.62,0,12.45,3.42,15.81,8.58,2.11-1.26,4.56-2,7.18-2,5.68,0,10.55,3.38,12.73,8.25-4.07,2.98-14.86,13.45-12.97,28.99Z"/><path class="d" d="M1617.24,333.45c0,7.71-6.25,13.96-13.96,13.96-.28,0-.55-.02-.82-.04v.04h-21.29c2.68-1.51,5.76-2.39,9.05-2.42-.29-1.58-.45-3.19-.45-4.85,0-9.62,4.87-18.09,12.28-23.1,.2,.81,.32,1.64,.36,2.49,.3,0,.57-.04,.87-.04,1.61,0,3.15,.27,4.59,.77,5.46,1.9,9.37,7.08,9.37,13.18Z"/><path class="c" d="M1589.77,340.15c0,1.66,.16,3.27,.45,4.85-3.29,.03-6.37,.9-9.05,2.42h-4.63c4.02-2.63,10.58-4,10.58-4-1.89-15.54,10.04-25.82,14.11-28.8,.1,.22,.19,.44,.28,.66,.22,.57,.41,1.17,.55,1.78-7.41,5.01-12.28,13.48-12.28,23.1Z"/><path class="d" d="M437.03,356.97c-.43,0-.83,.05-1.26,.06-.59-10.66-9.39-19.13-20.21-19.13-3.81,0-7.37,1.08-10.43,2.91-4.89-7.49-13.34-12.45-22.95-12.45-15.14,0-27.42,12.27-27.42,27.42,0,1.63,.16,3.22,.44,4.77-10.13,.09-18.31,8.32-18.31,18.47s7.95,18.13,17.88,18.45v.03h81.06v-.06c.4,.03,.78,.06,1.19,.06,11.19,0,20.27-9.07,20.27-20.27,0-11.18-9.07-20.25-20.26-20.25h0Z"/><path class="d" d="M1767.15,46.96c-.43,0-.83,.05-1.26,.06-.59-10.66-9.39-19.13-20.21-19.13-3.81,0-7.37,1.08-10.43,2.91-4.89-7.49-13.34-12.45-22.95-12.45-15.14,0-27.42,12.27-27.42,27.42,0,1.63,.16,3.22,.44,4.77-10.13,.09-18.31,8.32-18.31,18.47s7.95,18.13,17.88,18.45v.03h81.06v-.06c.4,.03,.78,.06,1.19,.06,11.19,0,20.27-9.07,20.27-20.27,0-11.18-9.07-20.25-20.26-20.25h0Z"/><path class="d" d="M998.68,302.22c-.43,0-.83,.05-1.26,.06-.59-10.66-9.39-19.13-20.21-19.13-3.81,0-7.37,1.08-10.43,2.91-4.89-7.49-13.34-12.45-22.95-12.45-15.14,0-27.42,12.27-27.42,27.42,0,1.63,.16,3.22,.44,4.77-10.13,.09-18.31,8.32-18.31,18.47s7.95,18.13,17.88,18.45v.03h81.06v-.06c.4,.03,.78,.06,1.19,.06,11.19,0,20.27-9.07,20.27-20.27,0-11.18-9.07-20.25-20.26-20.25h0Z"/></svg>