<?xml version="1.0" encoding="UTF-8"?><svg id="a" xmlns="http://www.w3.org/2000/svg" viewBox="0 0 1198.17 236.4"><defs><style>.b{fill:#c2c1a5;}.c{fill:#f5f9e9;}</style></defs><path class="c" d="M197.07,57.86c-.84,0-1.62,.09-2.48,.11-1.16-20.99-18.49-37.65-39.77-37.65-7.5,0-14.5,2.12-20.52,5.72C124.68,11.31,108.04,1.54,89.12,1.54c-29.8,0-53.96,24.16-53.96,53.96,0,3.2,.32,6.34,.87,9.39C16.1,65.06,0,81.25,0,101.23s15.64,35.67,35.18,36.31v.06H194.71v-.11c.78,.06,1.54,.11,2.35,.11,22.03,0,39.88-17.85,39.88-39.88,.01-22-17.84-39.85-39.87-39.85h0Z"/><path class="c" d="M313.11,57.86c-.84,0-1.62,.09-2.48,.11-1.16-20.99-18.49-37.65-39.77-37.65-7.5,0-14.5,2.12-20.52,5.72-9.62-14.74-26.26-24.51-45.18-24.51-29.8,0-53.96,24.16-53.96,53.96,0,3.2,.32,6.34,.87,9.39-19.94,.17-36.04,16.36-36.04,36.34s15.64,35.67,35.18,36.31v.06h159.52v-.11c.78,.06,1.54,.11,2.35,.11,22.03,0,39.88-17.85,39.88-39.88,.01-22-17.84-39.85-39.87-39.85h0Z"/><path class="c" d="M614.28,124.35c-.84,0-1.62,.09-2.48,.11-1.16-20.99-18.49-37.65-39.77-37.65-7.5,0-14.5,2.12-20.52,5.72-9.62-14.74-26.26-24.51-45.18-24.51-29.8,0-53.96,24.16-53.96,53.96,0,3.2,.32,6.34,.87,9.39-19.94,.17-36.04,16.36-36.04,36.34s15.64,35.67,35.18,36.31v.06h159.52v-.11c.78,.06,1.54,.11,2.35,.11,22.03,0,39.88-17.85,39.88-39.88,.01-22-17.84-39.85-39.87-39.85h0Z"/><path class="c" d="M1198.17,177.56c0,32.5-26.33,58.84-58.83,58.84-1.19,0-2.31-.09-3.47-.17v.17h-235.31v-.09c-28.83-.93-51.89-24.52-51.89-53.55,0-12.14,4.03-23.32,10.82-32.3,4.43-5.86,10.04-10.78,16.48-14.41,7.65-4.32,16.46-6.82,25.86-6.9-.82-4.5-1.29-9.12-1.29-13.85,0-27.47,13.92-51.69,35.08-65.99,2.81-1.9,5.75-3.62,8.8-5.15,10.74-5.41,22.87-8.45,35.71-8.45,27.91,0,52.45,14.41,66.64,36.15,8.88-5.31,19.21-8.44,30.27-8.44,31.39,0,56.96,24.57,58.66,55.53,1.26-.03,2.42-.17,3.66-.17,32.5,0,58.83,26.34,58.81,58.78Z"/><path class="c" d="M896.19,125.16s-21.98,3.37-33.46,10.89h-85.48v-.05c-19.54-.64-35.18-16.63-35.18-36.31s16.1-36.17,36.04-36.34c-.55-3.05-.87-6.19-.87-9.39,0-29.8,24.16-53.96,53.95-53.96,18.92,0,35.56,9.77,45.18,24.51,6.02-3.6,13.03-5.72,20.52-5.72,16.22,0,30.15,9.67,36.36,23.56-11.62,8.5-42.45,38.42-37.06,82.81Z"/><path class="b" d="M900.54,115.3c0,4.73,.47,9.35,1.29,13.85-9.4,.08-18.21,2.58-25.86,6.9h-13.24c11.48-7.52,30.22-11.43,30.22-11.43-5.39-44.39,28.68-73.77,40.3-82.27,.28,.62,.54,1.25,.79,1.88,.64,1.64,1.17,3.34,1.58,5.08-21.16,14.3-35.08,38.52-35.08,65.99Z"/></svg>