<?xml version="1.0" encoding="UTF-8"?><svg id="a" xmlns="http://www.w3.org/2000/svg" viewBox="0 0 70.58 63.18"><defs><style>.b{fill:#f5f9e9;}</style></defs><path class="b" d="M5.37,23.97c.88-3.69,4.02-6.27,7.4-6.27s6.58,2.03,9.17,4.46C28.87,12.74,39.05,4.99,45.15,0c1.26,2.93,1.82,6.1,1.82,9.33,0,3.54-.7,8.55-1.84,11.98l-11.5,.85h36.95c-4.42,10.2-13.22,17.66-23.59,21.83,6.55,4.57,12,7.81,18.18,12.06-3.6,3.6-5.99,5.19-11.69,7.14-3.9-5.64-7.06-9.55-9.88-13.55-3.93,1.75-8.38,2.71-12.76,2.71-19.79,0-25.24-21.57-25.68-25.84-1.72-.28-3.44-.58-5.16-.81,1.82-.48,3.62-1.05,5.37-1.73Zm5.49,.21c.75,0,1.36-.61,1.36-1.36s-.61-1.36-1.36-1.36-1.36,.61-1.36,1.36,.61,1.36,1.36,1.36Z"/></svg>