<?xml version="1.0" encoding="UTF-8"?><svg id="a" xmlns="http://www.w3.org/2000/svg" viewBox="0 0 511.21 473.24"><defs><style>.b{fill:#f5f9e9;}</style></defs><path class="b" d="M468.08,418c-16.87,23.64-46.65,32.85-70.63,23.09-22.81-9.28-40.82-33.44-52.23-58.18-76.37,46.94-170.98,72.54-228.75,90.33-.49-24.45,4.71-48.59,14.02-71.47,10.22-25.11,29.66-58.68,47.69-79.69l84.1,27.21L0,242.54c60.86-59.6,144.86-87.12,230.49-86.78-33.26-51.36-62.57-90.11-94.18-138.12C172.26,2.49,193.82-1.93,239.92,.72c11.42,51.28,22.55,88.19,30.99,124.69,32.93-1.07,67.3,4.96,98.37,17.6,140.48,57.17,116.86,226.02,107.6,257.62,11.39,6.99,22.77,14.07,34.33,20.63-14.32-1.87-28.77-3-43.13-3.26Zm-38.35-17.37c-5.35-2.18-11.42,.4-13.59,5.73-2.18,5.35,.38,11.4,5.73,13.58,5.33,2.17,11.41-.36,13.59-5.72,2.17-5.33-.4-11.42-5.73-13.59Z"/></svg>