<?xml version="1.0" encoding="UTF-8"?><svg id="a" xmlns="http://www.w3.org/2000/svg" viewBox="0 0 229.54 455.67"><defs><style>.b{fill:#f5f9e9;}.b,.c{fill-rule:evenodd;}.d{opacity:.21;}</style></defs><path class="b" d="M193.48,76.81c-2.45,0-4.45-1.99-4.45-4.45s1.99-4.45,4.45-4.45,4.45,1.99,4.45,4.45-1.99,4.45-4.45,4.45h0Zm-52.54,8.82c-11.63,12.51-55.29,9.24-83.71,7.11-6.16-.46-12.36-.98-18.54-1.13-9.99,0-19.47,3.72-26.52,9.61C-.22,111.59,0,120.93,0,135.31,0,146.95,3.2,156.92,6.36,166.77c2.95,9.2,5.87,18.31,5.87,28.42v30.03c0,1.54,1.25,2.79,2.79,2.79h18.11c1.54,0,2.79-1.25,2.79-2.79v-31.54c0-3.43,1.79-9.26,4.48-14.88,1.83-3.83,4.07-7.52,6.44-10.25,2.02-2.31,3.99-3.83,5.61-3.83l.91,.2c14.31,6.84,32.01,3.34,46.57,.46,11.43-2.26,20.68-4.09,22.73-.18l1.49,2.8c3,5.57,5.45,10.12,5.47,16.97l.13,40.26c0,1.54,1.25,2.79,2.79,2.79h18.11c1.54,0,2.79-1.25,2.79-2.79v-43.48c0-3.21,.8-8.82,2.49-13.59,1.11-3.14,2.55-5.81,4.25-6.85,8.99-5.51,15.43-12.67,19.75-21.25,5.61-11.15,5.29-17.6,6.96-29.26,.15-3.19,.61-6.24,1.76-8.35,.89-1.63,2.34-2.68,4.65-2.61l25.95,.78c2.82,.08,5.25-1.59,7.04-4.13,1.24-1.77,2.2-3.99,2.74-6.26,.54-2.29,.68-4.71,.29-6.85-.53-2.87-1.99-5.27-4.64-6.44-6.95-3.08-12.48-7.2-17.77-11.16-3.73-2.79-7.35-5.49-11.45-7.83-1.34-.76-2.72-1.46-4.14-2.07l8.55-16.04,12.56-6.97c.85-.48,1.48-1.22,1.81-2.06l10.08-25.17c.84-2.1-.18-4.5-2.29-5.34-2.11-.84-4.5,.18-5.34,2.29l-4.21,10.51L195.94,1.3c-1.85-1.31-4.41-.88-5.72,.96-1.31,1.85-.88,4.41,.96,5.72l18.17,12.95-2.19,5.46-8.52,4.74-3.93-8.22c-.97-2.04-3.43-2.91-5.47-1.93-2.04,.97-2.91,3.43-1.93,5.47l4.92,10.28-8.97,16.83c-1.61-.22-3.23-.28-4.84-.17-1.15,.08-2.29,.25-3.42,.51l-9.15-17.17,4.92-10.28c.97-2.05,.11-4.5-1.93-5.47-2.04-.98-4.49-.11-5.47,1.93l-3.93,8.22-8.53-4.74-2.19-5.46,18.17-12.95c1.85-1.31,2.28-3.88,.96-5.72-1.31-1.85-3.88-2.28-5.73-.96l-16.55,11.79-4.21-10.51c-.84-2.11-3.24-3.13-5.34-2.29-2.1,.84-3.13,3.24-2.29,5.34l10.08,25.17c.34,.84,.96,1.58,1.82,2.06l12.56,6.97,9.29,17.44c-1.24,.86-2.45,1.89-3.64,3.08-5.07,5.12-9.24,9.89-13.49,14.75-2.95,3.37-5.94,6.8-9.41,10.52Z"/><g class="d"><path class="c" d="M193.48,378.86c-2.45,0-4.45,1.99-4.45,4.45s1.99,4.45,4.45,4.45,4.45-1.99,4.45-4.45-1.99-4.45-4.45-4.45h0Zm-52.54-8.82c-11.63-12.51-55.29-9.24-83.71-7.11-6.16,.46-12.36,.98-18.54,1.13-9.99,0-19.47-3.72-26.52-9.61C-.22,344.08,0,334.74,0,320.36c0-11.64,3.2-21.61,6.36-31.46,2.95-9.2,5.87-18.31,5.87-28.42v-30.03c0-1.54,1.25-2.79,2.79-2.79h18.11c1.54,0,2.79,1.25,2.79,2.79v31.54c0,3.43,1.79,9.26,4.48,14.88,1.83,3.83,4.07,7.52,6.44,10.25,2.02,2.31,3.99,3.83,5.61,3.83l.91-.2c14.31-6.84,32.01-3.34,46.57-.46,11.43,2.26,20.68,4.09,22.73,.18l1.49-2.8c3-5.57,5.45-10.12,5.47-16.97l.13-40.26c0-1.54,1.25-2.79,2.79-2.79h18.11c1.54,0,2.79,1.25,2.79,2.79v43.48c0,3.21,.8,8.82,2.49,13.59,1.11,3.14,2.55,5.81,4.25,6.85,8.99,5.51,15.43,12.67,19.75,21.25,5.61,11.15,5.29,17.6,6.96,29.26,.15,3.19,.61,6.24,1.76,8.35,.89,1.63,2.34,2.68,4.65,2.61l25.95-.78c2.82-.08,5.25,1.59,7.04,4.13,1.24,1.77,2.2,3.99,2.74,6.26,.54,2.29,.68,4.71,.29,6.85-.53,2.87-1.99,5.27-4.64,6.44-6.95,3.08-12.48,7.2-17.77,11.16-3.73,2.79-7.35,5.49-11.45,7.83-1.34,.76-2.72,1.46-4.14,2.07l8.55,16.04,12.56,6.97c.85,.48,1.48,1.22,1.81,2.06l10.08,25.17c.84,2.1-.18,4.5-2.29,5.34-2.11,.84-4.5-.18-5.34-2.29l-4.21-10.51-16.55,11.79c-1.85,1.31-4.41,.88-5.72-.96-1.31-1.85-.88-4.41,.96-5.72l18.17-12.95-2.19-5.46-8.52-4.74-3.93,8.22c-.97,2.04-3.43,2.91-5.47,1.93-2.04-.97-2.91-3.43-1.93-5.47l4.92-10.28-8.97-16.83c-1.61,.22-3.23,.28-4.84,.17-1.15-.08-2.29-.25-3.42-.51l-9.15,17.17,4.92,10.28c.97,2.05,.11,4.5-1.93,5.47-2.04,.98-4.49,.11-5.47-1.93l-3.93-8.22-8.53,4.74-2.19,5.46,18.17,12.95c1.85,1.31,2.28,3.88,.96,5.72-1.31,1.85-3.88,2.28-5.73,.96l-16.55-11.79-4.21,10.51c-.84,2.11-3.24,3.13-5.34,2.29-2.1-.84-3.13-3.24-2.29-5.34l10.08-25.17c.34-.84,.96-1.58,1.82-2.06l12.56-6.97,9.29-17.44c-1.24-.86-2.45-1.89-3.64-3.08-5.07-5.12-9.24-9.89-13.49-14.75-2.95-3.37-5.94-6.8-9.41-10.52Z"/></g></svg>