<?xml version="1.0" encoding="UTF-8"?><svg id="a" xmlns="http://www.w3.org/2000/svg" viewBox="0 0 129.34 259.67"><defs><style>.b{fill:#f5f9e9;}.c{opacity:.21;}</style></defs><g transform="translate(-263.13504,-404.80161)"><path class="b" d="M32.77,130.11c1.11-.55,7.01-6.59,11.02-11.29,3.23-3.78,7.8-9.35,8.52-10.37l.4-.57,6.1,.97c6.99,1.11,11.48,1.68,16.29,2.07l3.38,.27,4.33,4.28c2.38,2.35,4.33,4.35,4.33,4.45s-.71,.39-1.57,.66c-3.65,1.15-6.71,3.27-7.41,5.15-.47,1.24-.35,2.76,.28,3.56l.57,.72h20.1c22.19,0,21.06,.09,21.53-1.72,.14-.54,.09-1.74-.14-3.15-.48-3.01-.22-3.89,2.09-7.13,4.31-6.03,6.41-12.43,6.74-20.52,.43-10.61-2.8-21.32-9.08-30.1-7.24-10.11-17.76-16.24-31.33-18.23-10.4-1.53-24.25-.87-37.22,1.78-2.92,.6-5.96,1.26-6.75,1.47l-1.43,.38-1.81-1.95c-4.13-4.46-7.47-9.64-7.47-11.58,0-1.19,1.04-3.44,2.99-6.46,4.28-6.64,5.31-10.94,5.29-22.22-.01-7.19-.19-9.26-.89-10.12-.7-.87-1.69-.51-3.65,1.34-1.68,1.59-6.63,7.39-7.67,8.98-.32,.49-.64,.88-.71,.88-.07,0-.17-1.87-.21-4.15-.08-4.49-.33-5.93-1.18-6.78-.78-.78-1.49-.48-3.28,1.41-4.43,4.68-8.25,12.57-9.01,18.64-.29,2.31-.27,3.21,.17,6.93,.28,2.35,.56,5.76,.63,7.57l.12,3.3-1.59,1.34c-3.11,2.61-7.88,7.63-9.41,9.93C2.69,54.53,.76,59.22,.16,63.61c-.88,6.47,1.69,9.13,10.1,10.48,3.73,.6,4.86,1.16,6.27,3.09,1.16,1.58,2.66,4.62,4.2,8.52,2.45,6.16,3.94,8.62,7.28,11.94,2.1,2.09,2.13,2.15,2.13,3.5s-1.78,7.22-4.13,13.57c-1.29,3.46-1.89,4.15-5.05,5.78-3.87,1.99-6.09,4.56-6.09,7.07,0,.94,.17,1.31,.93,2.07l.93,.93h7.59c6.31-.01,7.74-.08,8.45-.44h0Z"/></g><g class="c" transform="translate(-263.13504,-404.80161)"><path d="M32.77,129.56c1.11,.55,7.01,6.59,11.02,11.29,3.23,3.78,7.8,9.35,8.52,10.37l.4,.57,6.1-.97c6.99-1.11,11.48-1.68,16.29-2.07l3.38-.27,4.33-4.28c2.38-2.35,4.33-4.35,4.33-4.45s-.71-.39-1.57-.66c-3.65-1.15-6.71-3.27-7.41-5.15-.47-1.24-.35-2.76,.28-3.56l.57-.72h20.1c22.19,0,21.06-.09,21.53,1.72,.14,.54,.09,1.74-.14,3.15-.48,3.01-.22,3.89,2.09,7.13,4.31,6.03,6.41,12.43,6.74,20.52,.43,10.61-2.8,21.32-9.08,30.1-7.24,10.11-17.76,16.24-31.33,18.23-10.4,1.53-24.25,.87-37.22-1.78-2.92-.6-5.96-1.26-6.75-1.47l-1.43-.38-1.81,1.95c-4.13,4.46-7.47,9.64-7.47,11.58,0,1.19,1.04,3.44,2.99,6.46,4.28,6.64,5.31,10.94,5.29,22.22-.01,7.19-.19,9.26-.89,10.12-.7,.87-1.69,.51-3.65-1.34-1.68-1.59-6.63-7.39-7.67-8.98-.32-.49-.64-.88-.71-.88-.07,0-.17,1.87-.21,4.15-.08,4.49-.33,5.93-1.18,6.78-.78,.78-1.49,.48-3.28-1.41-4.43-4.68-8.25-12.57-9.01-18.64-.29-2.31-.27-3.21,.17-6.93,.28-2.35,.56-5.76,.63-7.57l.12-3.3-1.59-1.34c-3.11-2.61-7.88-7.63-9.41-9.93-3.13-4.69-5.06-9.38-5.66-13.77-.88-6.47,1.69-9.13,10.1-10.48,3.73-.6,4.86-1.16,6.27-3.09,1.16-1.58,2.66-4.62,4.2-8.52,2.45-6.16,3.94-8.62,7.28-11.94,2.1-2.09,2.13-2.15,2.13-3.5s-1.78-7.22-4.13-13.57c-1.29-3.46-1.89-4.15-5.05-5.78-3.87-1.99-6.09-4.56-6.09-7.07,0-.94,.17-1.31,.93-2.07l.93-.93h7.59c6.31,.01,7.74,.08,8.45,.44h0Z"/></g></svg>