<?xml version="1.0" encoding="utf-8"?>
<!-- Generator: Adobe Illustrator 26.2.1, SVG Export Plug-In . SVG Version: 6.00 Build 0)  -->
<svg version="1.1" id="a" xmlns="http://www.w3.org/2000/svg" xmlns:xlink="http://www.w3.org/1999/xlink" x="0px" y="0px"
	 viewBox="0 0 129.4 259.6" style="enable-background:new 0 0 129.4 259.6;" xml:space="preserve">
<style type="text/css">
	.st0{fill:#F5F9E9;}
	.st1{opacity:0.21;}
</style>
<g transform="translate(-263.13504,-404.80161)">
	<path class="st0" d="M295.9,534.9c1.1-0.5,7-6.6,11-11.3c3.2-3.8,7.8-9.3,8.5-10.4l0.4-0.6l6.1,1c7,1.1,11.5,1.7,16.3,2.1l3.4,0.3
		l4.3,4.3c2.4,2.3,4.3,4.3,4.3,4.5c0,0.1-0.7,0.4-1.6,0.7c-3.6,1.2-6.7,3.3-7.4,5.2c-0.5,1.2-0.4,2.8,0.3,3.6l0.6,0.7h20.1
		c22.2,0,21.1,0.1,21.5-1.7c0.1-0.5,0.1-1.7-0.1-3.2c-0.5-3-0.2-3.9,2.1-7.1c4.3-6,6.4-12.4,6.7-20.5c0.4-10.6-2.8-21.3-9.1-30.1
		c-7.2-10.1-17.8-16.2-31.3-18.2c-10.4-1.5-24.2-0.9-37.2,1.8c-2.9,0.6-6,1.3-6.8,1.5l-1.4,0.4l-1.8-2c-4.1-4.5-7.5-9.6-7.5-11.6
		c0-1.2,1-3.4,3-6.5c4.3-6.6,5.3-10.9,5.3-22.2c0-7.2-0.2-9.3-0.9-10.1c-0.7-0.9-1.7-0.5-3.7,1.3c-1.7,1.6-6.6,7.4-7.7,9
		c-0.3,0.5-0.6,0.9-0.7,0.9c-0.1,0-0.2-1.9-0.2-4.1c-0.1-4.5-0.3-5.9-1.2-6.8c-0.8-0.8-1.5-0.5-3.3,1.4c-4.4,4.7-8.2,12.6-9,18.6
		c-0.3,2.3-0.3,3.2,0.2,6.9c0.3,2.4,0.6,5.8,0.6,7.6l0.1,3.3l-1.6,1.3c-3.1,2.6-7.9,7.6-9.4,9.9c-3.1,4.7-5.1,9.4-5.7,13.8
		c-0.9,6.5,1.7,9.1,10.1,10.5c3.7,0.6,4.9,1.2,6.3,3.1c1.2,1.6,2.7,4.6,4.2,8.5c2.4,6.2,3.9,8.6,7.3,11.9c2.1,2.1,2.1,2.1,2.1,3.5
		c0,1.3-1.8,7.2-4.1,13.6c-1.3,3.5-1.9,4.2-5.1,5.8c-3.9,2-6.1,4.6-6.1,7.1c0,0.9,0.2,1.3,0.9,2.1l0.9,0.9h7.6
		C293.8,535.4,295.2,535.3,295.9,534.9L295.9,534.9L295.9,534.9z"/>
</g>
<g transform="translate(-263.13504,-404.80161)" class="st1">
	<path d="M295.9,534.4c1.1,0.5,7,6.6,11,11.3c3.2,3.8,7.8,9.3,8.5,10.4l0.4,0.6l6.1-1c7-1.1,11.5-1.7,16.3-2.1l3.4-0.3l4.3-4.3
		c2.4-2.3,4.3-4.3,4.3-4.5c0-0.1-0.7-0.4-1.6-0.7c-3.6-1.2-6.7-3.3-7.4-5.2c-0.5-1.2-0.4-2.8,0.3-3.6l0.6-0.7h20.1
		c22.2,0,21.1-0.1,21.5,1.7c0.1,0.5,0.1,1.7-0.1,3.2c-0.5,3-0.2,3.9,2.1,7.1c4.3,6,6.4,12.4,6.7,20.5c0.4,10.6-2.8,21.3-9.1,30.1
		c-7.2,10.1-17.8,16.2-31.3,18.2c-10.4,1.5-24.2,0.9-37.2-1.8c-2.9-0.6-6-1.3-6.8-1.5l-1.4-0.4l-1.8,2c-4.1,4.5-7.5,9.6-7.5,11.6
		c0,1.2,1,3.4,3,6.5c4.3,6.6,5.3,10.9,5.3,22.2c0,7.2-0.2,9.3-0.9,10.1c-0.7,0.9-1.7,0.5-3.7-1.3c-1.7-1.6-6.6-7.4-7.7-9
		c-0.3-0.5-0.6-0.9-0.7-0.9c-0.1,0-0.2,1.9-0.2,4.1c-0.1,4.5-0.3,5.9-1.2,6.8c-0.8,0.8-1.5,0.5-3.3-1.4c-4.4-4.7-8.2-12.6-9-18.6
		c-0.3-2.3-0.3-3.2,0.2-6.9c0.3-2.4,0.6-5.8,0.6-7.6l0.1-3.3l-1.6-1.3c-3.1-2.6-7.9-7.6-9.4-9.9c-3.1-4.7-5.1-9.4-5.7-13.8
		c-0.9-6.5,1.7-9.1,10.1-10.5c3.7-0.6,4.9-1.2,6.3-3.1c1.2-1.6,2.7-4.6,4.2-8.5c2.4-6.2,3.9-8.6,7.3-11.9c2.1-2.1,2.1-2.2,2.1-3.5
		c0-1.4-1.8-7.2-4.1-13.6c-1.3-3.5-1.9-4.2-5.1-5.8c-3.9-2-6.1-4.6-6.1-7.1c0-0.9,0.2-1.3,0.9-2.1l0.9-0.9h7.6
		C293.8,533.9,295.2,534,295.9,534.4L295.9,534.4L295.9,534.4L295.9,534.4L295.9,534.4z"/>
</g>
</svg>
