<?xml version="1.0" encoding="UTF-8"?><svg id="a" xmlns="http://www.w3.org/2000/svg" viewBox="0 0 575.13 906.58"><defs><style>.b,.c{fill:#f5f9e9;}.b,.d{fill-rule:evenodd;}.e{opacity:.21;}</style></defs><path class="c" d="M570.98,18.52c-.68-2.85-3.11-4.84-5.72-4.84s-5.08,1.57-7.09,3.45c-5.35-7.28-13.21-13.27-17.93-17.13-.97,2.26-1.41,4.72-1.41,7.21,0,2.73,.54,6.61,1.42,9.25l8.89,.65h-28.55c3.42,7.88,10.22,13.64,18.22,16.86-5.06,3.53-9.27,6.04-14.04,9.32,2.78,2.78,4.63,4.01,9.03,5.52,3.01-4.35,5.46-7.38,7.63-10.46,3.03,1.35,6.47,2.09,9.85,2.09,15.29,0,19.5-16.66,19.84-19.97,1.33-.22,2.66-.45,3.99-.62-1.41-.37-2.8-.81-4.15-1.33Zm-4.24,.16c-.58,0-1.05-.47-1.05-1.05s.47-1.05,1.05-1.05,1.05,.47,1.05,1.05-.47,1.05-1.05,1.05Z"/><g class="e"><path class="d" d="M290.41,875.67c-.99,0-1.79,.8-1.79,1.79s.8,1.79,1.79,1.79,1.79-.8,1.79-1.79-.8-1.79-1.79-1.79h0Zm-21.14-3.55c-4.68-5.03-22.25-3.72-33.68-2.86-2.48,.18-4.97,.39-7.46,.46-4.02,0-7.84-1.5-10.67-3.87-4.99-4.17-4.9-7.93-4.9-13.71,0-4.68,1.29-8.7,2.56-12.66,1.19-3.7,2.36-7.37,2.36-11.43v-12.08c0-.62,.5-1.12,1.12-1.12h7.28c.62,0,1.12,.5,1.12,1.12v12.69c0,1.38,.72,3.73,1.8,5.99,.74,1.54,1.64,3.03,2.59,4.12,.81,.93,1.61,1.54,2.26,1.54l.37-.08c5.76-2.75,12.88-1.34,18.74-.19,4.6,.91,8.32,1.65,9.15,.07l.6-1.12c1.21-2.24,2.19-4.07,2.2-6.83l.05-16.2c0-.62,.5-1.12,1.12-1.12h7.29c.62,0,1.12,.5,1.12,1.12v17.49c0,1.29,.32,3.55,1,5.47,.45,1.26,1.03,2.34,1.71,2.76,3.62,2.22,6.21,5.1,7.95,8.55,2.26,4.48,2.13,7.08,2.8,11.77,.06,1.28,.24,2.51,.71,3.36,.36,.66,.94,1.08,1.87,1.05l10.44-.31c1.14-.03,2.11,.64,2.83,1.66,.5,.71,.88,1.61,1.1,2.52,.22,.92,.27,1.9,.12,2.76-.21,1.16-.8,2.12-1.87,2.59-2.79,1.24-5.02,2.9-7.15,4.49-1.5,1.12-2.96,2.21-4.61,3.15-.54,.31-1.1,.59-1.66,.83l3.44,6.45,5.06,2.81c.34,.19,.59,.49,.73,.83l4.05,10.13c.34,.85-.07,1.81-.92,2.15-.85,.34-1.81-.07-2.15-.92l-1.69-4.23-6.66,4.75c-.74,.53-1.78,.35-2.3-.39-.53-.74-.35-1.78,.39-2.3l7.31-5.21-.88-2.2-3.43-1.91-1.58,3.31c-.39,.82-1.38,1.17-2.2,.78s-1.17-1.38-.78-2.2l1.98-4.14-3.61-6.77c-.65,.09-1.3,.11-1.95,.07-.46-.03-.92-.1-1.38-.21l-3.68,6.91,1.98,4.14c.39,.82,.04,1.81-.78,2.2-.82,.39-1.81,.04-2.2-.78l-1.58-3.31-3.43,1.91-.88,2.2,7.31,5.21c.74,.53,.92,1.56,.39,2.3-.53,.74-1.56,.92-2.31,.39l-6.66-4.75-1.69,4.23c-.34,.85-1.3,1.26-2.15,.92-.85-.34-1.26-1.3-.92-2.15l4.05-10.13c.13-.34,.39-.64,.73-.83l5.05-2.81,3.74-7.02c-.5-.35-.99-.76-1.46-1.24-2.04-2.06-3.72-3.98-5.43-5.94-1.19-1.36-2.39-2.74-3.78-4.23Z"/></g><g class="e" transform="translate(-263.13504,-404.80161)"><path d="M437.84,814.87c-.45,.22-2.82,2.65-4.43,4.54-1.3,1.52-3.14,3.76-3.43,4.17l-.16,.23-2.45-.39c-2.81-.45-4.62-.67-6.55-.83l-1.36-.11-1.74-1.72c-.96-.95-1.74-1.75-1.74-1.79s.28-.16,.63-.27c1.47-.46,2.7-1.32,2.98-2.07,.19-.5,.14-1.11-.11-1.43l-.23-.29h-8.09c-8.93,0-8.47-.04-8.66,.69-.06,.22-.04,.7,.05,1.27,.19,1.21,.09,1.56-.84,2.87-1.73,2.43-2.58,5-2.71,8.26-.17,4.27,1.13,8.58,3.65,12.11,2.91,4.07,7.15,6.53,12.61,7.34,4.18,.62,9.76,.35,14.98-.71,1.18-.24,2.4-.51,2.71-.59l.58-.15,.73,.78c1.66,1.8,3.01,3.88,3.01,4.66,0,.48-.42,1.38-1.2,2.6-1.72,2.67-2.14,4.4-2.13,8.94,0,2.89,.08,3.73,.36,4.07,.28,.35,.68,.2,1.47-.54,.68-.64,2.67-2.97,3.08-3.61,.13-.2,.26-.36,.29-.36,.03,0,.07,.75,.09,1.67,.03,1.81,.13,2.39,.47,2.73,.32,.32,.6,.19,1.32-.57,1.78-1.88,3.32-5.06,3.63-7.5,.12-.93,.11-1.29-.07-2.79-.11-.95-.23-2.32-.25-3.05l-.05-1.33,.64-.54c1.25-1.05,3.17-3.07,3.79-4,1.26-1.89,2.04-3.77,2.28-5.54,.35-2.6-.68-3.67-4.06-4.22-1.5-.24-1.95-.46-2.52-1.24-.46-.64-1.07-1.86-1.69-3.43-.98-2.48-1.59-3.47-2.93-4.8-.84-.84-.86-.86-.86-1.41s.71-2.91,1.66-5.46c.52-1.39,.76-1.67,2.03-2.32,1.56-.8,2.45-1.83,2.45-2.84,0-.38-.07-.53-.37-.83l-.37-.37h-3.06c-2.54,0-3.11,.03-3.4,.18h0Z"/></g><path class="b" d="M290.41,754.14c-.99,0-1.79-.8-1.79-1.79s.8-1.79,1.79-1.79,1.79,.8,1.79,1.79-.8,1.79-1.79,1.79h0Zm-21.14,3.55c-4.68,5.03-22.25,3.72-33.68,2.86-2.48-.18-4.97-.39-7.46-.46-4.02,0-7.84,1.5-10.67,3.87-4.99,4.17-4.9,7.93-4.9,13.71,0,4.68,1.29,8.7,2.56,12.66,1.19,3.7,2.36,7.37,2.36,11.43v12.08c0,.62,.5,1.12,1.12,1.12h7.28c.62,0,1.12-.5,1.12-1.12v-12.69c0-1.38,.72-3.73,1.8-5.99,.74-1.54,1.64-3.03,2.59-4.12,.81-.93,1.61-1.54,2.26-1.54l.37,.08c5.76,2.75,12.88,1.34,18.74,.19,4.6-.91,8.32-1.65,9.15-.07l.6,1.12c1.21,2.24,2.19,4.07,2.2,6.83l.05,16.2c0,.62,.5,1.12,1.12,1.12h7.29c.62,0,1.12-.5,1.12-1.12v-17.49c0-1.29,.32-3.55,1-5.47,.45-1.26,1.03-2.34,1.71-2.76,3.62-2.22,6.21-5.1,7.95-8.55,2.26-4.48,2.13-7.08,2.8-11.77,.06-1.28,.24-2.51,.71-3.36,.36-.66,.94-1.08,1.87-1.05l10.44,.31c1.14,.03,2.11-.64,2.83-1.66,.5-.71,.88-1.61,1.1-2.52,.22-.92,.27-1.9,.12-2.76-.21-1.16-.8-2.12-1.87-2.59-2.79-1.24-5.02-2.9-7.15-4.49-1.5-1.12-2.96-2.21-4.61-3.15-.54-.31-1.1-.59-1.66-.83l3.44-6.45,5.06-2.81c.34-.19,.59-.49,.73-.83l4.05-10.13c.34-.85-.07-1.81-.92-2.15-.85-.34-1.81,.07-2.15,.92l-1.69,4.23-6.66-4.75c-.74-.53-1.78-.35-2.3,.39-.53,.74-.35,1.78,.39,2.3l7.31,5.21-.88,2.2-3.43,1.91-1.58-3.31c-.39-.82-1.38-1.17-2.2-.78s-1.17,1.38-.78,2.2l1.98,4.14-3.61,6.77c-.65-.09-1.3-.11-1.95-.07-.46,.03-.92,.1-1.38,.21l-3.68-6.91,1.98-4.14c.39-.82,.04-1.81-.78-2.2-.82-.39-1.81-.04-2.2,.78l-1.58,3.31-3.43-1.91-.88-2.2,7.31-5.21c.74-.53,.92-1.56,.39-2.3-.53-.74-1.56-.92-2.31-.39l-6.66,4.75-1.69-4.23c-.34-.85-1.3-1.26-2.15-.92-.85,.34-1.26,1.3-.92,2.15l4.05,10.13c.13,.34,.39,.64,.73,.83l5.05,2.81,3.74,7.02c-.5,.35-.99,.76-1.46,1.24-2.04,2.06-3.72,3.98-5.43,5.94-1.19,1.36-2.39,2.74-3.78,4.23Z"/><g transform="translate(-263.13504,-404.80161)"><path class="c" d="M437.84,815.09c-.45-.22-2.82-2.65-4.43-4.54-1.3-1.52-3.14-3.76-3.43-4.17l-.16-.23-2.45,.39c-2.81,.45-4.62,.67-6.55,.83l-1.36,.11-1.74,1.72c-.96,.95-1.74,1.75-1.74,1.79s.28,.16,.63,.27c1.47,.46,2.7,1.32,2.98,2.07,.19,.5,.14,1.11-.11,1.43l-.23,.29h-8.09c-8.93,0-8.47,.04-8.66-.69-.06-.22-.04-.7,.05-1.27,.19-1.21,.09-1.56-.84-2.87-1.73-2.43-2.58-5-2.71-8.26-.17-4.27,1.13-8.58,3.65-12.11,2.91-4.07,7.15-6.53,12.61-7.34,4.18-.62,9.76-.35,14.98,.71,1.18,.24,2.4,.51,2.71,.59l.58,.15,.73-.78c1.66-1.8,3.01-3.88,3.01-4.66,0-.48-.42-1.38-1.2-2.6-1.72-2.67-2.14-4.4-2.13-8.94,0-2.89,.08-3.73,.36-4.07,.28-.35,.68-.2,1.47,.54,.68,.64,2.67,2.97,3.08,3.61,.13,.2,.26,.36,.29,.36,.03,0,.07-.75,.09-1.67,.03-1.81,.13-2.39,.47-2.73,.32-.32,.6-.19,1.32,.57,1.78,1.88,3.32,5.06,3.63,7.5,.12,.93,.11,1.29-.07,2.79-.11,.95-.23,2.32-.25,3.05l-.05,1.33,.64,.54c1.25,1.05,3.17,3.07,3.79,4,1.26,1.89,2.04,3.77,2.28,5.54,.35,2.6-.68,3.67-4.06,4.22-1.5,.24-1.95,.46-2.52,1.24-.46,.64-1.07,1.86-1.69,3.43-.98,2.48-1.59,3.47-2.93,4.8-.84,.84-.86,.86-.86,1.41s.71,2.91,1.66,5.46c.52,1.39,.76,1.67,2.03,2.32,1.56,.8,2.45,1.83,2.45,2.84,0,.38-.07,.53-.37,.83l-.37,.37h-3.06c-2.54,0-3.11-.03-3.4-.18h0Z"/></g><path class="e" d="M.88,843.84c-.41,2.25-1.19,1.52-.74,3.54,.12,.55,.45,1.09,.74,2.06,.3,1,1.21,2.65,1.5,3.64,.35,1.23,0,1.77,.31,3.02,.32,1.26,1.11,1.8,1.38,3.07,.17,.8,2.37,2.03,2.58,2.85,.35,1.37,2.03,2.5,3.33,3.49,1.39,1.06,3.12,4.26,4.1,5.75,.75,1.13,3.51,2.65,5.21,3.7,2.86,2.98,4.58,5.12,9.87,6.87,5.48,1.81,10.48,1.27,16.37,1.39,3.59,.07,7.05,0,10.64,0,3.17,0,4.93,1.19,8.06,.79,3.06-.39,4.72,.79,7.67,1.58,1.69,.45,3.81,.52,5.65,.53,1.01,0,2.33-.21,3.16,.25-.2,.42-.76-.06-1.23,.48-.47,.54,5.87,.58,8.8,.89,2.94,.31,4.35,2.24,6.45,2.62,2.1,.38,8.45,3.85,10.21,4.59,1,.42,4.45,1.82,7.77,3,1.31,.46,.44,.61,1.71,1.38,1.27,.77,4.81,1.41,5.72,1.71,.91,.31,3.59,.74,5.96,3.41,0,0,3.08,2.77,3.45,2,.26-.56,.24-1.89,.36-2.37,.05-.19,.12-.24,.24-.09,.81,.52,5.93,2.8,6.31,2.26,.37-.54-4.54-6.23-4.14-6.48,.39-.26,.82-.15,1.12-.5,0,0,2.09-1.61,2.43-1.95,.55-.57,2.34-2.14,2.34-2.14,0,0,1-2.14,1.16-3.43l.18-.94,.78-1.12c2.82-2.02,4.84-3.89,5.54-4.16,.7-.26,4.14-1.8,4.88-2.27,1.05-.67-.06-2.14-.95-2.5-.31-.3-.58-.66-.9-.85-2.21-1.26-2.68-.55-3.54-.65l-1.59,.17c-.59,.13-.72,.27-.98,.35-.72,.22-1.83,.71-2.62,1.05-.79,.33-3.4,2.19-3.93,2.47-.52,.28-1.97,.92-2.69,1.09-.72,.17-1.31,.06-1.31,.06,0,0,1.12-.72,1.44-.89s1.47-1.01,2.06-1.56c.59-.56,2.36-2.55,2.36-2.55,0,0,1.1-.45,1.41-.69,.46-.37,1.02-.87,1.02-.87,0,0-.24,0,.28,.28,.53,.28,.61,.22,.41-.34-.2-.56-.13-.33-.13-.33,0,0,.61-.7,1.05-1.28,.68-.91,.99-1.97,1-1.98,.15-.78-.46-.83-1.33,.17-.05,.11-.59,.73-.59,.73,0,0-.15,.21-.29-.07-.13-.28,.13-.36-.17-.56-1.09-.48-1.98-.79-2.66-.65-1.51,.3-2.36,1.36-3.57,2.14-2.32,1.51-2.84,2-3.71,2.47-1.01,.55-1.34,.57-1.64-1.87-.15-1.24,.32-1.91,.15-2.71-.11-.51-.28,1.06-.44,.57-.37-1.2-1.3-2.48-1.3-2.48l-.12,.64s-.58-.53-.97-.98c-1.06-1.26-.74,0-.91,.5,0,0,.25-.89-.97-2.03-.28,.57-1.16-.66-2.22-1.78-1.77-1.87-4.99-5.26-5.05-4.64-.19,1.8-.46,.09-.46,.09-2.08-1.48-5.18-5.69-7.35-7.86-.25-.26-.64-.25-.88-.1-.24,.16-.81,.05-2.13-1.01-.16-.22-.71-1.37-.87-1.58-.41-.55-1.76-.29-2.06-.89-.25-.49-.46-.98-.71-1.41-.77-1.36-1.36-1.6-2.12-3.06-.73-1.41-1.08-3.57-1.19-5.14-.35-4.86,.22-8.29,.62-10.79,.35-2.17,1.23-4.09,1.45-6.3,.16-1.61,.29-3.03,.89-4.57,.41-1.05,.83-1.82,1.2-2.87,.31-.88,1.46-2.39,2.26-2.89,1.24-.77,2.57-.23,4.03-.49,.34-.06,.28-.17,.97-.49l1.07-.18c.78-.36,1.31-1.07,1.48-1.47,.32-.76,0-.88-.71-1.04-.54-.12-1.94-.19-2.6-.22-1.43-.05-2.87,.28-4.18-.03-.24-.06-.59-.42-1.29-.46-1.02-.07-2.52,.03-3.12,.03-1.21,0-1.85,.08-3.06,.08-1.89,0-1.96-.26-3.72,.11-2.16,.46-5.11-.01-5.9,.52-.24,.16-.16,1.09-.61,1.64-.76,.91-.47,1.31-.85,1.54-.38,.23-.73-.82-.97-.23-.23,.59-1.81,3.75-2.57,5.23-.76,1.48-1.01,1.7-1.75,3.2-.41,.83-.9,1.57-.92,2.46,.44-2.02-.52,2.68-.37,2.46-.78,1.53-.25,.11-.87,1.72-1.18,3.04-.73,6.09-1.45,9.27-.29,1.3-1.2,2.42-1.5,3.73-.15,.64,.1,1.73-.24,2.28-.38,.64-2.1,1.25-2.78,1.78-1.12,.87-2.22,1.47-3.52,2.13-1.29,.66-2.18,1.71-3.54,2.26-1.38,.56-1.72,.25-3.22,.07-2.47-.29-4.5,.41-6.76,.57-2.54,.19-1.99-.37-2.6-.33l-1.48,.1c-1.23-.11-2.87,.61-4.11,.24-1.9-.56-1.89-3.46-2.81-4.82-2.29-3.41-7.07-7.34-8.77-8-1.84-.7-2.63-2.62-4.31-3.7-2.39-1.54-3.76-3.44-5.01-5.91-1.7-3.33-1.02-6.36,.49-9.49,.8-1.64,1.26-2.55,2.84-3.44,.75-.43,2.63,.1,3.45-.29,.43-.2,1.25-.71,1.61-.87,.97-.44,2.74-1.3,1.98-2.28-.95-1.23-3.21-.13-4.69-.49-1.52-.37-2.79,.2-4.45,.2-1.25,0-3.61-.13-4.45,.67-.52,.49-.63,.78-.85,1.37-.23,.64-.31,1.46-.79,2.06-.36,.45-1.11,1.27-1.27,1.68-.26,.7,.03,1.62-.31,2.26-.54,.99-2.11,2.51-2.65,3.68-.38,.82,.03,3.28-1.3,3.46,.11,1.3,.33,1.86-.35,2.7-.63,.79,1.24,1.69,1.74,2.54,.64,1.12,1.26,2,2.45,2.87,1.35,.99,2.74,2.28,4.56,3.45-3.5-1.16-7.21-3.26-9.51-5.8-2.05-2.27-4.06-4.9-4.47-7.76-.35-2.4-1.86-6.32,.02-7.6,.8-.54,1.65-.63,2.24-1.14,.42-.37,.82-1.22,1.32-1.93,.2-.28,.64-.57,.73-.82,.16-.43,.4-.93,.18-1.23-.19-.27-.9-.53-1.42-.67-.24-.07-.95,.03-1.26,0-1.54-.17-3.28-.14-4.75,.28-.86,.25-1.94,.6-2.77,.91-1.27,.47-1.11,.42-1.96,1.31,.49-.76,.39,1.42,.45,1.41-.08,1.16,.37,1.44,.28,2.59-.07,.8-.54,1.62-.6,2.49-.14,2.17-.81,5.01-.47,7.15,.24,1.5,1.57,1.97,2.4,3.35,.52,.87,1.08,1.67,1.78,2.48,.29,.34,1.16,2.91,3.36,5.75,2.45,3.17,4.9,5.32,5.16,6.16,.19,.23,2.08,1.73,2.75,3.28,.13,.31,.45,1.8,.13,1.88-.33,.08-.44-.74-.88-1.14-.79-.72-2.02-2.06-2.56-2.29,0-.04-.87-2.01-.89-2.08-.43-.5-2.28-1.38-2.99-2.76-1.43-2.77-3.72-4.17-4.43-5.97-.14-.35-1.4-.7-2.41-1.71-1.66-1.66-3.69-3.1-3.84-2.38-.16,.76,.08,2.59-.26,3.6-.26,.77-1.07,2.05-.96,2.66,.35,1.86,.84,2.58,.51,4.42Zm90.07-16.81c.49-.7,.68-4.7,.93-5.71,.14-.55,1.65-2.63,1.77-3.6,.13-1.09,2.71-2.85,2.71-2.85,0,0,.68,.41,.81,.71,.12,.3-.39,.8-.68,1.37-.27,.52-.43,1.62-.74,2.16-.66,1.12-.19,.81-.35,1.65s-.91-.21-1.68,1.13c-.19,.32-.17,.72-.32,1.15-.08,.21-.03,.75-.22,.87-.31,.19-.86-.05-.77,.27,.08,.29-.2,2.16-.09,2.51,.12,.36-.06,1.91-.37,2.77-1.02,2.84-1.14,6.23-1.61,5.59-.23-.31,.12-7.33,.62-8.03Z"/><path class="c" d="M.88,776.45c-.41-2.65-1.19-1.79-.74-4.16,.12-.65,.45-1.28,.74-2.43,.3-1.18,1.21-3.12,1.5-4.29,.35-1.45,0-2.08,.31-3.56,.32-1.48,1.11-2.12,1.38-3.61,.17-.94,2.37-2.39,2.58-3.35,.35-1.62,2.03-2.95,3.33-4.11,1.39-1.25,3.12-5.01,4.1-6.77,.75-1.33,3.51-3.12,5.21-4.36,2.86-3.51,4.58-6.03,9.87-8.08,5.48-2.13,10.48-1.5,16.37-1.64,3.59-.09,7.05,0,10.64,0,3.17,0,4.93-1.4,8.06-.93,3.06,.46,4.72-.93,7.67-1.86,1.69-.53,3.81-.62,5.65-.63,1.01,0,2.33,.25,3.16-.3-.2-.5-.76,.08-1.23-.56-.47-.64,5.87-.68,8.8-1.05,2.94-.36,4.35-2.64,6.45-3.09,2.1-.45,8.45-4.53,10.21-5.4,1-.5,4.45-2.14,7.77-3.53,1.31-.55,.44-.71,1.71-1.62,1.27-.91,4.81-1.66,5.72-2.02,.91-.36,3.59-.87,5.96-4.01,0,0,3.08-3.26,3.45-2.35,.26,.66,.24,2.22,.36,2.79,.05,.22,.12,.29,.24,.11,.81-.61,5.93-3.3,6.31-2.66,.37,.64-4.54,7.33-4.14,7.63,.39,.3,.82,.17,1.12,.59,0,0,2.09,1.89,2.43,2.3,.55,.67,2.34,2.52,2.34,2.52,0,0,1,2.52,1.16,4.03l.18,1.1,.78,1.31c2.82,2.38,4.84,4.58,5.54,4.89,.7,.31,4.14,2.12,4.88,2.67,1.05,.79-.06,2.52-.95,2.95-.31,.35-.58,.78-.9,1-2.21,1.49-2.68,.65-3.54,.77l-1.59-.2c-.59-.15-.72-.32-.98-.41-.72-.26-1.83-.84-2.62-1.23-.79-.39-3.4-2.58-3.93-2.9-.52-.33-1.97-1.08-2.69-1.28-.72-.2-1.31-.07-1.31-.07,0,0,1.12,.85,1.44,1.05s1.47,1.19,2.06,1.84c.59,.66,2.36,3.01,2.36,3.01,0,0,1.1,.53,1.41,.82,.46,.44,1.02,1.02,1.02,1.02,0,0-.24,0,.28-.33,.53-.33,.61-.25,.41,.4-.2,.66-.13,.39-.13,.39,0,0,.61,.82,1.05,1.51,.68,1.08,.99,2.32,1,2.34,.15,.92-.46,.98-1.33-.2-.05-.13-.59-.85-.59-.85,0,0-.15-.24-.29,.08-.13,.33,.13,.43-.17,.66-1.09,.56-1.98,.93-2.66,.77-1.51-.36-2.36-1.6-3.57-2.52-2.32-1.78-2.84-2.35-3.71-2.9-1.01-.65-1.34-.67-1.64,2.21-.15,1.46,.32,2.25,.15,3.19-.11,.6-.28-1.25-.44-.67-.37,1.41-1.3,2.92-1.3,2.92l-.12-.75s-.58,.62-.97,1.15c-1.06,1.48-.74,0-.91-.59,0,0,.25,1.05-.97,2.4-.28-.67-1.16,.78-2.22,2.1-1.77,2.2-4.99,6.19-5.05,5.46-.19-2.12-.46-.1-.46-.1-2.08,1.74-5.18,6.69-7.35,9.26-.25,.3-.64,.3-.88,.12-.24-.19-.81-.06-2.13,1.19-.16,.25-.71,1.61-.87,1.86-.41,.65-1.76,.34-2.06,1.04-.25,.58-.46,1.15-.71,1.66-.77,1.61-1.36,1.88-2.12,3.6-.73,1.66-1.08,4.2-1.19,6.05-.35,5.72,.22,9.76,.62,12.7,.35,2.56,1.23,4.82,1.45,7.42,.16,1.9,.29,3.57,.89,5.38,.41,1.24,.83,2.14,1.2,3.38,.31,1.04,1.46,2.82,2.26,3.4,1.24,.91,2.57,.27,4.03,.57,.34,.07,.28,.2,.97,.58l1.07,.21c.78,.43,1.31,1.27,1.48,1.73,.32,.89,0,1.03-.71,1.22-.54,.14-1.94,.23-2.6,.26-1.43,.06-2.87-.33-4.18,.03-.24,.07-.59,.49-1.29,.54-1.02,.08-2.52-.03-3.12-.03-1.21,0-1.85-.1-3.06-.1-1.89,0-1.96,.31-3.72-.13-2.16-.54-5.11,.02-5.9-.61-.24-.19-.16-1.28-.61-1.93-.76-1.08-.47-1.54-.85-1.81-.38-.27-.73,.97-.97,.27-.23-.69-1.81-4.42-2.57-6.16-.76-1.74-1.01-2-1.75-3.77-.41-.98-.9-1.85-.92-2.9,.44,2.38-.52-3.16-.37-2.9-.78-1.81-.25-.14-.87-2.02-1.18-3.58-.73-7.17-1.45-10.92-.29-1.53-1.2-2.85-1.5-4.39-.15-.76,.1-2.04-.24-2.69-.38-.75-2.1-1.47-2.78-2.1-1.12-1.02-2.22-1.73-3.52-2.51-1.29-.77-2.18-2.01-3.54-2.66-1.38-.66-1.72-.29-3.22-.09-2.47,.35-4.5-.48-6.76-.68-2.54-.22-1.99,.44-2.6,.39l-1.48-.11c-1.23,.13-2.87-.71-4.11-.29-1.9,.65-1.89,4.08-2.81,5.67-2.29,4.01-7.07,8.64-8.77,9.41-1.84,.83-2.63,3.08-4.31,4.36-2.39,1.81-3.76,4.05-5.01,6.95-1.7,3.92-1.02,7.49,.49,11.17,.8,1.93,1.26,3,2.84,4.06,.75,.5,2.63-.12,3.45,.34,.43,.24,1.25,.84,1.61,1.03,.97,.52,2.74,1.53,1.98,2.69-.95,1.45-3.21,.16-4.69,.58-1.52,.43-2.79-.24-4.45-.24-1.25,0-3.61,.15-4.45-.79-.52-.58-.63-.92-.85-1.61-.23-.76-.31-1.72-.79-2.42-.36-.53-1.11-1.49-1.27-1.98-.26-.83,.03-1.91-.31-2.66-.54-1.17-2.11-2.96-2.65-4.33-.38-.97,.03-3.86-1.3-4.08,.11-1.53,.33-2.18-.35-3.17-.63-.93,1.24-1.98,1.74-2.99,.64-1.32,1.26-2.35,2.45-3.38,1.35-1.17,2.74-2.69,4.56-4.06-3.5,1.36-7.21,3.84-9.51,6.83-2.05,2.68-4.06,5.77-4.47,9.14-.35,2.83-1.86,7.45,.02,8.94,.8,.64,1.65,.74,2.24,1.34,.42,.43,.82,1.44,1.32,2.28,.2,.33,.64,.67,.73,.97,.16,.51,.4,1.09,.18,1.45-.19,.31-.9,.62-1.42,.79-.24,.08-.95-.04-1.26,0-1.54,.2-3.28,.16-4.75-.33-.86-.29-1.94-.71-2.77-1.07-1.27-.55-1.11-.49-1.96-1.54,.49,.89,.39-1.67,.45-1.66-.08-1.37,.37-1.7,.28-3.05-.07-.94-.54-1.9-.6-2.93-.14-2.56-.81-5.9-.47-8.42,.24-1.76,1.57-2.32,2.4-3.94,.52-1.03,1.08-1.97,1.78-2.92,.29-.4,1.16-3.42,3.36-6.77,2.45-3.74,4.9-6.27,5.16-7.25,.19-.27,2.08-2.03,2.75-3.87,.13-.36,.45-2.12,.13-2.21-.33-.1-.44,.87-.88,1.34-.79,.85-2.02,2.42-2.56,2.69,0,.05-.87,2.37-.89,2.45-.43,.59-2.28,1.62-2.99,3.25-1.43,3.26-3.72,4.91-4.43,7.03-.14,.42-1.4,.83-2.41,2.02-1.66,1.95-3.69,3.65-3.84,2.8-.16-.9,.08-3.04-.26-4.23-.26-.91-1.07-2.42-.96-3.13,.35-2.19,.84-3.04,.51-5.2Zm90.07,19.79c.49,.83,.68,5.53,.93,6.72,.14,.64,1.65,3.1,1.77,4.24,.13,1.29,2.71,3.36,2.71,3.36,0,0,.68-.49,.81-.84,.12-.36-.39-.94-.68-1.61-.27-.61-.43-1.91-.74-2.54-.66-1.32-.19-.96-.35-1.95s-.91,.24-1.68-1.33c-.19-.38-.17-.85-.32-1.35-.08-.25-.03-.88-.22-1.03-.31-.23-.86,.06-.77-.32,.08-.34-.2-2.54-.09-2.96,.12-.42-.06-2.25-.37-3.27-1.02-3.34-1.14-7.33-1.61-6.58-.23,.37,.12,8.63,.62,9.46Z"/></svg>