<?xml version="1.0" encoding="UTF-8"?><svg id="a" xmlns="http://www.w3.org/2000/svg" viewBox="0 0 539.05 309.52"><defs><style>.b{fill:#f5f9e9;}</style></defs><path id="nuage" class="b" d="M448.34,128.12c-1.91,0-3.69,.21-5.63,.26-2.64-47.75-42.06-85.65-90.48-85.65-17.05,0-32.99,4.83-46.69,13.02C283.65,22.22,245.81,0,202.76,0c-67.79,0-122.75,54.95-122.75,122.75,0,7.29,.72,14.42,1.99,21.37C36.63,144.5,0,181.35,0,226.79s35.58,81.15,80.04,82.6v.13H442.96v-.26c1.78,.13,3.51,.26,5.35,.26,50.12,0,90.74-40.61,90.74-90.74,.03-50.04-40.59-90.66-90.71-90.66h0Z"/></svg>