<?xml version="1.0" encoding="UTF-8"?><svg id="a" xmlns="http://www.w3.org/2000/svg" viewBox="0 0 540.79 484.02"><defs><style>.b{fill:#f5f9e9;}</style></defs><path id="oiseau" class="b" d="M41.14,184.51c6.64-28.27,30.7-48.09,56.59-48.16,24.63-.07,50.45,15.45,70.4,34.02C220.98,97.97,298.81,38.38,345.51,0c9.73,22.43,14.08,46.74,14.14,71.45,.07,27.11-5.18,65.55-13.89,91.83l-88.14,6.73,283.17-.75c-33.7,78.24-100.98,135.57-180.33,167.74,50.26,34.9,92.08,59.63,139.54,92.06-27.51,27.66-45.79,39.93-89.45,54.96-30.02-43.12-54.32-73.04-75.98-103.61-30.06,13.48-64.15,20.95-97.69,21.04-151.67,.4-193.88-164.79-197.3-197.53-13.19-2.15-26.4-4.38-39.59-6.07,13.96-3.7,27.75-8.14,41.14-13.35Zm42.07,1.52c5.78-.02,10.42-4.71,10.4-10.46-.02-5.78-4.68-10.4-10.46-10.39-5.75,.02-10.42,4.67-10.4,10.44,.02,5.75,4.71,10.42,10.46,10.4Z"/></svg>