<?xml version="1.0" encoding="UTF-8"?><svg id="a" xmlns="http://www.w3.org/2000/svg" viewBox="0 0 1921.22 457.14"><defs><style>.b{opacity:.21;}.c{fill:#36453b;}</style></defs><path class="b" d="M524.2,387.49c-.01-.24-.04-.48-.09-.71-.53-2.98-3.24-5.15-6.34-4.96-13.35,.88-26.86,1.32-40.49,1.32s-27.13-.44-40.49-1.32c-3.1-.19-5.8,1.98-6.34,4.96-.05,.23-.07,.47-.09,.71-.21,3.34,2.33,6.22,5.67,6.43,7.69,.51,15.35,.87,22.96,1.1,.9,4.79,1.75,9.63,2.55,14.51,1.35,8.28,2.54,16.59,3.57,24.93h24.34c1.02-8.35,2.22-16.67,3.57-24.94,.79-4.87,1.63-9.71,2.53-14.5h.01c7.62-.23,15.27-.6,22.97-1.1,3.33-.2,5.88-3.09,5.67-6.43Z"/><path class="b" d="M672.53,272.09c-.2-3.33-3.09-5.88-6.43-5.67-4.08,.27-8.18,.49-12.29,.67-9.33,.43-18.74,.65-28.2,.65-13.63,0-27.13-.45-40.49-1.32-1.8-.11-3.46,.57-4.64,1.75-1.03,1.01-1.69,2.38-1.79,3.92-.21,3.34,2.33,6.22,5.67,6.43,7.69,.51,15.35,.87,22.96,1.1,.9,4.79,1.75,9.63,2.55,14.51,1.34,8.28,2.54,16.59,3.57,24.93h24.34c.57-4.66,1.2-9.32,1.88-13.96,.53-3.67,1.09-7.33,1.69-10.98,.59-3.69,1.22-7.37,1.88-11.02,.22-1.16,.43-2.32,.65-3.48h.01c.56-.02,1.12-.03,1.68-.06,7.06-.23,14.16-.58,21.29-1.04,2.44-.14,4.46-1.74,5.28-3.9,.31-.78,.45-1.64,.39-2.53Zm-12.14,137.17l21.62-28.05h-14.37c-2.01,0-3.65-1.63-3.65-3.65,0-.92,.34-1.76,.91-2.41l35.59-48.81h-149.75l35.78,49.09c1.18,1.62,.83,3.89-.79,5.07-.65,.46-1.4,.69-2.14,.71h-14.38l33.48,43.42c1.22,1.59,.93,3.88-.66,5.1-.66,.52-1.44,.76-2.22,.77h-18.29l4.59,6.94h79l4.59-6.94h-18.29c-2.01,0-3.65-1.63-3.65-3.64,0-.94,.36-1.8,.94-2.44l11.69-15.16Z"/><path class="b" d="M701.08,421.01l11.98,16.43h125.79l11.98-16.43h-149.75Zm121.79-54.25c-.04-.63-.17-1.23-.39-1.78-.91-2.41-3.33-4.06-6.04-3.89-13.35,.87-26.86,1.32-40.49,1.32s-27.13-.45-40.49-1.32c-3.34-.21-6.22,2.33-6.43,5.67-.02,.36-.01,.72,.03,1.07,.32,2.86,2.66,5.17,5.64,5.36,7.69,.51,15.35,.87,22.96,1.1,.9,4.79,1.75,9.63,2.55,14.51,1.35,8.28,2.54,16.59,3.57,24.93h24.34c1.02-8.35,2.22-16.67,3.57-24.94,.79-4.87,1.63-9.71,2.53-14.5h.01c7.62-.23,15.27-.6,22.97-1.1,3.33-.2,5.88-3.09,5.67-6.43Z"/><path class="b" d="M62.47,396.73c0-.13-.02-.25-.04-.37h0c-.38-3.16-3.17-5.5-6.39-5.3-13.35,.87-26.86,1.32-40.49,1.32-5.2,0-10.39-.07-15.55-.2v27.8c.94,5.8,1.8,11.62,2.58,17.46H28.52c.83-6.25,1.76-12.48,2.77-18.68,.79-4.87,1.63-9.72,2.53-14.5h.01c7.62-.23,15.27-.6,22.97-1.1,3.34-.2,5.88-3.09,5.67-6.43Z"/><path class="b" d="M1472.36,422.23c-.06-.96-.34-1.86-.79-2.64-1.11-1.93-3.26-3.18-5.64-3.03-13.35,.87-26.86,1.32-40.49,1.32s-27.13-.45-40.49-1.32c-2.38-.15-4.52,1.09-5.63,3.03-.46,.78-.74,1.68-.8,2.64-.21,3.34,2.33,6.22,5.67,6.43,7.69,.51,15.35,.87,22.96,1.1,.48,2.55,.95,5.11,1.4,7.68h33.77c.45-2.57,.92-5.13,1.4-7.68,7.62-.23,15.27-.6,22.97-1.1,3.34-.2,5.88-3.09,5.67-6.43Z"/><path class="b" d="M1920,372.86v-11.78h-52.16l9.81,13.45,25.98,35.63c1.17,1.63,.82,3.9-.8,5.07-.65,.47-1.4,.7-2.14,.72h-14.38l16.57,21.49h17.12v-62.91h1.22l-1.22-1.67Zm-17.78-71.7c-2.37-.15-4.51,1.09-5.63,3.02-.46,.78-.74,1.68-.8,2.65-.21,3.34,2.33,6.22,5.67,6.43,6.2,.41,12.39,.73,18.54,.95v-12.15c-5.96-.21-11.88-.52-17.78-.9Z"/><path class="c" d="M495.55,378.55c-.9-4.79-1.75-9.63-2.54-14.5-1.35-8.27-2.55-16.59-3.57-24.94h-24.34c-1.03,8.34-2.22,16.65-3.57,24.93-.8,4.88-1.64,9.72-2.55,14.51-7.62,.23-15.27,.59-22.96,1.1-3.34,.21-5.88,3.09-5.67,6.43s3.09,5.88,6.43,5.67c13.36-.87,26.87-1.32,40.49-1.32s27.14,.45,40.49,1.32c3.34,.21,6.23-2.34,6.43-5.67,.21-3.34-2.34-6.23-5.67-6.43-7.7-.5-15.36-.87-22.97-1.1h0Zm25.82-150.88l-44.09-66.71-44.09,66.71h18.29c.78,0,1.56,.26,2.22,.77,1.59,1.23,1.88,3.51,.66,5.1l-33.48,43.43h14.38c.74,.02,1.49,.25,2.14,.71,1.62,1.18,1.98,3.45,.8,5.07l-35.78,49.08h149.75l-35.58-48.81c-.57-.65-.91-1.49-.91-2.41,0-2.01,1.63-3.65,3.65-3.65h14.37l-33.3-43.21c-.58-.65-.94-1.5-.94-2.44,0-2.01,1.63-3.65,3.65-3.65h18.29Z"/><path class="c" d="M645.3,263.14c-.9-4.79-1.75-9.63-2.54-14.5-1.35-8.27-2.55-16.59-3.57-24.94h-24.34c-1.03,8.34-2.22,16.65-3.57,24.93-.8,4.88-1.64,9.72-2.55,14.51-7.62,.23-15.27,.59-22.96,1.1-3.34,.21-5.88,3.09-5.67,6.43s3.09,5.88,6.43,5.67c13.36-.87,26.87-1.32,40.49-1.32s27.14,.45,40.49,1.32c3.34,.21,6.23-2.34,6.43-5.67,.21-3.34-2.34-6.23-5.67-6.43-7.7-.5-15.36-.87-22.97-1.1h0Zm25.82-150.88l-44.09-66.71-44.09,66.71h18.29c.78,0,1.56,.26,2.22,.77,1.59,1.23,1.88,3.51,.66,5.1l-33.48,43.43h14.38c.74,.02,1.49,.25,2.14,.71,1.62,1.18,1.98,3.45,.8,5.07l-35.78,49.08h149.75l-35.58-48.81c-.57-.65-.91-1.49-.91-2.41,0-2.01,1.63-3.65,3.65-3.65h14.37l-33.3-43.21c-.58-.65-.94-1.5-.94-2.44,0-2.01,1.63-3.65,3.65-3.65h18.29Z"/><path class="c" d="M1125.22,454.05l-2.39,3.09h4.64l-2.25-3.09Zm-34.25-48.13c0-2.01,1.63-3.65,3.65-3.65h14.37l-33.31-43.2c-.58-.65-.94-1.5-.94-2.44,0-2.02,1.64-3.65,3.65-3.65h18.29l-44.09-66.71-44.09,66.71h18.29c.78,.01,1.56,.26,2.22,.77,1.59,1.23,1.88,3.51,.66,5.1l-33.48,43.43h14.38c.74,.01,1.49,.24,2.13,.71,1.63,1.18,1.98,3.44,.8,5.07l-21.42,29.38h121.03l-21.23-29.11c-.57-.64-.91-1.49-.91-2.41Z"/><path class="c" d="M843.57,404.49h149.74l-35.58-48.81c-.57-.64-.91-1.49-.91-2.41,0-2.01,1.63-3.64,3.64-3.64h14.37l-33.3-43.21c-.58-.65-.94-1.5-.94-2.44,0-2.01,1.63-3.65,3.65-3.65h18.29l-44.09-66.71-44.1,66.71h18.29c.78,0,1.56,.26,2.23,.77,1.58,1.23,1.88,3.51,.65,5.1l-33.47,43.43h14.37c.74,.02,1.49,.24,2.14,.71,1.62,1.18,1.98,3.45,.8,5.07l-35.78,49.08Zm90.6,32.22c-1.35-8.27-2.54-16.58-3.57-24.93h-24.34c-1.02,8.34-2.22,16.64-3.57,24.93-.04,.24-.08,.49-.12,.73h31.72c-.04-.24-.08-.49-.12-.73Z"/><path class="c" d="M684.94,416.55h-24.34c-.57,4.66-1.2,9.31-1.88,13.95-.33,2.32-.68,4.63-1.05,6.94h30.2c-1.09-6.94-2.07-13.91-2.93-20.89Zm27.13-56.1c-.57-.64-.91-1.49-.91-2.41,0-2.01,1.63-3.64,3.65-3.64h14.36l-33.3-43.21c-.58-.65-.94-1.5-.94-2.44,0-2.01,1.64-3.65,3.65-3.65h18.29l-5.37-8.12-38.72-58.59-16.64,25.17-2.33,3.53-5.48,8.3-2.76,4.17-2.34,3.54-14.54,22h18.29c.78,.01,1.55,.26,2.22,.77,1.58,1.23,1.88,3.51,.65,5.1l-11.85,15.37-21.62,28.06h14.38c.74,.01,1.49,.24,2.13,.71,1.63,1.18,1.98,3.45,.8,5.07l-35.78,49.08h149.74l-35.58-48.81Z"/><path class="c" d="M793.86,358.5c-.9-4.79-1.75-9.63-2.54-14.5-1.35-8.27-2.55-16.59-3.57-24.94h-24.34c-1.03,8.34-2.22,16.65-3.57,24.93-.8,4.88-1.64,9.72-2.55,14.51-7.62,.23-15.27,.59-22.96,1.1-3.34,.21-5.88,3.09-5.67,6.43s3.09,5.88,6.43,5.67c13.36-.87,26.87-1.32,40.49-1.32s27.14,.45,40.49,1.32c3.34,.21,6.23-2.34,6.43-5.67,.21-3.34-2.34-6.23-5.67-6.43-7.7-.5-15.36-.87-22.97-1.1h0Zm25.82-150.88l-44.09-66.71-44.09,66.71h18.29c.78,0,1.56,.26,2.22,.77,1.59,1.23,1.88,3.51,.66,5.1l-33.48,43.43h14.38c.74,.02,1.49,.25,2.14,.71,1.62,1.18,1.98,3.45,.8,5.07l-35.78,49.08h149.75l-35.58-48.81c-.57-.65-.91-1.49-.91-2.41,0-2.01,1.63-3.65,3.65-3.65h14.37l-33.3-43.21c-.58-.65-.94-1.5-.94-2.44,0-2.01,1.63-3.65,3.65-3.65h18.29Z"/><path class="c" d="M234.51,433.06h149.75l-35.59-48.81c-.57-.65-.91-1.49-.91-2.41,0-2.02,1.63-3.65,3.65-3.65h14.37l-33.31-43.21c-.58-.64-.94-1.5-.94-2.44,0-2.01,1.64-3.64,3.65-3.64h18.29l-44.09-66.71-44.09,66.71h18.29c.78,.01,1.56,.25,2.22,.76,1.59,1.23,1.88,3.52,.66,5.1l-33.48,43.43h14.38c.74,.02,1.49,.25,2.13,.71,1.63,1.18,1.98,3.45,.8,5.07l-35.78,49.09Z"/><path class="c" d="M1483.89,430.82h149.75l-35.58-48.81c-.57-.65-.92-1.49-.92-2.41,0-2.02,1.64-3.65,3.65-3.65h14.37l-33.3-43.21c-.58-.64-.94-1.5-.94-2.44,0-2.01,1.63-3.64,3.64-3.64h18.29l-29.52-44.67-14.57-22.04-9.41,14.24-34.68,52.47h18.29c.78,.01,1.56,.25,2.22,.77,1.59,1.22,1.88,3.51,.66,5.1l-33.48,43.42h14.38c.74,.02,1.49,.25,2.14,.71,1.62,1.18,1.97,3.45,.79,5.07l-35.78,49.09Z"/><path class="c" d="M1443.72,409.41c-.9-4.79-1.75-9.63-2.54-14.5-1.35-8.27-2.55-16.59-3.57-24.94h-24.34c-1.03,8.34-2.22,16.65-3.57,24.93-.8,4.88-1.64,9.72-2.55,14.51-7.62,.23-15.27,.59-22.96,1.1-3.34,.21-5.88,3.09-5.67,6.43,.21,3.34,3.09,5.88,6.43,5.67,13.36-.87,26.87-1.32,40.49-1.32s27.14,.45,40.49,1.32c3.34,.21,6.23-2.34,6.43-5.67,.21-3.34-2.34-6.23-5.67-6.43-7.7-.5-15.36-.87-22.97-1.1h0Zm25.82-150.88l-44.09-66.71-44.09,66.71h18.29c.78,0,1.56,.26,2.22,.77,1.59,1.23,1.88,3.51,.66,5.1l-33.48,43.43h14.38c.74,.02,1.49,.25,2.14,.71,1.62,1.18,1.98,3.45,.8,5.07l-35.78,49.08h149.75l-35.58-48.81c-.57-.65-.91-1.49-.91-2.41,0-2.01,1.63-3.65,3.65-3.65h14.37l-33.3-43.21c-.58-.65-.94-1.5-.94-2.44,0-2.01,1.63-3.65,3.65-3.65h18.29Z"/><path class="c" d="M1243.14,437.44h121.02l-21.22-29.11c-.57-.64-.92-1.49-.92-2.41,0-2.01,1.64-3.65,3.65-3.65h14.37l-33.3-43.2c-.58-.65-.94-1.5-.94-2.44,0-2.02,1.63-3.65,3.64-3.65h18.29l-44.09-66.71-44.09,66.71h18.29c.78,.01,1.56,.26,2.22,.77,1.59,1.23,1.88,3.51,.66,5.1l-33.48,43.43h14.38c.74,.01,1.49,.24,2.14,.71,1.62,1.18,1.97,3.44,.8,5.07l-21.42,29.38Z"/><path class="c" d="M1901.46,295.11c-3.34,.21-5.88,3.08-5.67,6.43,.06,.96,.34,1.86,.8,2.64,1.11,1.94,3.25,3.18,5.63,3.03,5.9-.39,11.82-.69,17.78-.9v-12.15c-6.15,.22-12.34,.54-18.54,.95Zm-2.84-151.99h18.29c.78,.01,1.56,.26,2.22,.77,.36,.28,.65,.61,.87,.98v-34.1l-21.38,32.35Zm21.17,5.87l-27.75,35.99-5.73,7.44h14.38c.74,.02,1.49,.24,2.14,.71,.27,.2,.51,.43,.71,.68,.98,1.24,1.06,3.04,.09,4.39l-1.5,2.05-30.44,41.75-3.85,5.28h52.16v-98.59c-.06,.1-.13,.2-.21,.3Z"/><path class="c" d="M1920,372.86l-8.58-11.78-25.78-35.36c-.57-.65-.91-1.49-.91-2.41,0-2.02,1.63-3.65,3.64-3.65h14.37l-33.3-43.21c-.58-.64-.94-1.5-.94-2.44,0-2.01,1.63-3.64,3.64-3.64h18.3l-15.26-23.09-3.49-5.28-11.62-17.56-13.73-20.78-40.05,60.6-4.04,6.11h18.29c.78,.01,1.56,.25,2.22,.76,1.59,1.23,1.88,3.52,.66,5.1l-33.48,43.43h14.38c.74,.02,1.49,.25,2.14,.71,1.62,1.18,1.97,3.45,.8,5.07l-35.79,49.09h149.75l-1.22-1.67Zm-32.41,49.49c-7.7-.5-15.35-.87-22.97-1.1-.91-4.79-1.75-9.63-2.54-14.5-1.35-8.27-2.55-16.59-3.57-24.94h-24.34c-1.03,8.34-2.22,16.65-3.57,24.93-.8,4.88-1.64,9.72-2.55,14.51-7.61,.23-15.27,.59-22.96,1.1-3.34,.21-5.88,3.09-5.67,6.43,.21,3.34,3.09,5.88,6.43,5.67,13.36-.88,26.87-1.32,40.49-1.32s27.14,.44,40.49,1.32c3.35,.21,6.23-2.34,6.43-5.67,.21-3.34-2.33-6.23-5.67-6.43Z"/><path class="c" d="M1650.06,437.44h116.9l-19.16-26.29c-.57-.64-.91-1.49-.91-2.41,0-2.01,1.63-3.65,3.65-3.65h14.36l-33.3-43.2c-.58-.65-.94-1.5-.94-2.44,0-2.02,1.63-3.65,3.65-3.65h18.29l-28.13-42.56-15.96-24.15-15.51,23.47-28.58,43.24h18.29c.78,.01,1.55,.26,2.22,.77,1.58,1.23,1.88,3.51,.65,5.1l-33.47,43.42h14.38c.74,.02,1.49,.25,2.13,.72,1.63,1.17,1.98,3.44,.8,5.07l-19.36,26.56Z"/><path class="b" d="M146.92,338.51c-2.02,0-3.65-1.64-3.65-3.65,0-.92,.34-1.77,.91-2.41l16.26-22.31,19.32-26.5H30.02l35.78,49.08c1.18,1.63,.83,3.9-.8,5.07-.64,.47-1.39,.7-2.13,.72h-14.38l2.49,3.23,29.15,37.82,1.83,2.37c.56,.72,.8,1.59,.75,2.43-.05,1.02-.54,2.01-1.4,2.67-.67,.51-1.44,.76-2.22,.77h-18.29l16.48,24.94,16.33,24.7h22.56l32.81-49.64h-18.29c-2.01,0-3.65-1.63-3.65-3.65,0-.94,.36-1.79,.94-2.44l29.6-38.4,3.7-4.8h-14.36Zm4.89-109.12c-.04-.76-.23-1.48-.54-2.13-1-2.22-3.31-3.7-5.89-3.54-13.35,.87-26.86,1.32-40.49,1.32s-27.13-.45-40.49-1.32c-2.59-.16-4.89,1.31-5.9,3.53-.3,.66-.48,1.38-.53,2.14-.21,3.34,2.32,6.22,5.67,6.42,7.69,.52,15.34,.88,22.96,1.11,.9,4.78,1.75,9.63,2.54,14.51,1.35,8.28,2.55,16.59,3.57,24.92h24.34c1.03-8.34,2.23-16.66,3.57-24.93,.79-4.87,1.64-9.72,2.54-14.5h.01c7.61-.23,15.27-.6,22.97-1.11,3.33-.19,5.88-3.08,5.67-6.42Z"/><path class="c" d="M1195.31,419.38c0-2.01,1.63-3.65,3.64-3.65h18.29l-26.79-40.54-16.15-24.43-1.15-1.74-44.09,66.71h18.29c.78,.01,1.56,.26,2.22,.77,1.59,1.23,1.88,3.52,.66,5.1l-12.21,15.84h70.27l-12.04-15.62c-.58-.64-.94-1.5-.94-2.44Zm-72.48,37.76h4.64l-2.25-3.09-2.39,3.09Z"/><path class="c" d="M172.13,390.42c-.57-.65-.92-1.49-.92-2.41,0-2.01,1.64-3.65,3.65-3.65h14.37l-31.65-41.05-1.65-2.15c-.58-.65-.94-1.51-.94-2.45,0-.07,0-.14,.01-.2,.1-1.92,1.69-3.44,3.63-3.44h18.29l-16.48-24.93-17.51-26.5-10.1-15.28-10.1,15.28-33.99,51.43h18.29c.78,.01,1.56,.25,2.22,.77,1.59,1.22,1.88,3.51,.66,5.1l-29.78,38.62-3.7,4.8h14.38c.74,.02,1.49,.25,2.14,.71,1.62,1.18,1.97,3.45,.8,5.08l-16.47,22.59-18.01,24.7H206.41l-34.28-47.02Z"/><path class="c" d="M54.85,292.93c-.57-.64-.92-1.49-.92-2.41,0-2.01,1.64-3.65,3.65-3.65h14.37l-2.49-3.23-30.81-39.97c-.58-.65-.94-1.5-.94-2.44,0-2.02,1.63-3.65,3.64-3.65h18.29l-21.88-33.1-6.33-9.58-6.02-9.11-9.86-14.92L0,194.4v147.34H90.43l-35.58-48.81Zm1.95,96.63c-7.7-.5-15.35-.87-22.97-1.1h-.01c-.9-4.78-1.74-9.63-2.53-14.5-1.35-8.27-2.55-16.59-3.57-24.94H3.38c-.98,7.93-2.1,15.84-3.38,23.72v27.8c5.16-.13,10.35-.2,15.55-.2,13.63,0,27.14,.45,40.49,1.32,3.22,.2,6.01-2.14,6.39-5.3h0c.02-.13,.03-.24,.04-.37,.21-3.34-2.33-6.23-5.67-6.43Z"/><path class="c" d="M123.16,217.59c-.9-4.79-1.75-9.63-2.54-14.5-1.35-8.27-2.55-16.59-3.57-24.94h-24.34c-1.03,8.34-2.22,16.65-3.57,24.93-.8,4.88-1.64,9.72-2.55,14.51-7.62,.23-15.27,.59-22.96,1.1-3.34,.21-5.88,3.09-5.67,6.43s3.09,5.88,6.43,5.67c13.36-.87,26.87-1.32,40.49-1.32s27.14,.45,40.49,1.32c3.34,.21,6.23-2.34,6.43-5.67,.21-3.34-2.34-6.23-5.67-6.43-7.7-.5-15.36-.87-22.97-1.1h0Zm25.82-150.88L104.89,0,60.8,66.71h18.29c.78,0,1.56,.26,2.22,.77,1.59,1.23,1.88,3.51,.66,5.1l-33.48,43.43h14.38c.74,.02,1.49,.25,2.14,.71,1.62,1.18,1.98,3.45,.8,5.07l-35.78,49.08H179.77l-35.58-48.81c-.57-.65-.91-1.49-.91-2.41,0-2.01,1.63-3.65,3.65-3.65h14.37l-33.3-43.21c-.58-.65-.94-1.5-.94-2.44,0-2.01,1.63-3.65,3.65-3.65h18.29Z"/></svg>