<?xml version="1.0" encoding="UTF-8"?><svg id="a" xmlns="http://www.w3.org/2000/svg" viewBox="0 0 1920.54 591.03"><defs><style>.b{opacity:.21;}.c{fill:#36453b;}</style></defs><path class="b" d="M391.47,265.5c-.9,4.79-1.75,9.63-2.54,14.5-1.35,8.27-2.55,16.59-3.57,24.94h-24.34c-1.03-8.34-2.22-16.65-3.57-24.93-.8-4.88-1.64-9.72-2.55-14.51-7.62-.23-15.27-.59-22.96-1.1-3.34-.21-5.88-3.09-5.67-6.43s3.09-5.88,6.43-5.67c13.36,.87,26.87,1.32,40.49,1.32s27.14-.45,40.49-1.32c3.34-.21,6.23,2.34,6.43,5.67,.21,3.34-2.34,6.23-5.67,6.43-7.7,.5-15.36,.87-22.97,1.1h0Zm25.82,150.88l-44.09,66.71-44.09-66.71h18.29c.78,0,1.56-.26,2.22-.77,1.59-1.23,1.88-3.51,.66-5.1l-33.48-43.43h14.38c.74-.02,1.49-.25,2.14-.71,1.62-1.18,1.98-3.45,.8-5.07l-35.78-49.08h149.75l-35.58,48.81c-.57,.65-.91,1.49-.91,2.41,0,2.01,1.63,3.65,3.65,3.65h14.37l-33.3,43.21c-.58,.65-.94,1.5-.94,2.44,0,2.01,1.63,3.65,3.65,3.65h18.29Z"/><path class="b" d="M1640,358.75c-.9,4.79-1.75,9.63-2.54,14.5-1.35,8.27-2.55,16.59-3.57,24.94h-24.34c-1.03-8.34-2.22-16.65-3.57-24.93-.8-4.88-1.64-9.72-2.55-14.51-7.62-.23-15.27-.59-22.96-1.1-3.34-.21-5.88-3.09-5.67-6.43,.21-3.34,3.09-5.88,6.43-5.67,13.36,.87,26.87,1.32,40.49,1.32s27.14-.45,40.49-1.32c3.34-.21,6.23,2.34,6.43,5.67,.21,3.34-2.34,6.23-5.67,6.43-7.7,.5-15.36,.87-22.97,1.1h0Zm25.82,150.88l-44.09,66.71-44.09-66.71h18.29c.78,0,1.56-.26,2.22-.77,1.59-1.23,1.88-3.51,.66-5.1l-33.48-43.43h14.38c.74-.02,1.49-.25,2.14-.71,1.62-1.18,1.98-3.45,.8-5.07l-35.78-49.08h149.75l-35.58,48.81c-.57,.65-.91,1.49-.91,2.41,0,2.01,1.63,3.65,3.65,3.65h14.37l-33.3,43.21c-.58,.65-.94,1.5-.94,2.44,0,2.01,1.63,3.65,3.65,3.65h18.29Z"/><path class="b" d="M1396.78,278.62c-.9,4.79-1.75,9.63-2.54,14.5-1.35,8.27-2.55,16.59-3.57,24.94h-24.34c-1.03-8.34-2.22-16.65-3.57-24.93-.8-4.88-1.64-9.72-2.55-14.51-7.62-.23-15.27-.59-22.96-1.1-3.34-.21-5.88-3.09-5.67-6.43,.21-3.34,3.09-5.88,6.43-5.67,13.36,.87,26.87,1.32,40.49,1.32s27.14-.45,40.49-1.32c3.34-.21,6.23,2.34,6.43,5.67,.21,3.34-2.34,6.23-5.67,6.43-7.7,.5-15.36,.87-22.97,1.1h0Zm25.82,150.88l-44.09,66.71-44.09-66.71h18.29c.78,0,1.56-.26,2.22-.77,1.59-1.23,1.88-3.51,.66-5.1l-33.48-43.43h14.38c.74-.02,1.49-.25,2.14-.71,1.62-1.18,1.98-3.45,.8-5.07l-35.78-49.08h149.75l-35.58,48.81c-.57,.65-.91,1.49-.91,2.41,0,2.01,1.63,3.65,3.65,3.65h14.37l-33.3,43.21c-.58,.65-.94,1.5-.94,2.44,0,2.01,1.63,3.65,3.65,3.65h18.29Z"/><path class="b" d="M1238.36,297.69c-.9,4.79-1.75,9.63-2.54,14.5-1.35,8.27-2.55,16.59-3.57,24.94h-24.34c-1.03-8.34-2.22-16.65-3.57-24.93-.8-4.88-1.64-9.72-2.55-14.51-7.62-.23-15.27-.59-22.96-1.1-3.34-.21-5.88-3.09-5.67-6.43,.21-3.34,3.09-5.88,6.43-5.67,13.36,.87,26.87,1.32,40.49,1.32s27.14-.45,40.49-1.32c3.34-.21,6.23,2.34,6.43,5.67,.21,3.34-2.34,6.23-5.67,6.43-7.7,.5-15.36,.87-22.97,1.1h0Zm25.82,150.88l-44.09,66.71-44.09-66.71h18.29c.78,0,1.56-.26,2.22-.77,1.59-1.23,1.88-3.51,.66-5.1l-33.48-43.43h14.38c.74-.02,1.49-.25,2.14-.71,1.62-1.18,1.98-3.45,.8-5.07l-35.78-49.08h149.75l-35.58,48.81c-.57,.65-.91,1.49-.91,2.41,0,2.01,1.63,3.65,3.65,3.65h14.37l-33.3,43.21c-.58,.65-.94,1.5-.94,2.44,0,2.01,1.63,3.65,3.65,3.65h18.29Z"/><path class="b" d="M953.7,265.1c-.9,4.79-1.75,9.63-2.54,14.5-1.35,8.27-2.55,16.59-3.57,24.94h-24.34c-1.03-8.34-2.22-16.65-3.57-24.93-.8-4.88-1.64-9.72-2.55-14.51-7.62-.23-15.27-.59-22.96-1.1-3.34-.21-5.88-3.09-5.67-6.43s3.09-5.88,6.43-5.67c13.36,.87,26.87,1.32,40.49,1.32s27.14-.45,40.49-1.32c3.34-.21,6.23,2.34,6.43,5.67,.21,3.34-2.34,6.23-5.67,6.43-7.7,.5-15.36,.87-22.97,1.1h0Zm25.82,150.88l-44.09,66.71-44.09-66.71h18.29c.78,0,1.56-.26,2.22-.77,1.59-1.23,1.88-3.51,.66-5.1l-33.48-43.43h14.38c.74-.02,1.49-.25,2.14-.71,1.62-1.18,1.98-3.45,.8-5.07l-35.78-49.08h149.75l-35.58,48.81c-.57,.65-.91,1.49-.91,2.41,0,2.01,1.63,3.65,3.65,3.65h14.37l-33.3,43.21c-.58,.65-.94,1.5-.94,2.44,0,2.01,1.63,3.65,3.65,3.65h18.29Z"/><path class="b" d="M765.92,253.57c-.9,4.79-1.75,9.63-2.54,14.5-1.35,8.27-2.55,16.59-3.57,24.94h-24.34c-1.03-8.34-2.22-16.65-3.57-24.93-.8-4.88-1.64-9.72-2.55-14.51-7.62-.23-15.27-.59-22.96-1.1-3.34-.21-5.88-3.09-5.67-6.43s3.09-5.88,6.43-5.67c13.36,.87,26.87,1.32,40.49,1.32s27.14-.45,40.49-1.32c3.34-.21,6.23,2.34,6.43,5.67,.21,3.34-2.34,6.23-5.67,6.43-7.7,.5-15.36,.87-22.97,1.1h0Zm25.82,150.88l-44.09,66.71-44.09-66.71h18.29c.78,0,1.56-.26,2.22-.77,1.59-1.23,1.88-3.51,.66-5.1l-33.48-43.43h14.38c.74-.02,1.49-.25,2.14-.71,1.62-1.18,1.98-3.45,.8-5.07l-35.78-49.08h149.75l-35.58,48.81c-.57,.65-.91,1.49-.91,2.41,0,2.01,1.63,3.65,3.65,3.65h14.37l-33.3,43.21c-.58,.65-.94,1.5-.94,2.44,0,2.01,1.63,3.65,3.65,3.65h18.29Z"/><path class="b" d="M557.28,284.38c-.9,4.79-1.75,9.63-2.54,14.5-1.35,8.27-2.55,16.59-3.57,24.94h-24.34c-1.03-8.34-2.22-16.65-3.57-24.93-.8-4.88-1.64-9.72-2.55-14.51-7.62-.23-15.27-.59-22.96-1.1-3.34-.21-5.88-3.09-5.67-6.43s3.09-5.88,6.43-5.67c13.36,.87,26.87,1.32,40.49,1.32s27.14-.45,40.49-1.32c3.34-.21,6.23,2.34,6.43,5.67,.21,3.34-2.34,6.23-5.67,6.43-7.7,.5-15.36,.87-22.97,1.1h0Zm25.82,150.88l-44.09,66.71-44.09-66.71h18.29c.78,0,1.56-.26,2.22-.77,1.59-1.23,1.88-3.51,.66-5.1l-33.48-43.43h14.38c.74-.02,1.49-.25,2.14-.71,1.62-1.18,1.98-3.45,.8-5.07l-35.78-49.08h149.75l-35.58,48.81c-.57,.65-.91,1.49-.91,2.41,0,2.01,1.63,3.65,3.65,3.65h14.37l-33.3,43.21c-.58,.65-.94,1.5-.94,2.44,0,2.01,1.63,3.65,3.65,3.65h18.29Z"/><path class="b" d="M1093.08,234.32c-.9,4.79-1.75,9.63-2.54,14.5-1.35,8.27-2.55,16.59-3.57,24.94h-24.34c-1.03-8.34-2.22-16.65-3.57-24.93-.8-4.88-1.64-9.72-2.55-14.51-7.62-.23-15.27-.59-22.96-1.1-3.34-.21-5.88-3.09-5.67-6.43,.21-3.34,3.09-5.88,6.43-5.67,13.36,.87,26.87,1.32,40.49,1.32s27.14-.45,40.49-1.32c3.34-.21,6.23,2.34,6.43,5.67,.21,3.34-2.34,6.23-5.67,6.43-7.7,.5-15.36,.87-22.97,1.1h0Zm25.82,150.88l-44.09,66.71-44.09-66.71h18.29c.78,0,1.56-.26,2.22-.77,1.59-1.23,1.88-3.51,.66-5.1l-33.48-43.43h14.38c.74-.02,1.49-.25,2.14-.71,1.62-1.18,1.98-3.45,.8-5.07l-35.78-49.08h149.75l-35.58,48.81c-.57,.65-.91,1.49-.91,2.41,0,2.01,1.63,3.65,3.65,3.65h14.37l-33.3,43.21c-.58,.65-.94,1.5-.94,2.44,0,2.01,1.63,3.65,3.65,3.65h18.29Z"/><path class="b" d="M93.14,235.53c-.9,4.79-1.75,9.63-2.54,14.5-1.35,8.27-2.55,16.59-3.57,24.94h-24.34c-1.03-8.34-2.22-16.65-3.57-24.93-.8-4.88-1.64-9.72-2.55-14.51-7.62-.23-15.27-.59-22.96-1.1-3.34-.21-5.88-3.09-5.67-6.43s3.09-5.88,6.43-5.67c13.36,.87,26.87,1.32,40.49,1.32s27.14-.45,40.49-1.32c3.34-.21,6.23,2.34,6.43,5.67,.21,3.34-2.34,6.23-5.67,6.43-7.7,.5-15.36,.87-22.97,1.1h0Zm25.82,150.88l-44.09,66.71-44.09-66.71h18.29c.78,0,1.56-.26,2.22-.77,1.59-1.23,1.88-3.51,.66-5.1l-33.48-43.43h14.38c.74-.02,1.49-.25,2.14-.71,1.62-1.18,1.98-3.45,.8-5.07L0,282.25H149.75l-35.58,48.81c-.57,.65-.91,1.49-.91,2.41,0,2.01,1.63,3.65,3.65,3.65h14.37l-33.3,43.21c-.58,.65-.94,1.5-.94,2.44,0,2.01,1.63,3.65,3.65,3.65h18.29Z"/><path class="b" d="M239.82,289.78c-.9,4.79-1.75,9.63-2.54,14.5-1.35,8.27-2.55,16.59-3.57,24.94h-24.34c-1.03-8.34-2.22-16.65-3.57-24.93-.8-4.88-1.64-9.72-2.55-14.51-7.62-.23-15.27-.59-22.96-1.1-3.34-.21-5.88-3.09-5.67-6.43s3.09-5.88,6.43-5.67c13.36,.87,26.87,1.32,40.49,1.32s27.14-.45,40.49-1.32c3.34-.21,6.23,2.34,6.43,5.67,.21,3.34-2.34,6.23-5.67,6.43-7.7,.5-15.36,.87-22.97,1.1h0Zm25.82,150.88l-44.09,66.71-44.09-66.71h18.29c.78,0,1.56-.26,2.22-.77,1.59-1.23,1.88-3.51,.66-5.1l-33.48-43.43h14.38c.74-.02,1.49-.25,2.14-.71,1.62-1.18,1.98-3.45,.8-5.07l-35.78-49.08h149.75l-35.58,48.81c-.57,.65-.91,1.49-.91,2.41,0,2.01,1.63,3.65,3.65,3.65h14.37l-33.3,43.21c-.58,.65-.94,1.5-.94,2.44,0,2.01,1.63,3.65,3.65,3.65h18.29Z"/><path class="b" d="M40.48,360.25c-1.33,.09-2.66,.17-3.99,.25-12.05,.71-24.22,1.07-36.49,1.07v51.32H12.16c1.02-8.35,2.22-16.66,3.57-24.94,.79-4.87,1.63-9.71,2.54-14.5,7.62-.22,15.27-.59,22.97-1.1,1.28-.08,2.45-.55,3.38-1.3,1.46-1.15,2.37-2.96,2.29-4.96,.01-.06,0-.11,0-.17-.2-3.33-3.08-5.87-6.43-5.67ZM0,420.18v170.85l37.76-57.11,6.33-9.58H25.79c-2.01,0-3.64-1.64-3.64-3.65,0-.94,.36-1.79,.94-2.44l2.32-3.02,11.51-14.92,19.47-25.27h-14.37c-2.01,0-3.65-1.63-3.65-3.64,0-.92,.35-1.77,.92-2.41l17.17-23.55,6.99-9.6,11.42-15.66H0Z"/><path class="b" d="M1790.25,297.69c-.9,4.79-1.75,9.63-2.54,14.5-1.35,8.27-2.55,16.59-3.57,24.94h-24.34c-1.03-8.34-2.22-16.65-3.57-24.93-.8-4.88-1.64-9.72-2.55-14.51-7.62-.23-15.27-.59-22.96-1.1-3.34-.21-5.88-3.09-5.67-6.43,.21-3.34,3.09-5.88,6.43-5.67,13.36,.87,26.87,1.32,40.49,1.32s27.14-.45,40.49-1.32c3.34-.21,6.23,2.34,6.43,5.67,.21,3.34-2.34,6.23-5.67,6.43-7.7,.5-15.36,.87-22.97,1.1h0Zm25.82,150.88l-44.09,66.71-44.09-66.71h18.29c.78,0,1.56-.26,2.22-.77,1.59-1.23,1.88-3.51,.66-5.1l-33.48-43.43h14.38c.74-.02,1.49-.25,2.14-.71,1.62-1.18,1.98-3.45,.8-5.07l-35.78-49.08h149.75l-35.58,48.81c-.57,.65-.91,1.49-.91,2.41,0,2.01,1.63,3.65,3.65,3.65h14.37l-33.3,43.21c-.58,.65-.94,1.5-.94,2.44,0,2.01,1.63,3.65,3.65,3.65h18.29Z"/><path class="b" d="M1530.6,243.19c-.9,4.79-1.75,9.63-2.54,14.5-1.35,8.27-2.55,16.59-3.57,24.94h-24.34c-1.03-8.34-2.22-16.65-3.57-24.93-.8-4.88-1.64-9.72-2.55-14.51-7.62-.23-15.27-.59-22.96-1.1-3.34-.21-5.88-3.09-5.67-6.43,.21-3.34,3.09-5.88,6.43-5.67,13.36,.87,26.87,1.32,40.49,1.32s27.14-.45,40.49-1.32c3.34-.21,6.23,2.34,6.43,5.67,.21,3.34-2.34,6.23-5.67,6.43-7.7,.5-15.36,.87-22.97,1.1h0Zm25.82,150.88l-44.09,66.71-44.09-66.71h18.29c.78,0,1.56-.26,2.22-.77,1.59-1.23,1.88-3.51,.66-5.1l-33.48-43.43h14.38c.74-.02,1.49-.25,2.14-.71,1.62-1.18,1.98-3.45,.8-5.07l-35.78-49.08h149.75l-35.58,48.81c-.57,.65-.91,1.49-.91,2.41,0,2.01,1.63,3.65,3.65,3.65h14.37l-33.3,43.21c-.58,.65-.94,1.5-.94,2.44,0,2.01,1.63,3.65,3.65,3.65h18.29Z"/><path class="b" d="M1919.99,327.24c-13.62,0-27.13-.45-40.49-1.32-3.33-.21-6.2,2.31-6.42,5.63-.01,.03-.01,.07-.01,.1-.18,3.31,2.35,6.16,5.67,6.37,7.69,.51,15.35,.87,22.96,1.1,.91,4.78,1.75,9.63,2.55,14.51,.99,6.06,1.89,12.14,2.71,18.23,.3,2.23,.58,4.46,.86,6.7h12.18v-51.32h-.01Zm.01,147.07v-88.47h-74.88l35.79,49.08c1.17,1.63,.82,3.9-.8,5.08-.65,.46-1.4,.69-2.14,.71h-14.38l33.48,43.42c1.22,1.59,.93,3.88-.66,5.1-.66,.52-1.44,.76-2.22,.77h-18.29l16.14,24.42,4.92,7.44,2.69,4.08,2.48,3.75,17.86,27.02v-78.58c.74-1.18,.72-2.67,.01-3.82Z"/><path class="c" d="M391.48,247.56c-.9-4.79-1.75-9.63-2.54-14.5-1.35-8.27-2.55-16.59-3.57-24.94h-24.34c-1.03,8.34-2.22,16.65-3.57,24.93-.8,4.88-1.64,9.72-2.55,14.51-7.62,.23-15.27,.59-22.96,1.1-3.34,.21-5.88,3.09-5.67,6.43s3.09,5.88,6.43,5.67c13.36-.87,26.87-1.32,40.49-1.32s27.14,.45,40.49,1.32c3.34,.21,6.23-2.34,6.43-5.67,.21-3.34-2.34-6.23-5.67-6.43-7.7-.5-15.36-.87-22.97-1.1h0Zm25.82-150.88l-44.09-66.71-44.09,66.71h18.29c.78,0,1.56,.26,2.22,.77,1.59,1.23,1.88,3.51,.66,5.1l-33.48,43.43h14.38c.74,.02,1.49,.25,2.14,.71,1.62,1.18,1.98,3.45,.8,5.07l-35.78,49.08h149.75l-35.58-48.81c-.57-.65-.91-1.49-.91-2.41,0-2.01,1.63-3.65,3.65-3.65h14.37l-33.3-43.21c-.58-.65-.94-1.5-.94-2.44,0-2.01,1.63-3.65,3.65-3.65h18.29Z"/><path class="c" d="M1640,342.55c-.9-4.79-1.75-9.63-2.54-14.5-1.35-8.27-2.55-16.59-3.57-24.94h-24.34c-1.03,8.34-2.22,16.65-3.57,24.93-.8,4.88-1.64,9.72-2.55,14.51-7.62,.23-15.27,.59-22.96,1.1-3.34,.21-5.88,3.09-5.67,6.43,.21,3.34,3.09,5.88,6.43,5.67,13.36-.87,26.87-1.32,40.49-1.32s27.14,.45,40.49,1.32c3.34,.21,6.23-2.34,6.43-5.67,.21-3.34-2.34-6.23-5.67-6.43-7.7-.5-15.36-.87-22.97-1.1h0Zm25.82-150.88l-44.09-66.71-44.09,66.71h18.29c.78,0,1.56,.26,2.22,.77,1.59,1.23,1.88,3.51,.66,5.1l-33.48,43.43h14.38c.74,.02,1.49,.25,2.14,.71,1.62,1.18,1.98,3.45,.8,5.07l-35.78,49.08h149.75l-35.58-48.81c-.57-.65-.91-1.49-.91-2.41,0-2.01,1.63-3.65,3.65-3.65h14.37l-33.3-43.21c-.58-.65-.94-1.5-.94-2.44,0-2.01,1.63-3.65,3.65-3.65h18.29Z"/><path class="c" d="M1396.79,263.54c-.9-4.79-1.75-9.63-2.54-14.5-1.35-8.27-2.55-16.59-3.57-24.94h-24.34c-1.03,8.34-2.22,16.65-3.57,24.93-.8,4.88-1.64,9.72-2.55,14.51-7.62,.23-15.27,.59-22.96,1.1-3.34,.21-5.88,3.09-5.67,6.43,.21,3.34,3.09,5.88,6.43,5.67,13.36-.87,26.87-1.32,40.49-1.32s27.14,.45,40.49,1.32c3.34,.21,6.23-2.34,6.43-5.67,.21-3.34-2.34-6.23-5.67-6.43-7.7-.5-15.36-.87-22.97-1.1h0Zm25.82-150.88l-44.09-66.71-44.09,66.71h18.29c.78,0,1.56,.26,2.22,.77,1.59,1.23,1.88,3.51,.66,5.1l-33.48,43.43h14.38c.74,.02,1.49,.25,2.14,.71,1.62,1.18,1.98,3.45,.8,5.07l-35.78,49.08h149.75l-35.58-48.81c-.57-.65-.91-1.49-.91-2.41,0-2.01,1.63-3.65,3.65-3.65h14.37l-33.3-43.21c-.58-.65-.94-1.5-.94-2.44,0-2.01,1.63-3.65,3.65-3.65h18.29Z"/><path class="c" d="M1238.36,283.08c-.9-4.79-1.75-9.63-2.54-14.5-1.35-8.27-2.55-16.59-3.57-24.94h-24.34c-1.03,8.34-2.22,16.65-3.57,24.93-.8,4.88-1.64,9.72-2.55,14.51-7.62,.23-15.27,.59-22.96,1.1-3.34,.21-5.88,3.09-5.67,6.43,.21,3.34,3.09,5.88,6.43,5.67,13.36-.87,26.87-1.32,40.49-1.32s27.14,.45,40.49,1.32c3.34,.21,6.23-2.34,6.43-5.67,.21-3.34-2.34-6.23-5.67-6.43-7.7-.5-15.36-.87-22.97-1.1h0Zm25.82-150.88l-44.09-66.71-44.09,66.71h18.29c.78,0,1.56,.26,2.22,.77,1.59,1.23,1.88,3.51,.66,5.1l-33.48,43.43h14.38c.74,.02,1.49,.25,2.14,.71,1.62,1.18,1.98,3.45,.8,5.07l-35.78,49.08h149.75l-35.58-48.81c-.57-.65-.91-1.49-.91-2.41,0-2.01,1.63-3.65,3.65-3.65h14.37l-33.3-43.21c-.58-.65-.94-1.5-.94-2.44,0-2.01,1.63-3.65,3.65-3.65h18.29Z"/><path class="c" d="M953.71,247.56c-.9-4.79-1.75-9.63-2.54-14.5-1.35-8.27-2.55-16.59-3.57-24.94h-24.34c-1.03,8.34-2.22,16.65-3.57,24.93-.8,4.88-1.64,9.72-2.55,14.51-7.62,.23-15.27,.59-22.96,1.1-3.34,.21-5.88,3.09-5.67,6.43s3.09,5.88,6.43,5.67c13.36-.87,26.87-1.32,40.49-1.32s27.14,.45,40.49,1.32c3.34,.21,6.23-2.34,6.43-5.67,.21-3.34-2.34-6.23-5.67-6.43-7.7-.5-15.36-.87-22.97-1.1h0Zm25.82-150.88l-44.09-66.71-44.09,66.71h18.29c.78,0,1.56,.26,2.22,.77,1.59,1.23,1.88,3.51,.66,5.1l-33.48,43.43h14.38c.74,.02,1.49,.25,2.14,.71,1.62,1.18,1.98,3.45,.8,5.07l-35.78,49.08h149.75l-35.58-48.81c-.57-.65-.91-1.49-.91-2.41,0-2.01,1.63-3.65,3.65-3.65h14.37l-33.3-43.21c-.58-.65-.94-1.5-.94-2.44,0-2.01,1.63-3.65,3.65-3.65h18.29Z"/><path class="c" d="M765.93,239.07c-.9-4.79-1.75-9.63-2.54-14.5-1.35-8.27-2.55-16.59-3.57-24.94h-24.34c-1.03,8.34-2.22,16.65-3.57,24.93-.8,4.88-1.64,9.72-2.55,14.51-7.62,.23-15.27,.59-22.96,1.1-3.34,.21-5.88,3.09-5.67,6.43,.21,3.34,3.09,5.88,6.43,5.67,13.36-.87,26.87-1.32,40.49-1.32s27.14,.45,40.49,1.32c3.34,.21,6.23-2.34,6.43-5.67,.21-3.34-2.34-6.23-5.67-6.43-7.7-.5-15.36-.87-22.97-1.1h0Zm25.82-150.88l-44.09-66.71-44.09,66.71h18.29c.78,0,1.56,.26,2.22,.77,1.59,1.23,1.88,3.51,.66,5.1l-33.48,43.43h14.38c.74,.02,1.49,.25,2.14,.71,1.62,1.18,1.98,3.45,.8,5.07l-35.78,49.08h149.75l-35.58-48.81c-.57-.65-.91-1.49-.91-2.41,0-2.01,1.63-3.65,3.65-3.65h14.37l-33.3-43.21c-.58-.65-.94-1.5-.94-2.44,0-2.01,1.63-3.65,3.65-3.65h18.29Z"/><path class="c" d="M557.28,269.04c-.9-4.79-1.75-9.63-2.54-14.5-1.35-8.27-2.55-16.59-3.57-24.94h-24.34c-1.03,8.34-2.22,16.65-3.57,24.93-.8,4.88-1.64,9.72-2.55,14.51-7.62,.23-15.27,.59-22.96,1.1-3.34,.21-5.88,3.09-5.67,6.43s3.09,5.88,6.43,5.67c13.36-.87,26.87-1.32,40.49-1.32s27.14,.45,40.49,1.32c3.34,.21,6.23-2.34,6.43-5.67,.21-3.34-2.34-6.23-5.67-6.43-7.7-.5-15.36-.87-22.97-1.1h0Zm25.82-150.88l-44.09-66.71-44.09,66.71h18.29c.78,0,1.56,.26,2.22,.77,1.59,1.23,1.88,3.51,.66,5.1l-33.48,43.43h14.38c.74,.02,1.49,.25,2.14,.71,1.62,1.18,1.98,3.45,.8,5.07l-35.78,49.08h149.75l-35.58-48.81c-.57-.65-.91-1.49-.91-2.41,0-2.01,1.63-3.65,3.65-3.65h14.37l-33.3-43.21c-.58-.65-.94-1.5-.94-2.44,0-2.01,1.63-3.65,3.65-3.65h18.29Z"/><path class="c" d="M1093.09,217.59c-.9-4.79-1.75-9.63-2.54-14.5-1.35-8.27-2.55-16.59-3.57-24.94h-24.34c-1.03,8.34-2.22,16.65-3.57,24.93-.8,4.88-1.64,9.72-2.55,14.51-7.62,.23-15.27,.59-22.96,1.1-3.34,.21-5.88,3.09-5.67,6.43,.21,3.34,3.09,5.88,6.43,5.67,13.36-.87,26.87-1.32,40.49-1.32s27.14,.45,40.49,1.32c3.34,.21,6.23-2.34,6.43-5.67,.21-3.34-2.34-6.23-5.67-6.43-7.7-.5-15.36-.87-22.97-1.1h0Zm25.82-150.88L1074.82,0l-44.09,66.71h18.29c.78,0,1.56,.26,2.22,.77,1.59,1.23,1.88,3.51,.66,5.1l-33.48,43.43h14.38c.74,.02,1.49,.25,2.14,.71,1.62,1.18,1.98,3.45,.8,5.07l-35.78,49.08h149.75l-35.58-48.81c-.57-.65-.91-1.49-.91-2.41,0-2.01,1.63-3.65,3.65-3.65h14.37l-33.3-43.21c-.58-.65-.94-1.5-.94-2.44,0-2.01,1.63-3.65,3.65-3.65h18.29Z"/><path class="c" d="M93.14,217.59c-.9-4.79-1.75-9.63-2.54-14.5-1.35-8.27-2.55-16.59-3.57-24.94h-24.34c-1.03,8.34-2.22,16.65-3.57,24.93-.8,4.88-1.64,9.72-2.55,14.51-7.62,.23-15.27,.59-22.96,1.1-3.34,.21-5.88,3.09-5.67,6.43s3.09,5.88,6.43,5.67c13.36-.87,26.87-1.32,40.49-1.32s27.14,.45,40.49,1.32c3.34,.21,6.23-2.34,6.43-5.67,.21-3.34-2.34-6.23-5.67-6.43-7.7-.5-15.36-.87-22.97-1.1h0Zm25.82-150.88L74.87,0,30.78,66.71h18.29c.78,0,1.56,.26,2.22,.77,1.59,1.23,1.88,3.51,.66,5.1L18.47,116h14.38c.74,.02,1.49,.25,2.14,.71,1.62,1.18,1.98,3.45,.8,5.07L0,170.87H149.75l-35.58-48.81c-.57-.65-.91-1.49-.91-2.41,0-2.01,1.63-3.65,3.65-3.65h14.37l-33.3-43.21c-.58-.65-.94-1.5-.94-2.44,0-2.01,1.63-3.65,3.65-3.65h18.29Z"/><path class="c" d="M241.73,273.06c-.9-4.79-1.75-9.63-2.54-14.5-1.35-8.27-2.55-16.59-3.57-24.94h-24.34c-1.03,8.34-2.22,16.65-3.57,24.93-.8,4.88-1.64,9.72-2.55,14.51-7.62,.23-15.27,.59-22.96,1.1-3.34,.21-5.88,3.09-5.67,6.43s3.09,5.88,6.43,5.67c13.36-.87,26.87-1.32,40.49-1.32s27.14,.45,40.49,1.32c3.34,.21,6.23-2.34,6.43-5.67,.21-3.34-2.34-6.23-5.67-6.43-7.7-.5-15.36-.87-22.97-1.1h0Zm25.82-150.88l-44.09-66.71-44.09,66.71h18.29c.78,0,1.56,.26,2.22,.77,1.59,1.23,1.88,3.51,.66,5.1l-33.48,43.43h14.38c.74,.02,1.49,.25,2.14,.71,1.62,1.18,1.98,3.45,.8,5.07l-35.78,49.08h149.75l-35.58-48.81c-.57-.65-.91-1.49-.91-2.41,0-2.01,1.63-3.65,3.65-3.65h14.37l-33.3-43.21c-.58-.65-.94-1.5-.94-2.44,0-2.01,1.63-3.65,3.65-3.65h18.29Z"/><path class="c" d="M53.34,282.25l-14.05-19.28c-.57-.65-.91-1.5-.91-2.42,0-2.01,1.63-3.64,3.64-3.64h14.37l-17.06-22.13-3.15-4.1-2.93-3.8-2.69-3.49-1.58-2.04-5.89-7.65c-.58-.65-.94-1.5-.94-2.44,0-2.01,1.63-3.65,3.65-3.65h18.29l-24.28-36.74-9.42-14.25L0,140.9v170.88H74.87l-21.53-29.53Zm-12.09,77.35c-1.91-.13-3.82-.24-5.73-.36-5.77-.32-11.52-.57-17.24-.74h-.01c-.9-4.79-1.75-9.63-2.54-14.5-1.35-8.27-2.54-16.59-3.57-24.94H0v51.32c13.62,0,27.14,.44,40.49,1.32,1.41,.09,2.73-.31,3.81-1.07,1.47-1,2.48-2.64,2.61-4.54,.01-.02,.01-.04,.01-.06,.21-3.35-2.34-6.23-5.67-6.43Z"/><path class="c" d="M1789.75,282.62c-.9-4.79-1.75-9.63-2.54-14.5-1.35-8.27-2.55-16.59-3.57-24.94h-24.34c-1.03,8.34-2.22,16.65-3.57,24.93-.8,4.88-1.64,9.72-2.55,14.51-7.62,.23-15.27,.59-22.96,1.1-3.34,.21-5.88,3.09-5.67,6.43,.21,3.34,3.09,5.88,6.43,5.67,13.36-.87,26.87-1.32,40.49-1.32s27.14,.45,40.49,1.32c3.34,.21,6.23-2.34,6.43-5.67,.21-3.34-2.34-6.23-5.67-6.43-7.7-.5-15.36-.87-22.97-1.1h0Zm25.82-150.88l-44.09-66.71-44.09,66.71h18.29c.78,0,1.56,.26,2.22,.77,1.59,1.23,1.88,3.51,.66,5.1l-33.48,43.43h14.38c.74,.02,1.49,.25,2.14,.71,1.62,1.18,1.98,3.45,.8,5.07l-35.78,49.08h149.75l-35.58-48.81c-.57-.65-.91-1.49-.91-2.41,0-2.01,1.63-3.65,3.65-3.65h14.37l-33.3-43.21c-.58-.65-.94-1.5-.94-2.44,0-2.01,1.63-3.65,3.65-3.65h18.29Z"/><path class="c" d="M1530.1,227.15c-.9-4.79-1.75-9.63-2.54-14.5-1.35-8.27-2.55-16.59-3.57-24.94h-24.34c-1.03,8.34-2.22,16.65-3.57,24.93-.8,4.88-1.64,9.72-2.55,14.51-7.62,.23-15.27,.59-22.96,1.1-3.34,.21-5.88,3.09-5.67,6.43,.21,3.34,3.09,5.88,6.43,5.67,13.36-.87,26.87-1.32,40.49-1.32s27.14,.45,40.49,1.32c3.34,.21,6.23-2.34,6.43-5.67,.21-3.34-2.34-6.23-5.67-6.43-7.7-.5-15.36-.87-22.97-1.1h0Zm25.82-150.88l-44.09-66.71-44.09,66.71h18.29c.78,0,1.56,.26,2.22,.77,1.59,1.23,1.88,3.51,.66,5.1l-33.48,43.43h14.38c.74,.02,1.49,.25,2.14,.71,1.62,1.18,1.98,3.45,.8,5.07l-35.78,49.08h149.75l-35.58-48.81c-.57-.65-.91-1.49-.91-2.41,0-2.01,1.63-3.65,3.65-3.65h14.37l-33.3-43.21c-.58-.65-.94-1.5-.94-2.44,0-2.01,1.63-3.65,3.65-3.65h18.29Z"/><path class="c" d="M1875.91,173.62h18.29c.77,.01,1.55,.26,2.22,.77,1.58,1.23,1.88,3.52,.65,5.1l-33.47,43.43h14.38c.74,.02,1.49,.25,2.13,.71,1.07,.78,1.59,2.03,1.49,3.25-.06,.64-.29,1.26-.69,1.82l-35.78,49.09h74.87V106.92l-44.09,66.7Zm31.91,111.45c-1.02,8.34-2.22,16.65-3.57,24.93-.8,4.88-1.64,9.72-2.54,14.51-7.62,.23-15.27,.59-22.96,1.1-3.19,.2-5.63,2.81-5.67,5.94-.01,.03-.01,.07-.01,.1,0,.13,0,.26,.01,.39,.21,3.34,3.08,5.88,6.43,5.67,13.36-.88,26.86-1.32,40.49-1.32v-51.32h-12.18Z"/></svg>