<?xml version="1.0" encoding="UTF-8"?><svg id="a" xmlns="http://www.w3.org/2000/svg" viewBox="0 0 2389.49 3751.82"><defs><style>.b{fill:#f5f9e9;opacity:0;}.c{fill:#596869;}.d{opacity:.21;}.e{fill:#36453b;}</style></defs><path class="c" d="M2385.26,2748.73v-13.27c2.46,4,2.53,9.17,0,13.27Z"/><path class="d" d="M2385.26,2735.46v13.27c2.53-4.1,2.46-9.27,0-13.27Z"/><path class="d" d="M830.2,3698.98c-.21-3.34-1.18-6.46-2.74-9.17-3.86-6.7-11.32-11.05-19.59-10.53-46.38,3.02-93.31,4.59-140.66,4.59s-94.25-1.56-140.66-4.59c-8.27-.52-15.7,3.79-19.56,10.53-1.6,2.71-2.57,5.84-2.78,9.17-.73,11.6,8.09,21.61,19.7,22.34,26.71,1.77,53.32,3.02,79.76,3.82,1.67,8.86,3.3,17.75,4.86,26.68h117.31c1.56-8.93,3.2-17.82,4.86-26.68,26.47-.8,53.05-2.08,79.8-3.82,11.6-.69,20.43-10.73,19.7-22.34Z"/><path class="d" d="M2385.26,3527.48v5.8h4.23l-4.23-5.8Z"/><path class="e" d="M870.25,3728.83h520.22l-123.6-169.56c-1.98-2.26-3.2-5.18-3.2-8.37,0-7.02,5.7-12.68,12.68-12.68h49.92l-115.68-150.11c-2.01-2.22-3.27-5.21-3.27-8.48,0-6.98,5.66-12.65,12.65-12.65h63.54l-102.55-155.18-50.62-76.56-32.69,49.47-120.48,182.28h63.54c2.71,.03,5.42,.87,7.71,2.67,5.52,4.24,6.53,12.19,2.29,17.72l-116.31,150.84h49.95c2.57,.07,5.18,.87,7.43,2.47,5.63,4.1,6.84,11.99,2.74,17.61l-124.3,170.53Z"/><path class="e" d="M730.69,3654.44c-3.13-16.63-6.07-33.45-8.81-50.37-4.68-28.73-8.84-57.63-12.4-86.63h-84.55c-3.56,28.96-7.72,57.83-12.4,86.6-2.77,16.96-5.71,33.78-8.84,50.41-26.46,.79-53.05,2.05-79.77,3.83-11.61,.73-20.42,10.72-19.69,22.33,.73,11.61,10.72,20.42,22.33,19.69,46.42-3.04,93.33-4.59,140.66-4.59s94.28,1.55,140.66,4.59c11.61,.73,21.64-8.12,22.33-19.69,.73-11.61-8.12-21.64-19.69-22.33-26.75-1.75-53.34-3.04-79.8-3.83h-.03Zm89.7-524.15l-153.17-231.74-153.17,231.74h63.54c2.71,.03,5.41,.89,7.72,2.67,5.51,4.26,6.53,12.21,2.28,17.72l-116.29,150.86h49.95c2.57,.07,5.18,.86,7.42,2.47,5.64,4.09,6.86,11.98,2.77,17.62l-124.3,170.52H927.32l-123.61-169.56c-1.98-2.24-3.17-5.18-3.17-8.38,0-6.99,5.67-12.67,12.67-12.67h49.91l-115.69-150.1c-2.01-2.24-3.27-5.21-3.27-8.48,0-6.99,5.67-12.67,12.67-12.67h63.54Z"/><path class="e" d="M33.91,3751.82H454.32l-73.72-101.13c-1.98-2.22-3.2-5.18-3.2-8.37,0-6.98,5.7-12.68,12.68-12.68h49.92l-115.68-150.07c-2.02-2.26-3.27-5.21-3.27-8.48,0-7.02,5.66-12.68,12.64-12.68h63.54l-153.16-231.74-153.16,231.74h63.54c2.71,.03,5.42,.9,7.71,2.67,5.52,4.27,6.53,12.19,2.29,17.72l-116.31,150.87h49.95c2.57,.03,5.18,.83,7.43,2.47,5.63,4.1,6.84,11.95,2.78,17.61l-74.41,102.06Z"/><path class="e" d="M2385.26,3527.48v5.8h4.23l-4.23-5.8Zm-465.26,5.8v-69.57l-50.72,69.57h50.72Z"/><path class="e" d="M1447.51,3751.82h406.1l-66.56-91.33c-1.98-2.22-3.16-5.18-3.16-8.37,0-6.98,5.66-12.68,12.68-12.68h49.89l-115.68-150.07c-2.01-2.26-3.27-5.21-3.27-8.48,0-7.02,5.66-12.68,12.68-12.68h63.54l-97.72-147.85-55.44-83.9-53.88,81.53-99.28,150.21h63.54c2.71,.03,5.38,.9,7.71,2.67,5.49,4.27,6.53,12.19,2.26,17.72l-116.27,150.84h49.95c2.57,.07,5.18,.87,7.4,2.5,5.66,4.06,6.88,11.95,2.78,17.61l-67.25,92.27Z"/><path class="e" d="M870.25,3728.83h520.22l-123.6-169.56c-1.98-2.26-3.2-5.18-3.2-8.37,0-7.02,5.7-12.68,12.68-12.68h49.92l-115.68-150.11c-2.01-2.22-3.27-5.21-3.27-8.48,0-6.98,5.66-12.65,12.65-12.65h63.54l-102.55-155.18-50.62-76.56-32.69,49.47-120.48,182.28h63.54c2.71,.03,5.42,.87,7.71,2.67,5.52,4.24,6.53,12.19,2.29,17.72l-116.31,150.84h49.95c2.57,.07,5.18,.87,7.43,2.47,5.63,4.1,6.84,11.99,2.74,17.61l-124.3,170.53Z"/><path class="e" d="M730.69,3654.44c-3.13-16.63-6.07-33.45-8.81-50.37-4.68-28.73-8.84-57.63-12.4-86.63h-84.55c-3.56,28.96-7.72,57.83-12.4,86.6-2.77,16.96-5.71,33.78-8.84,50.41-26.46,.79-53.05,2.05-79.77,3.83-11.61,.73-20.42,10.72-19.69,22.33,.73,11.61,10.72,20.42,22.33,19.69,46.42-3.04,93.33-4.59,140.66-4.59s94.28,1.55,140.66,4.59c11.61,.73,21.64-8.12,22.33-19.69,.73-11.61-8.12-21.64-19.69-22.33-26.75-1.75-53.34-3.04-79.8-3.83h-.03Zm89.7-524.15l-153.17-231.74-153.17,231.74h63.54c2.71,.03,5.41,.89,7.72,2.67,5.51,4.26,6.53,12.21,2.28,17.72l-116.29,150.86h49.95c2.57,.07,5.18,.86,7.42,2.47,5.64,4.09,6.86,11.98,2.77,17.62l-124.3,170.52H927.32l-123.61-169.56c-1.98-2.24-3.17-5.18-3.17-8.38,0-6.99,5.67-12.67,12.67-12.67h49.91l-115.69-150.1c-2.01-2.24-3.27-5.21-3.27-8.48,0-6.99,5.67-12.67,12.67-12.67h63.54Z"/><path class="e" d="M33.91,3751.82H454.32l-73.72-101.13c-1.98-2.22-3.2-5.18-3.2-8.37,0-6.98,5.7-12.68,12.68-12.68h49.92l-115.68-150.07c-2.02-2.26-3.27-5.21-3.27-8.48,0-7.02,5.66-12.68,12.64-12.68h63.54l-153.16-231.74-153.16,231.74h63.54c2.71,.03,5.42,.9,7.71,2.67,5.52,4.27,6.53,12.19,2.29,17.72l-116.31,150.87h49.95c2.57,.03,5.18,.83,7.43,2.47,5.63,4.1,6.84,11.95,2.78,17.61l-74.41,102.06Z"/><path class="e" d="M1869.28,3533.28h50.72v-69.57l-50.72,69.57Z"/><path class="e" d="M1447.51,3751.82h406.1l-66.56-91.33c-1.98-2.22-3.16-5.18-3.16-8.37,0-6.98,5.66-12.68,12.68-12.68h49.89l-115.68-150.07c-2.01-2.26-3.27-5.21-3.27-8.48,0-7.02,5.66-12.68,12.68-12.68h63.54l-97.72-147.85-55.44-83.9-53.88,81.53-99.28,150.21h63.54c2.71,.03,5.38,.9,7.71,2.67,5.49,4.27,6.53,12.19,2.26,17.72l-116.27,150.84h49.95c2.57,.07,5.18,.87,7.4,2.5,5.66,4.06,6.88,11.95,2.78,17.61l-67.25,92.27Z"/><rect class="b" width="1920" height="3751.82"/></svg>