<?xml version="1.0" encoding="UTF-8"?><svg id="a" xmlns="http://www.w3.org/2000/svg" viewBox="0 0 1921.23 962.47"><defs><style>.b{fill:#596869;}.c{opacity:.21;}.d{fill:#36453b;}</style></defs><path class="b" d="M1919.5,420.34v150.34c-98.84-9.54-252.19,29.97-320.29,10.49-68.85-19.69-368.63-43.77-439.59-26.97-70.97,16.8-335.51-54.6-419.24-31.55-83.73,23.06-113.82,38.14-211.41,21.02-97.58-17.12-249.35-26.24-338.97,7.7-58.46,22.14-154.95,19.63-189.99,19.63v-148.58c42.43,41.03,560.85-32.9,698.54,12.43,137.7,45.33,317.72-33.8,442.49-12.44,124.78,21.37,373.66,40.74,434.88,20.37,59.51-19.8,300.46-45.13,343.58-22.44Z"/><path class="c" d="M1919.5,388.96v53.82h-16.64c-1.4-11.4-3.04-22.76-4.88-34.08-1.09-6.67-2.25-13.3-3.48-19.84-10.41-.31-20.88-.8-31.4-1.51-1.26-.08-2.43-.43-3.47-1.01,5.83,1.28,16.35,1.78,35.78,1.21,9.21-.27,17.19,.3,24.09,1.41Z"/><path class="d" d="M550.23,769.82l-6.66,10.08h13.32l-6.66-10.08Z"/><path class="d" d="M294.59,779.9h120.66l-28.76-37.32c-.79-.88-1.28-2.05-1.28-3.33,0-2.76,2.23-4.99,4.98-4.99h25.01l-60.28-91.2-60.28,91.2h25c1.07,.01,2.13,.35,3.04,1.05,2.17,1.68,2.57,4.81,.9,6.98l-28.99,37.61Z"/><path class="d" d="M1243.41,712.66l-44.45,67.24h88.89l-44.44-67.24Z"/><path class="d" d="M1837.63,757.27l-18.77-28.41-33.74,51.04h67.49l-14.98-22.63Zm81.94,202.92v2.28h1.66l-1.66-2.28Z"/><path class="c" d="M64.15,378.57s-.01-.09-.02-.14v-.02c-.34-4.48-4.25-7.88-8.77-7.6-18.25,1.2-36.73,1.81-55.36,1.81v70.16H16.64c.52-4.25,1.07-8.49,1.66-12.73,.98-7.14,2.06-14.27,3.22-21.36,1.08-6.66,2.23-13.29,3.46-19.83h.01c10.42-.31,20.88-.82,31.41-1.51,4.56-.27,8.04-4.21,7.75-8.78Zm-20.34,192.4l33.3-43.21h-19.65c-2.75,0-4.98-2.24-4.98-4.99,0-1.26,.47-2.41,1.25-3.3l48.64-66.73H0v233.62l60.29-91.21h-25.01c-2.76,0-4.99-2.23-4.99-4.99,0-1.28,.49-2.45,1.29-3.33l12.23-15.86Z"/><path class="d" d="M56.41,369.4c-10.53-.69-21-1.2-31.41-1.51h-.01c-1.23-6.54-2.39-13.16-3.47-19.82-1.84-11.31-3.48-22.69-4.88-34.1H0v70.16H.01c18.63,0,37.1,.61,55.36,1.81,4.49,.28,8.37-3.08,8.76-7.51v-.02c.02-.07,.02-.15,.03-.22,.28-4.57-3.2-8.52-7.75-8.79Zm-2.68-132.12c-.78-.88-1.25-2.04-1.25-3.3,0-2.75,2.24-4.98,4.99-4.98h19.64l-45.53-59.08c-.79-.88-1.28-2.05-1.28-3.33,0-2.75,2.23-4.99,4.98-4.99h25.01l-10.2-15.43L.01,70.4v233.61H102.38l-48.65-66.73Z"/><path class="c" d="M1536.74,400.49c-1.23,6.54-2.39,13.16-3.47,19.83-1.84,11.31-3.48,22.68-4.88,34.09h-33.28c-1.4-11.4-3.04-22.76-4.88-34.08-1.09-6.67-2.25-13.29-3.48-19.84-10.41-.31-20.88-.8-31.39-1.51-4.57-.29-8.04-4.22-7.75-8.79,.29-4.57,4.22-8.04,8.79-7.75,18.27,1.19,36.73,1.8,55.36,1.8s37.11-.61,55.36-1.8c4.57-.29,8.52,3.19,8.79,7.75,.29,4.57-3.19,8.52-7.75,8.79-10.53,.69-20.99,1.19-31.41,1.51h0Zm35.3,206.29l-60.28,91.21-60.28-91.21h25.01c1.06-.01,2.13-.35,3.04-1.05,2.17-1.67,2.57-4.8,.9-6.97l-45.77-59.37h19.66c1.01-.03,2.04-.34,2.92-.97,2.22-1.61,2.7-4.71,1.09-6.93l-48.92-67.11h204.73l-48.65,66.73c-.78,.88-1.25,2.04-1.25,3.3,0,2.75,2.23,4.99,4.99,4.99h19.64l-45.53,59.07c-.79,.88-1.29,2.05-1.29,3.34,0,2.75,2.23,4.99,4.99,4.99h25.01Z"/><path class="c" d="M1204.22,380.93c-1.23,6.54-2.39,13.16-3.47,19.83-1.84,11.31-3.48,22.68-4.88,34.09h-33.28c-1.4-11.4-3.04-22.76-4.88-34.08-1.09-6.67-2.25-13.29-3.48-19.84-10.41-.31-20.88-.8-31.39-1.51-4.57-.29-8.04-4.22-7.75-8.79,.29-4.57,4.22-8.04,8.79-7.75,18.27,1.19,36.73,1.8,55.36,1.8s37.11-.61,55.36-1.8c4.57-.29,8.52,3.19,8.79,7.75,.29,4.57-3.19,8.52-7.75,8.79-10.53,.69-20.99,1.19-31.41,1.51h0Zm35.3,206.29l-60.28,91.21-60.28-91.21h25.01c1.06-.01,2.13-.35,3.04-1.05,2.17-1.67,2.57-4.8,.9-6.97l-45.77-59.37h19.66c1.01-.03,2.04-.34,2.92-.97,2.22-1.61,2.7-4.71,1.09-6.93l-48.92-67.11h204.73l-48.65,66.73c-.78,.88-1.25,2.04-1.25,3.3,0,2.75,2.23,4.99,4.99,4.99h19.64l-45.53,59.07c-.79,.88-1.29,2.05-1.29,3.34,0,2.75,2.23,4.99,4.99,4.99h25.01Z"/><path class="c" d="M987.61,407.01c-1.23,6.54-2.39,13.16-3.47,19.83-1.84,11.31-3.48,22.68-4.88,34.09h-33.28c-1.4-11.4-3.04-22.76-4.88-34.08-1.09-6.67-2.25-13.29-3.48-19.84-10.41-.31-20.88-.8-31.39-1.51-4.57-.29-8.04-4.22-7.75-8.79,.29-4.57,4.22-8.04,8.79-7.75,18.27,1.19,36.73,1.8,55.36,1.8s37.11-.61,55.36-1.8c4.57-.29,8.52,3.19,8.79,7.75,.29,4.57-3.19,8.52-7.75,8.79-10.53,.69-20.99,1.19-31.41,1.51h0Zm35.3,206.29l-60.28,91.21-60.28-91.21h25.01c1.06-.01,2.13-.35,3.04-1.05,2.17-1.67,2.57-4.8,.9-6.97l-45.77-59.37h19.66c1.01-.03,2.04-.34,2.92-.97,2.22-1.61,2.7-4.71,1.09-6.93l-48.92-67.11h204.73l-48.65,66.73c-.78,.88-1.25,2.04-1.25,3.3,0,2.75,2.23,4.99,4.99,4.99h19.64l-45.53,59.07c-.79,.88-1.29,2.05-1.29,3.34,0,2.75,2.23,4.99,4.99,4.99h25.01Z"/><path class="c" d="M598.43,362.45c-1.23,6.54-2.39,13.16-3.47,19.83-1.84,11.31-3.48,22.68-4.88,34.09h-33.28c-1.4-11.4-3.04-22.76-4.88-34.08-1.09-6.67-2.25-13.29-3.48-19.84-10.41-.31-20.88-.8-31.39-1.51-4.57-.29-8.04-4.22-7.75-8.79s4.22-8.04,8.79-7.75c18.27,1.19,36.73,1.8,55.36,1.8s37.11-.61,55.36-1.8c4.57-.29,8.52,3.19,8.79,7.75,.29,4.57-3.19,8.52-7.75,8.79-10.53,.69-20.99,1.19-31.41,1.51h0Zm35.3,206.29l-60.28,91.21-60.28-91.21h25.01c1.06-.01,2.13-.35,3.04-1.05,2.17-1.67,2.57-4.8,.9-6.97l-45.77-59.37h19.66c1.01-.03,2.04-.34,2.92-.97,2.22-1.61,2.7-4.71,1.09-6.93l-48.92-67.11h204.73l-48.65,66.73c-.78,.88-1.25,2.04-1.25,3.3,0,2.75,2.23,4.99,4.99,4.99h19.64l-45.53,59.07c-.79,.88-1.29,2.05-1.29,3.34,0,2.75,2.23,4.99,4.99,4.99h25.01Z"/><path class="c" d="M279.15,354.3c-1.23,6.54-2.39,13.16-3.47,19.83-1.84,11.31-3.48,22.68-4.88,34.09h-33.28c-1.4-11.4-3.04-22.76-4.88-34.08-1.09-6.67-2.25-13.29-3.48-19.84-10.41-.31-20.88-.8-31.39-1.51-4.57-.29-8.04-4.22-7.75-8.79s4.22-8.04,8.79-7.75c18.27,1.19,36.73,1.8,55.36,1.8s37.11-.61,55.36-1.8c4.57-.29,8.52,3.19,8.79,7.75,.29,4.57-3.19,8.52-7.75,8.79-10.53,.69-20.99,1.19-31.41,1.51h0Zm35.3,206.29l-60.28,91.21-60.28-91.21h25.01c1.06-.01,2.13-.35,3.04-1.05,2.17-1.67,2.57-4.8,.9-6.97l-45.77-59.37h19.66c1.01-.03,2.04-.34,2.92-.97,2.22-1.61,2.7-4.71,1.09-6.93l-48.92-67.11h204.73l-48.65,66.73c-.78,.88-1.25,2.04-1.25,3.3,0,2.75,2.23,4.99,4.99,4.99h19.64l-45.53,59.07c-.79,.88-1.29,2.05-1.29,3.34,0,2.75,2.23,4.99,4.99,4.99h25.01Z"/><path class="c" d="M1919.5,452.74v233.62l-60.28-91.21h25.01c1.06-.01,2.13-.35,3.04-1.05,2.16-1.68,2.57-4.81,.89-6.97l-45.77-59.38h19.66c1.01-.02,2.04-.33,2.92-.97,2.22-1.61,2.7-4.71,1.09-6.93l-48.92-67.11h102.36Z"/><path class="c" d="M789,320.36c-1.23,6.54-2.39,13.16-3.47,19.83-1.84,11.31-3.48,22.68-4.88,34.09h-33.28c-1.4-11.4-3.04-22.76-4.88-34.08-1.09-6.67-2.25-13.29-3.48-19.84-10.41-.31-20.88-.8-31.39-1.51-4.57-.29-8.04-4.22-7.75-8.79,.29-4.57,4.22-8.04,8.79-7.75,18.27,1.19,36.73,1.8,55.36,1.8s37.11-.61,55.36-1.8c4.57-.29,8.52,3.19,8.79,7.75,.29,4.57-3.19,8.52-7.75,8.79-10.53,.69-20.99,1.19-31.41,1.51h0Zm35.3,206.29l-60.28,91.21-60.28-91.21h25.01c1.06-.01,2.13-.35,3.04-1.05,2.17-1.67,2.57-4.8,.9-6.97l-45.77-59.37h19.66c1.01-.03,2.04-.34,2.92-.97,2.22-1.61,2.7-4.71,1.09-6.93l-48.92-67.11h204.73l-48.65,66.73c-.78,.88-1.25,2.04-1.25,3.3,0,2.75,2.23,4.99,4.99,4.99h19.64l-45.53,59.07c-.79,.88-1.29,2.05-1.29,3.34,0,2.75,2.23,4.99,4.99,4.99h25.01Z"/><path class="c" d="M1742.16,407.01c-1.23,6.54-2.39,13.16-3.47,19.83-1.84,11.31-3.48,22.68-4.88,34.09h-33.28c-1.4-11.4-3.04-22.76-4.88-34.08-1.09-6.67-2.25-13.29-3.48-19.84-10.41-.31-20.88-.8-31.39-1.51-4.57-.29-8.04-4.22-7.75-8.79,.29-4.57,4.22-8.04,8.79-7.75,18.27,1.19,36.73,1.8,55.36,1.8s37.11-.61,55.36-1.8c4.57-.29,8.52,3.19,8.79,7.75,.29,4.57-3.19,8.52-7.75,8.79-10.53,.69-20.99,1.19-31.41,1.51h0Zm35.3,206.29l-60.28,91.21-60.28-91.21h25.01c1.06-.01,2.13-.35,3.04-1.05,2.17-1.67,2.57-4.8,.9-6.97l-45.77-59.37h19.66c1.01-.03,2.04-.34,2.92-.97,2.22-1.61,2.7-4.71,1.09-6.93l-48.92-67.11h204.73l-48.65,66.73c-.78,.88-1.25,2.04-1.25,3.3,0,2.75,2.23,4.99,4.99,4.99h19.64l-45.53,59.07c-.79,.88-1.29,2.05-1.29,3.34,0,2.75,2.23,4.99,4.99,4.99h25.01Z"/><path class="c" d="M1387.17,332.5c-1.23,6.54-2.39,13.16-3.47,19.83-1.84,11.31-3.48,22.68-4.88,34.09h-33.28c-1.4-11.4-3.04-22.76-4.88-34.08-1.09-6.67-2.25-13.29-3.48-19.84-10.41-.31-20.88-.8-31.39-1.51-4.57-.29-8.04-4.22-7.75-8.79,.29-4.57,4.22-8.04,8.79-7.75,18.27,1.19,36.73,1.8,55.36,1.8s37.11-.61,55.36-1.8c4.57-.29,8.52,3.19,8.79,7.75,.29,4.57-3.19,8.52-7.75,8.79-10.53,.69-20.99,1.19-31.41,1.51h0Zm35.3,206.29l-60.28,91.21-60.28-91.21h25.01c1.06-.01,2.13-.35,3.04-1.05,2.17-1.67,2.57-4.8,.9-6.97l-45.77-59.37h19.66c1.01-.03,2.04-.34,2.92-.97,2.22-1.61,2.7-4.71,1.09-6.93l-48.92-67.11h204.73l-48.65,66.73c-.78,.88-1.25,2.04-1.25,3.3,0,2.75,2.23,4.99,4.99,4.99h19.64l-45.53,59.07c-.79,.88-1.29,2.05-1.29,3.34,0,2.75,2.23,4.99,4.99,4.99h25.01Z"/><path class="d" d="M1536.74,378.34c-1.23-6.54-2.39-13.16-3.47-19.83-1.84-11.31-3.48-22.68-4.88-34.09h-33.28c-1.4,11.4-3.04,22.76-4.88,34.08-1.09,6.67-2.25,13.29-3.48,19.84-10.41,.31-20.88,.8-31.39,1.51-4.57,.29-8.04,4.22-7.75,8.79,.29,4.57,4.22,8.04,8.79,7.75,18.27-1.19,36.73-1.8,55.36-1.8s37.11,.61,55.36,1.8c4.57,.29,8.52-3.19,8.79-7.75,.29-4.57-3.19-8.52-7.75-8.79-10.53-.69-20.99-1.19-31.41-1.51h0Zm35.3-206.29l-60.28-91.21-60.28,91.21h25.01c1.06,.01,2.13,.35,3.04,1.05,2.17,1.67,2.57,4.8,.9,6.97l-45.77,59.37h19.66c1.01,.03,2.04,.34,2.92,.97,2.22,1.61,2.7,4.71,1.09,6.93l-48.92,67.11h204.73l-48.65-66.73c-.78-.88-1.25-2.04-1.25-3.3,0-2.75,2.23-4.99,4.99-4.99h19.64l-45.53-59.07c-.79-.88-1.29-2.05-1.29-3.34,0-2.75,2.23-4.99,4.99-4.99h25.01Z"/><path class="d" d="M1204.23,360.31c-1.23-6.54-2.39-13.16-3.47-19.83-1.84-11.31-3.48-22.68-4.88-34.09h-33.28c-1.4,11.4-3.04,22.76-4.88,34.08-1.09,6.67-2.25,13.29-3.48,19.84-10.41,.31-20.88,.8-31.39,1.51-4.57,.29-8.04,4.22-7.75,8.79,.29,4.57,4.22,8.04,8.79,7.75,18.27-1.19,36.73-1.8,55.36-1.8s37.11,.61,55.36,1.8c4.57,.29,8.52-3.19,8.79-7.75,.29-4.57-3.19-8.52-7.75-8.79-10.53-.69-20.99-1.19-31.41-1.51h0Zm35.3-206.29l-60.28-91.21-60.28,91.21h25.01c1.06,.01,2.13,.35,3.04,1.05,2.17,1.67,2.57,4.8,.9,6.97l-45.77,59.37h19.66c1.01,.03,2.04,.34,2.92,.97,2.22,1.61,2.7,4.71,1.09,6.93l-48.92,67.11h204.73l-48.65-66.73c-.78-.88-1.25-2.04-1.25-3.3,0-2.75,2.23-4.99,4.99-4.99h19.64l-45.53-59.07c-.79-.88-1.29-2.05-1.29-3.34,0-2.75,2.23-4.99,4.99-4.99h25.01Z"/><path class="d" d="M987.62,387.03c-1.23-6.54-2.39-13.16-3.47-19.83-1.84-11.31-3.48-22.68-4.88-34.09h-33.28c-1.4,11.4-3.04,22.76-4.88,34.08-1.09,6.67-2.25,13.29-3.48,19.84-10.41,.31-20.88,.8-31.39,1.51-4.57,.29-8.04,4.22-7.75,8.79,.29,4.57,4.22,8.04,8.79,7.75,18.27-1.19,36.73-1.8,55.36-1.8s37.11,.61,55.36,1.8c4.57,.29,8.52-3.19,8.79-7.75,.29-4.57-3.19-8.52-7.75-8.79-10.53-.69-20.99-1.19-31.41-1.51h0Zm35.3-206.29l-60.28-91.21-60.28,91.21h25.01c1.06,.01,2.13,.35,3.04,1.05,2.17,1.67,2.57,4.8,.9,6.97l-45.77,59.37h19.66c1.01,.03,2.04,.34,2.92,.97,2.22,1.61,2.7,4.71,1.09,6.93l-48.92,67.11h204.73l-48.65-66.73c-.78-.88-1.25-2.04-1.25-3.3,0-2.75,2.23-4.99,4.99-4.99h19.64l-45.53-59.07c-.79-.88-1.29-2.05-1.29-3.34,0-2.75,2.23-4.99,4.99-4.99h25.01Z"/><path class="d" d="M598.44,338.46c-1.23-6.54-2.39-13.16-3.47-19.83-1.84-11.31-3.48-22.68-4.88-34.09h-33.28c-1.4,11.4-3.04,22.76-4.88,34.08-1.09,6.67-2.25,13.29-3.48,19.84-10.41,.31-20.88,.8-31.39,1.51-4.57,.29-8.04,4.22-7.75,8.79s4.22,8.04,8.79,7.75c18.27-1.19,36.73-1.8,55.36-1.8s37.11,.61,55.36,1.8c4.57,.29,8.52-3.19,8.79-7.75,.29-4.57-3.19-8.52-7.75-8.79-10.53-.69-20.99-1.19-31.41-1.51h0Zm35.3-206.29l-60.28-91.21-60.28,91.21h25.01c1.06,.01,2.13,.35,3.04,1.05,2.17,1.67,2.57,4.8,.9,6.97l-45.77,59.37h19.66c1.01,.03,2.04,.34,2.92,.97,2.22,1.61,2.7,4.71,1.09,6.93l-48.92,67.11h204.73l-48.65-66.73c-.78-.88-1.25-2.04-1.25-3.3,0-2.75,2.23-4.99,4.99-4.99h19.64l-45.53-59.07c-.79-.88-1.29-2.05-1.29-3.34,0-2.75,2.23-4.99,4.99-4.99h25.01Z"/><path class="d" d="M279.15,334.47c-1.23-6.54-2.39-13.16-3.47-19.83-1.84-11.31-3.48-22.68-4.88-34.09h-33.28c-1.4,11.4-3.04,22.76-4.88,34.08-1.09,6.67-2.25,13.29-3.48,19.84-10.41,.31-20.88,.8-31.39,1.51-4.57,.29-8.04,4.22-7.75,8.79,.29,4.57,4.22,8.04,8.79,7.75,18.27-1.19,36.73-1.8,55.36-1.8s37.11,.61,55.36,1.8c4.57,.29,8.52-3.19,8.79-7.75,.29-4.57-3.19-8.52-7.75-8.79-10.53-.69-20.99-1.19-31.41-1.51h0Zm35.3-206.29l-60.28-91.21-60.28,91.21h25.01c1.06,.01,2.13,.35,3.04,1.05,2.17,1.67,2.57,4.8,.9,6.97l-45.77,59.37h19.66c1.01,.03,2.04,.34,2.92,.97,2.22,1.61,2.7,4.71,1.09,6.93l-48.92,67.11h204.73l-48.65-66.73c-.78-.88-1.25-2.04-1.25-3.3,0-2.75,2.23-4.99,4.99-4.99h19.64l-45.53-59.07c-.79-.88-1.29-2.05-1.29-3.34,0-2.75,2.23-4.99,4.99-4.99h25.01Z"/><path class="d" d="M1919.5,313.97v74.99c-6.9-1.11-14.88-1.68-24.09-1.41-19.43,.57-29.95,.07-35.78-1.21-2.72-1.48-4.48-4.46-4.28-7.77,0-.08,0-.16,.03-.23v-.02s-.02-.09-.02-.13c-.29-4.57,3.18-8.51,7.75-8.79,10.52-.7,20.98-1.2,31.39-1.51,1.12-5.93,2.17-11.92,3.17-17.97,.11-.62,.21-1.25,.31-1.87,1.85-11.32,3.48-22.68,4.88-34.08h16.64Z"/><path class="d" d="M1919.5,70.42v233.59h-102.35l48.92-67.11c1.61-2.22,1.13-5.32-1.09-6.93-.89-.63-1.91-.95-2.92-.97h-19.66l45.77-59.37c1.67-2.17,1.27-5.3-.9-6.98-.91-.7-1.97-1.03-3.04-1.05h-25l60.27-91.18Z"/><path class="d" d="M789,297.49c-1.23-6.54-2.39-13.16-3.47-19.83-1.84-11.31-3.48-22.68-4.88-34.09h-33.28c-1.4,11.4-3.04,22.76-4.88,34.08-1.09,6.67-2.25,13.29-3.48,19.84-10.41,.31-20.88,.8-31.39,1.51-4.57,.29-8.04,4.22-7.75,8.79,.29,4.57,4.22,8.04,8.79,7.75,18.27-1.19,36.73-1.8,55.36-1.8s37.11,.61,55.36,1.8c4.57,.29,8.52-3.19,8.79-7.75,.29-4.57-3.19-8.52-7.75-8.79-10.53-.69-20.99-1.19-31.41-1.51h0Zm35.3-206.29L764.02,0l-60.28,91.21h25.01c1.06,.01,2.13,.35,3.04,1.05,2.17,1.67,2.57,4.8,.9,6.97l-45.77,59.37h19.66c1.01,.03,2.04,.34,2.92,.97,2.22,1.61,2.7,4.71,1.09,6.93l-48.92,67.11h204.73l-48.65-66.73c-.78-.88-1.25-2.04-1.25-3.3,0-2.75,2.23-4.99,4.99-4.99h19.64l-45.53-59.07c-.79-.88-1.29-2.05-1.29-3.34,0-2.75,2.23-4.99,4.99-4.99h25.01Z"/><path class="d" d="M1741.48,386.4c-1.23-6.54-2.39-13.16-3.47-19.83-1.84-11.31-3.48-22.68-4.88-34.09h-33.28c-1.4,11.4-3.04,22.76-4.88,34.08-1.09,6.67-2.25,13.29-3.48,19.84-10.41,.31-20.88,.8-31.39,1.51-4.57,.29-8.04,4.22-7.75,8.79s4.22,8.04,8.79,7.75c18.27-1.19,36.73-1.8,55.36-1.8s37.11,.61,55.36,1.8c4.57,.29,8.52-3.19,8.79-7.75,.29-4.57-3.19-8.52-7.75-8.79-10.53-.69-20.99-1.19-31.41-1.51h0Zm35.3-206.29l-60.28-91.21-60.28,91.21h25.01c1.06,.01,2.13,.35,3.04,1.05,2.17,1.67,2.57,4.8,.9,6.97l-45.77,59.37h19.66c1.01,.03,2.04,.34,2.92,.97,2.22,1.61,2.7,4.71,1.09,6.93l-48.92,67.11h204.73l-48.65-66.73c-.78-.88-1.25-2.04-1.25-3.3,0-2.75,2.23-4.99,4.99-4.99h19.64l-45.53-59.07c-.79-.88-1.29-2.05-1.29-3.34,0-2.75,2.23-4.99,4.99-4.99h25.01Z"/><path class="d" d="M1386.49,310.56c-1.23-6.54-2.39-13.16-3.47-19.83-1.84-11.31-3.48-22.68-4.88-34.09h-33.28c-1.4,11.4-3.04,22.76-4.88,34.08-1.09,6.67-2.25,13.29-3.48,19.84-10.41,.31-20.88,.8-31.39,1.51-4.57,.29-8.04,4.22-7.75,8.79,.29,4.57,4.22,8.04,8.79,7.75,18.27-1.19,36.73-1.8,55.36-1.8s37.11,.61,55.36,1.8c4.57,.29,8.52-3.19,8.79-7.75,.29-4.57-3.19-8.52-7.75-8.79-10.53-.69-20.99-1.19-31.41-1.51h0Zm35.3-206.29l-60.28-91.21-60.28,91.21h25.01c1.06,.01,2.13,.35,3.04,1.05,2.17,1.67,2.57,4.8,.9,6.97l-45.77,59.37h19.66c1.01,.03,2.04,.34,2.92,.97,2.22,1.61,2.7,4.71,1.09,6.93l-48.92,67.11h204.73l-48.65-66.73c-.78-.88-1.25-2.04-1.25-3.3,0-2.75,2.23-4.99,4.99-4.99h19.64l-45.53-59.07c-.79-.88-1.29-2.05-1.29-3.34,0-2.75,2.23-4.99,4.99-4.99h25.01Z"/></svg>